<svg width="50" height="49" viewBox="0 0 50 49" fill="none" xmlns="http://www.w3.org/2000/svg">
<g clip-path="url(#clip0_6593_16161)">
<path d="M40.9364 0.280273H9.14153C4.32674 0.280273 0.423584 4.18343 0.423584 8.99822V39.5623C0.423584 44.3771 4.32674 48.2803 9.14153 48.2803H40.9364C45.7512 48.2803 49.6543 44.3771 49.6543 39.5623V8.99822C49.6543 4.18343 45.7512 0.280273 40.9364 0.280273Z" fill="#00005B"/>
<path d="M20.2039 28.9966H12.5749L11.0228 33.8276C11.0016 33.9156 10.9505 33.9934 10.8781 34.0476C10.8058 34.1019 10.7168 34.1292 10.6264 34.1249H6.76244C6.54209 34.1249 6.46503 34.0038 6.53126 33.7616L13.1364 14.8174C13.2024 14.6193 13.2685 14.4256 13.3345 14.1722C13.421 13.7316 13.4653 13.2837 13.4667 12.8347C13.4622 12.8033 13.4651 12.7713 13.4751 12.7412C13.4851 12.7111 13.502 12.6838 13.5245 12.6613C13.5469 12.6389 13.5742 12.622 13.6043 12.612C13.6344 12.6019 13.6664 12.599 13.6978 12.6035H18.9489C19.1027 12.6035 19.1908 12.6585 19.2132 12.7686L26.71 33.7946C26.776 34.0149 26.7099 34.125 26.5118 34.1249H22.2185C22.1447 34.133 22.0705 34.1141 22.0098 34.0715C21.949 34.029 21.9058 33.9658 21.8882 33.8937L20.2039 28.9966ZM13.7639 24.9233H18.982C18.8499 24.4831 18.6957 23.9877 18.5195 23.4371C18.3431 22.887 18.1559 22.2981 17.9582 21.6702C17.76 21.0428 17.5619 20.4153 17.3637 19.7878C17.1656 19.1603 16.9839 18.5548 16.8187 17.9713C16.6537 17.3883 16.5051 16.8544 16.3729 16.3696H16.3399C16.154 17.2616 15.9226 18.1434 15.6463 19.0117C15.3377 20.0024 15.024 21.0152 14.7051 22.05C14.3857 23.0852 14.072 24.0429 13.7639 24.9233Z" fill="#9999FF"/>
<path d="M38.8635 27.1162H32.3575C32.4372 27.7599 32.651 28.3798 32.985 28.9358C33.3544 29.4863 33.8767 29.9168 34.4876 30.1742C35.3157 30.5325 36.2112 30.708 37.1132 30.6888C37.8289 30.6751 38.5418 30.5968 39.2433 30.4549C39.8708 30.3702 40.4858 30.2099 41.0748 29.9775C41.1847 29.8898 41.24 29.9445 41.24 30.1427V33.2801C41.2454 33.3656 41.2283 33.451 41.1904 33.5278C41.1526 33.5878 41.1018 33.6386 41.0417 33.6764C40.3884 33.9658 39.7008 34.1706 38.9957 34.2859C38.0377 34.4659 37.064 34.5488 36.0894 34.5336C34.5258 34.5336 33.2158 34.2914 32.1593 33.8071C31.1606 33.3671 30.2785 32.6998 29.5834 31.8585C28.9341 31.0658 28.4511 30.1504 28.1632 29.1669C27.8782 28.1963 27.7336 27.1898 27.7339 26.1781C27.7309 25.0735 27.9037 23.9754 28.2458 22.9251C28.5753 21.9006 29.0965 20.9479 29.7815 20.1179C30.4572 19.2976 31.3021 18.6329 32.2585 18.1694C33.227 17.6962 34.3721 17.5264 35.6931 17.5264C36.7886 17.4987 37.8768 17.713 38.8801 18.1539C39.7237 18.5137 40.4664 19.0746 41.0432 19.7876C41.5843 20.4858 41.9979 21.274 42.2652 22.116C42.5254 22.9273 42.6591 23.7739 42.6615 24.6259C42.6615 25.1104 42.645 25.5508 42.6119 25.9469C42.579 26.3432 42.5515 26.6294 42.5294 26.8056C42.5208 26.8784 42.4858 26.9455 42.431 26.9942C42.3762 27.043 42.3054 27.0698 42.2321 27.0698C42.1 27.0698 41.8744 27.0863 41.5551 27.1194C41.2357 27.1524 40.8394 27.1744 40.3662 27.1854C39.8925 27.1967 39.392 27.1162 38.8635 27.1162ZM32.3575 24.1076H36.6839C37.2123 24.1076 37.6031 24.1021 37.8562 24.0911C38.0256 24.0742 38.1892 24.02 38.3352 23.9324V23.7342C38.3285 23.4759 38.284 23.22 38.2031 22.9746C38.0249 22.4112 37.6667 21.9218 37.1834 21.5818C36.7001 21.2417 36.1185 21.0697 35.528 21.0922C34.9722 21.0586 34.4187 21.1874 33.9349 21.4631C33.4511 21.7387 33.0579 22.1491 32.8034 22.6443C32.5771 23.105 32.4266 23.5991 32.3575 24.1076Z" fill="#9999FF"/>
</g>
<defs>
<clipPath id="clip0_6593_16161">
<rect width="49.2308" height="48" fill="white" transform="translate(0.423584 0.280273)"/>
</clipPath>
</defs>
</svg>
