<svg width="50" height="49" viewBox="0 0 50 49" fill="none" xmlns="http://www.w3.org/2000/svg">
<g clip-path="url(#clip0_6593_16104)">
<path d="M11.018 0.280273H39.0601C41.87 0.280273 44.5648 1.39649 46.5517 3.38338C48.5386 5.37026 49.6548 8.06505 49.6548 10.8749V37.6856C49.6548 40.4955 48.5386 43.1903 46.5517 45.1772C44.5648 47.1641 41.87 48.2803 39.0601 48.2803H11.018C8.20812 48.2803 5.51332 47.1641 3.52644 45.1772C1.53956 43.1903 0.42334 40.4955 0.42334 37.6856L0.42334 10.8749C0.42334 8.06505 1.53956 5.37026 3.52644 3.38338C5.51332 1.39649 8.20812 0.280273 11.018 0.280273V0.280273Z" fill="#470137"/>
<path d="M26.3019 12.9024L20.1587 23.0412L26.7307 33.8087C26.7727 33.884 26.7843 33.9725 26.7631 34.0561C26.7404 34.1338 26.6648 34.0842 26.532 34.1068H21.8471C21.5176 34.1068 21.2854 34.095 21.1536 33.8746C20.7129 33.0162 20.2725 32.1628 19.8325 31.3145C19.3925 30.4662 18.9244 29.602 18.4282 28.722C17.9321 27.8413 17.442 26.9494 16.9581 26.0463H16.9257C16.485 26.9271 16.0281 27.8078 15.5549 28.6885C15.0818 29.5693 14.6137 30.4442 14.1506 31.3134C13.6883 32.1833 13.2152 33.0475 12.7313 33.9059C12.6427 34.1047 12.4882 34.122 12.2679 34.122H7.74394C7.65644 34.122 7.60676 34.1565 7.59596 34.069C7.58345 33.9885 7.60114 33.9062 7.64564 33.8379L14.0189 23.3685L7.80443 12.8657C7.73746 12.7782 7.72666 12.7069 7.77202 12.6496C7.79631 12.6215 7.82684 12.5994 7.86116 12.5852C7.89548 12.5709 7.93265 12.5649 7.96972 12.5675H12.6254C12.7272 12.5613 12.829 12.5779 12.9235 12.6161C13.0023 12.6614 13.0698 12.7238 13.1212 12.7987C13.518 13.6794 13.9587 14.5602 14.4434 15.4409C14.928 16.3216 15.4177 17.1912 15.9125 18.0496C16.4079 18.908 16.8648 19.7775 17.2832 20.6583H17.3156C17.7556 19.7559 18.2014 18.8752 18.6529 18.0161C19.1045 17.157 19.5668 16.2928 20.0399 15.4236C20.5138 14.5544 20.9707 13.6902 21.4107 12.8311C21.4363 12.7492 21.482 12.6749 21.5436 12.6151C21.6249 12.5739 21.7164 12.557 21.8071 12.5665H26.128C26.1521 12.5605 26.1771 12.5593 26.2017 12.563C26.2263 12.5668 26.2499 12.5753 26.2711 12.5881C26.2924 12.601 26.3109 12.6179 26.3257 12.6379C26.3404 12.6579 26.351 12.6806 26.357 12.7047C26.3658 12.7395 26.3645 12.7761 26.3532 12.8102C26.3419 12.8443 26.3211 12.8744 26.2932 12.897L26.3019 12.9024Z" fill="#FF61F6"/>
<path d="M35.782 34.5332C34.2617 34.5565 32.7554 34.2406 31.3726 33.6085C30.0842 33.0124 29.0072 32.039 28.2843 30.8173C27.4893 29.3918 27.1007 27.7754 27.1608 26.1443C27.1493 24.6304 27.5368 23.1401 28.2843 21.8235C29.0548 20.4805 30.188 19.3818 31.5541 18.6531C33.1525 17.8207 34.9376 17.4116 36.739 17.4649C36.8471 17.4649 36.9929 17.4713 37.1711 17.4821C37.3493 17.4929 37.5557 17.5102 37.7987 17.5318V11.0193C37.7987 10.8659 37.8646 10.7881 37.9975 10.7881H42.1584C42.1813 10.7848 42.2046 10.786 42.227 10.7916C42.2493 10.7973 42.2704 10.8074 42.2888 10.8213C42.3073 10.8351 42.3229 10.8525 42.3346 10.8724C42.3463 10.8923 42.354 10.9143 42.3572 10.9372C42.3598 10.9533 42.3598 10.9697 42.3572 10.9858V30.504C42.3572 30.8792 42.3737 31.2864 42.4069 31.7257C42.44 32.165 42.4677 32.5611 42.49 32.914C42.494 32.9825 42.4773 33.0507 42.4421 33.1097C42.4068 33.1686 42.3547 33.2156 42.2924 33.2445C41.2189 33.6924 40.1007 34.0244 38.9567 34.235C37.9095 34.4292 36.847 34.529 35.782 34.5332ZM37.7966 30.4381V21.4227C37.6197 21.3744 37.439 21.3412 37.2565 21.3234C37.0318 21.301 36.806 21.2902 36.5792 21.2909C35.7777 21.2834 34.9858 21.4647 34.2675 21.8202C33.5698 22.1685 32.9743 22.6918 32.5392 23.339C32.0544 24.1199 31.8182 25.0296 31.8619 25.9477C31.8458 26.6677 31.9634 27.3845 32.2086 28.0617C32.409 28.607 32.7248 29.1026 33.1344 29.5146C33.5264 29.8935 34.0013 30.1761 34.5214 30.3398C35.0708 30.5182 35.6451 30.6075 36.2227 30.6045C36.5302 30.6045 36.8164 30.5933 37.0815 30.571C37.3231 30.5516 37.562 30.507 37.7944 30.4381H37.7966Z" fill="#FF61F6"/>
</g>
<defs>
<clipPath id="clip0_6593_16104">
<rect width="49.2314" height="48" fill="white" transform="translate(0.42334 0.280273)"/>
</clipPath>
</defs>
</svg>
