<svg width="49" height="30" viewBox="0 0 49 30" fill="none" xmlns="http://www.w3.org/2000/svg">
<g clip-path="url(#clip0_6593_15885)">
<path d="M13.6812 11.2644C13.6812 11.8487 13.7443 12.3223 13.8549 12.6697C13.9812 13.0171 14.1391 13.396 14.3601 13.8065C14.4391 13.9329 14.4706 14.0592 14.4706 14.1697C14.4706 14.3276 14.3759 14.4855 14.1706 14.6434L13.1759 15.3065C13.0338 15.4013 12.8917 15.4487 12.7654 15.4487C12.6075 15.4487 12.4496 15.3697 12.2917 15.2276C12.0706 14.9908 11.8812 14.7381 11.7233 14.4855C11.5654 14.2171 11.4075 13.9171 11.2338 13.5539C10.0022 15.0065 8.45485 15.7329 6.5917 15.7329C5.26538 15.7329 4.20749 15.3539 3.4338 14.596C2.66012 13.8381 2.26538 12.8276 2.26538 11.5644C2.26538 10.2223 2.73907 9.13286 3.70222 8.31181C4.66538 7.49076 5.94433 7.08023 7.57064 7.08023C8.10749 7.08023 8.66012 7.1276 9.24433 7.20655C9.82854 7.2855 10.4285 7.41181 11.0601 7.55392V6.40129C11.0601 5.20129 10.8075 4.36444 10.318 3.87497C9.81275 3.3855 8.96012 3.14865 7.74433 3.14865C7.1917 3.14865 6.62328 3.21181 6.03907 3.35392C5.45485 3.49602 4.88643 3.66971 4.3338 3.89076C4.08117 4.00129 3.8917 4.06444 3.78117 4.09602C3.67064 4.1276 3.5917 4.14339 3.52854 4.14339C3.30749 4.14339 3.19696 3.9855 3.19696 3.65392V2.88023C3.19696 2.6276 3.22854 2.43813 3.30749 2.3276C3.38643 2.21708 3.52854 2.10655 3.74959 1.99602C4.30222 1.71181 4.96538 1.47497 5.73906 1.2855C6.51275 1.08023 7.3338 0.985497 8.20222 0.985497C10.0812 0.985497 11.4549 1.41181 12.3391 2.26444C13.2075 3.11708 13.6496 4.41181 13.6496 6.14865V11.2644H13.6812ZM7.27064 13.6644C7.7917 13.6644 8.32854 13.5697 8.89696 13.3802C9.46538 13.1908 9.97064 12.8434 10.397 12.3697C10.6496 12.0697 10.8391 11.7381 10.9338 11.3592C11.0285 10.9802 11.0917 10.5223 11.0917 9.9855V9.32234C10.6338 9.21181 10.1443 9.11708 9.63906 9.05392C9.1338 8.99076 8.64433 8.95918 8.15486 8.95918C7.09696 8.95918 6.32328 9.16444 5.80222 9.59076C5.28117 10.0171 5.02854 10.6171 5.02854 11.4065C5.02854 12.1487 5.21801 12.7013 5.61275 13.0802C5.9917 13.475 6.54433 13.6644 7.27064 13.6644ZM19.9496 15.3697C19.6654 15.3697 19.4759 15.3223 19.3496 15.2118C19.2233 15.1171 19.1127 14.896 19.018 14.596L15.3075 2.39076C15.2127 2.07497 15.1654 1.86971 15.1654 1.75918C15.1654 1.50655 15.2917 1.36444 15.5443 1.36444H17.0917C17.3917 1.36444 17.597 1.41181 17.7075 1.52234C17.8338 1.61708 17.9285 1.83813 18.0233 2.13813L20.6759 12.5908L23.1391 2.13813C23.218 1.82234 23.3127 1.61708 23.4391 1.52234C23.5654 1.4276 23.7864 1.36444 24.0706 1.36444H25.3338C25.6338 1.36444 25.8391 1.41181 25.9654 1.52234C26.0917 1.61708 26.2022 1.83813 26.2654 2.13813L28.7601 12.7171L31.4917 2.13813C31.5864 1.82234 31.697 1.61708 31.8075 1.52234C31.9338 1.4276 32.1391 1.36444 32.4233 1.36444H33.8917C34.1443 1.36444 34.2864 1.49076 34.2864 1.75918C34.2864 1.83813 34.2706 1.91708 34.2549 2.01181C34.2391 2.10655 34.2075 2.23287 34.1443 2.40655L30.3391 14.6118C30.2443 14.9276 30.1338 15.1329 30.0075 15.2276C29.8812 15.3223 29.6759 15.3855 29.4075 15.3855H28.0496C27.7496 15.3855 27.5443 15.3381 27.418 15.2276C27.2917 15.1171 27.1812 14.9118 27.118 14.596L24.6706 4.41181L22.2391 14.5802C22.1601 14.896 22.0654 15.1013 21.9391 15.2118C21.8127 15.3223 21.5917 15.3697 21.3075 15.3697H19.9496ZM40.2391 15.796C39.418 15.796 38.597 15.7013 37.8075 15.5118C37.018 15.3223 36.4022 15.1171 35.9917 14.8802C35.7391 14.7381 35.5654 14.5802 35.5022 14.4381C35.4391 14.296 35.4075 14.1381 35.4075 13.996V13.1908C35.4075 12.8592 35.5338 12.7013 35.7706 12.7013C35.8654 12.7013 35.9601 12.7171 36.0549 12.7487C36.1496 12.7802 36.2917 12.8434 36.4496 12.9065C36.9864 13.1434 37.5706 13.3329 38.1864 13.4592C38.818 13.5855 39.4338 13.6487 40.0654 13.6487C41.0601 13.6487 41.8338 13.475 42.3706 13.1276C42.9075 12.7802 43.1917 12.275 43.1917 11.6276C43.1917 11.1855 43.0496 10.8223 42.7654 10.5223C42.4812 10.2223 41.9443 9.95392 41.1706 9.70129L38.8812 8.99076C37.7285 8.6276 36.8759 8.09076 36.3549 7.38023C35.8338 6.6855 35.5654 5.91181 35.5654 5.09076C35.5654 4.4276 35.7075 3.84339 35.9917 3.33813C36.2759 2.83287 36.6549 2.39076 37.1285 2.04339C37.6022 1.68023 38.1391 1.41181 38.7706 1.22234C39.4022 1.03287 40.0654 0.953918 40.7601 0.953918C41.1075 0.953918 41.4706 0.969708 41.818 1.01708C42.1812 1.06444 42.5128 1.1276 42.8443 1.19076C43.1601 1.26971 43.4601 1.34866 43.7443 1.44339C44.0285 1.53813 44.2496 1.63287 44.4075 1.7276C44.6285 1.85392 44.7864 1.98023 44.8812 2.12234C44.9759 2.24866 45.0233 2.42234 45.0233 2.64339V3.3855C45.0233 3.71708 44.897 3.89076 44.6601 3.89076C44.5338 3.89076 44.3285 3.8276 44.0601 3.70129C43.1601 3.29076 42.1496 3.0855 41.0285 3.0855C40.1285 3.0855 39.418 3.2276 38.9285 3.5276C38.4391 3.8276 38.1864 4.2855 38.1864 4.93287C38.1864 5.37497 38.3443 5.75392 38.6601 6.05392C38.9759 6.35392 39.5601 6.65392 40.397 6.92234L42.6391 7.63287C43.7759 7.99602 44.597 8.50129 45.0864 9.14865C45.5759 9.79602 45.8127 10.5381 45.8127 11.3592C45.8127 12.0381 45.6706 12.6539 45.4022 13.1908C45.118 13.7276 44.7391 14.2013 44.2496 14.5802C43.7601 14.975 43.1759 15.2592 42.497 15.4644C41.7864 15.6855 41.0443 15.796 40.2391 15.796Z" fill="#252F3E"/>
<path fill-rule="evenodd" clip-rule="evenodd" d="M43.2231 23.4697C38.0284 27.3066 30.481 29.3434 23.9915 29.3434C14.8968 29.3434 6.70204 25.9802 0.512565 20.3908C0.0230909 19.9487 0.465196 19.3487 1.04941 19.696C7.74414 23.5802 16.002 25.9329 24.5441 25.9329C30.3073 25.9329 36.6389 24.7329 42.4652 22.2697C43.3336 21.875 44.0757 22.8381 43.2231 23.4697Z" fill="#FF9900"/>
<path fill-rule="evenodd" clip-rule="evenodd" d="M45.3863 21.0066C44.7231 20.1539 40.9968 20.596 39.3073 20.8013C38.8021 20.8645 38.7231 20.4224 39.181 20.0908C42.1494 18.0066 47.0284 18.6066 47.5968 19.3013C48.1652 20.0118 47.4389 24.8908 44.66 27.2276C44.2337 27.5908 43.8231 27.4013 44.0126 26.9276C44.6442 25.3645 46.0494 21.8434 45.3863 21.0066Z" fill="#FF9900"/>
</g>
<defs>
<clipPath id="clip0_6593_15885">
<rect width="48" height="28.7368" fill="white" transform="translate(0.0390625 0.780273)"/>
</clipPath>
</defs>
</svg>
