<svg width="49" height="49" viewBox="0 0 49 49" fill="none" xmlns="http://www.w3.org/2000/svg">
<g clip-path="url(#clip0_6593_13924)">
<path d="M41.0422 9.71341L37.9441 44.4196L24.0182 48.2803L10.1307 44.425L7.03589 9.71341H41.0422Z" fill="#004CE8"/>
<path d="M35.2919 42.2096L37.9394 12.5516H24.0391V45.3293L35.2919 42.2096Z" fill="#0065F4"/>
<path d="M14.1307 25.4256L14.5123 29.6828H24.0391L25.8704 27.5542L24.0391 25.4256H14.1307ZM24.0391 16.8088H13.364L13.751 21.0661H24.0391L25.8704 18.9374L24.0391 16.8088ZM24.0391 40.9114L25.8704 38.6538L24.0391 36.4821L24.0205 36.4871L19.2792 35.2068L18.9761 31.8115H14.7025L15.2989 38.4959L24.0195 40.9168L24.0391 40.9114Z" fill="#EBEBEB"/>
<path d="M15.0391 0.280273H20.1953V2.43652H17.1953V4.59277H20.1953V6.74902H15.0391V0.280273ZM21.2266 0.280273H26.3828V2.15527H23.3828V2.53027H26.3828V6.84277H21.2266V4.87402H24.2266V4.49902H21.2266V0.280273ZM27.4141 0.280273H32.5703V2.15527H29.5703V2.53027H32.5703V6.84277H27.4141V4.87402H30.4141V4.49902H27.4141V0.280273Z" fill="#221747"/>
<path d="M29.2667 29.6828L28.7726 35.2041L24.0244 36.4857V40.9148L32.752 38.4959L32.816 37.7767L33.8164 26.5688L33.9203 25.4256L34.6889 16.8088H24.0244V21.0661H30.0233L29.6359 25.4256H24.0244V29.6828H29.2667Z" fill="white"/>
</g>
<defs>
<clipPath id="clip0_6593_13924">
<rect width="48" height="48" fill="white" transform="translate(0.0390625 0.280273)"/>
</clipPath>
</defs>
</svg>
