<svg width="49" height="49" viewBox="0 0 49 49" fill="none" xmlns="http://www.w3.org/2000/svg">
<g clip-path="url(#clip0_6593_36163)">
<path d="M25.1818 16.7799H16.0391C11.6209 16.7799 8.03931 13.1983 8.03931 8.78011C8.03931 4.36192 11.6209 0.780273 16.0391 0.780273H25.1818V16.7799Z" fill="#E64A19"/>
<path d="M24.039 32.7803H16.0391C11.6209 32.7803 8.03931 29.1987 8.03931 24.7805C8.03931 20.3623 11.6209 16.7806 16.0391 16.7806H24.039V32.7803Z" fill="#7C4DFF"/>
<path d="M16.0389 48.7804C11.6207 48.7804 8.03906 45.1987 8.03906 40.7805C8.03906 36.3623 11.6207 32.7807 16.0389 32.7807H24.0387V40.7805C24.0387 45.1987 20.4571 48.7804 16.0389 48.7804Z" fill="#66BB6A"/>
<path d="M32.0399 16.7802H24.04V0.780548H32.0399C36.4581 0.780548 40.0397 4.36219 40.0397 8.78039C40.0397 13.1986 36.4581 16.7802 32.0399 16.7802Z" fill="#FF7043"/>
<path d="M32.0399 32.7803C36.4581 32.7803 40.0397 29.1986 40.0397 24.7805C40.0397 20.3623 36.4581 16.7806 32.0399 16.7806C27.6217 16.7806 24.04 20.3623 24.04 24.7805C24.04 29.1986 27.6217 32.7803 32.0399 32.7803Z" fill="#29B6F6"/>
</g>
<defs>
<clipPath id="clip0_6593_36163">
<rect width="48" height="48" fill="white" transform="translate(0.0390625 0.280273)"/>
</clipPath>
</defs>
</svg>
