<svg width="49" height="49" viewBox="0 0 49 49" fill="none" xmlns="http://www.w3.org/2000/svg">
<g clip-path="url(#clip0_6593_16081)">
<path d="M10.2014 0.280273H12.3577V2.41777H14.3452V0.280273H16.5014V6.74902H14.3452V4.59277H12.3764V6.74902H10.2014V0.280273ZM19.3514 2.43652H17.4483V0.280273H23.4202V2.43652H21.5077V6.74902H19.3514V2.43652ZM24.367 0.280273H26.6264L28.0139 2.5584L29.4014 0.280273H31.6608V6.74902H29.5045V3.54277L27.9952 5.86777L26.4858 3.54277V6.74902H24.367V0.280273ZM32.7295 0.280273H34.8858V4.61152H37.942V6.74902H32.7295V0.280273Z" fill="#221747"/>
<path d="M10.1265 44.4365L7.03271 9.71152H41.0452L37.9515 44.4178L24.0108 48.2803" fill="#FF4C1E"/>
<path d="M24.0391 45.3271V12.5615H37.9422L35.2891 42.1865L24.0391 45.3271Z" fill="#FF651E"/>
<path d="M13.3516 16.8084H24.0391L25.6282 18.9365L24.0391 21.0647H18.0203L18.4141 25.424H24.0391L25.6282 27.6318L24.0391 29.6709H14.5141L13.3516 16.8084ZM14.7016 31.8084H18.9766L19.2766 35.2115L24.0391 36.4865L25.8322 38.6109L24.0391 40.9303L15.3016 38.4928L14.7016 31.8084Z" fill="#EBEBEB"/>
<path d="M34.689 16.8084H24.0203V21.0647H34.2953L34.689 16.8084ZM33.9109 25.424H24.0203V29.6803H29.2703L28.7734 35.2115L24.0203 36.4865V40.9115L32.739 38.4928L33.9109 25.424Z" fill="white"/>
</g>
<defs>
<clipPath id="clip0_6593_16081">
<rect width="48" height="48" fill="white" transform="translate(0.0390625 0.280273)"/>
</clipPath>
</defs>
</svg>
