<svg width="49" height="49" viewBox="0 0 49 49" fill="none" xmlns="http://www.w3.org/2000/svg">
<g clip-path="url(#clip0_6593_25044)">
<path d="M24.3362 48.7803C23.693 48.7803 23.0555 48.6122 22.4918 48.2873L16.6205 44.8104C15.7432 44.3196 16.1712 44.1459 16.4603 44.0462C17.6301 43.6372 17.8665 43.5442 19.1147 42.835C19.2458 42.7599 19.4172 42.7868 19.5517 42.8663L24.0628 45.5432C24.2252 45.6317 24.4572 45.6317 24.6073 45.5432L42.1956 35.3905C42.3581 35.2975 42.4645 35.1092 42.4645 34.9154V14.62C42.4645 14.4172 42.3592 14.2368 42.1923 14.1359L24.6118 3.99103C24.4493 3.89467 24.2331 3.89467 24.0706 3.99103L6.4924 14.1348C6.32209 14.2312 6.2134 14.4205 6.2134 14.6144V34.9109C6.2134 35.1047 6.31873 35.2896 6.4868 35.3815L11.3038 38.1637C13.919 39.4713 15.5168 37.9306 15.5168 36.381V16.35C15.5168 16.0643 15.7409 15.8435 16.0278 15.8435H18.2553C18.5332 15.8435 18.7617 16.0632 18.7617 16.35V36.391C18.7617 39.878 16.8603 41.8814 13.5537 41.8814C12.5363 41.8814 11.7352 41.8814 9.49867 40.7811L4.88451 38.1222C3.74385 37.4611 3.03906 36.2275 3.03906 34.912V14.6155C3.03906 13.2944 3.74385 12.0619 4.88338 11.4098L22.4907 1.25256C23.6045 0.622845 25.0835 0.622845 26.1895 1.25256L43.7744 11.4143C44.9083 12.0697 45.6176 13.2989 45.6176 14.62V34.9165C45.6176 36.2331 44.9083 37.4611 43.7733 38.1222L26.1883 48.2783C25.6247 48.6044 24.9861 48.7713 24.3351 48.7713" fill="#689F63"/>
<path d="M29.7868 34.7944C22.0913 34.7944 20.4778 31.2615 20.4778 28.2989C20.4778 28.0177 20.7052 27.7925 20.9876 27.7925H23.26C23.511 27.7925 23.7227 27.9751 23.7619 28.2228C24.1048 30.5377 25.1267 31.7052 29.7801 31.7052C33.4867 31.7052 35.0632 30.8682 35.0632 28.9018C35.0632 27.7701 34.6139 26.9297 28.8557 26.3661C24.0387 25.891 21.0627 24.8299 21.0627 20.9777C21.0627 17.4291 24.0566 15.3159 29.0708 15.3159C34.7024 15.3159 37.4936 17.2711 37.8454 21.4707C37.8589 21.6164 37.8062 21.7564 37.7087 21.8629C37.6124 21.9637 37.4756 22.0254 37.3345 22.0254H35.0498C34.8122 22.0254 34.6049 21.8584 34.5568 21.6287C34.0066 19.1939 32.6766 18.4151 29.0619 18.4151C25.0158 18.4151 24.5452 19.8236 24.5452 20.8802C24.5452 22.1609 25.0998 22.5352 30.5589 23.2579C35.9652 23.975 38.5323 24.9879 38.5323 28.7875C38.5323 32.6173 35.3355 34.8146 29.7622 34.8146" fill="#689F63"/>
</g>
<defs>
<clipPath id="clip0_6593_25044">
<rect width="48" height="48" fill="white" transform="translate(0.0390625 0.280273)"/>
</clipPath>
</defs>
</svg>
