<svg width="49" height="49" viewBox="0 0 49 49" fill="none" xmlns="http://www.w3.org/2000/svg">
<g clip-path="url(#clip0_6593_18273)">
<path d="M4.61049 6.78027H43.4676C45.9933 6.78027 48.0391 8.82713 48.0391 11.3517V38.7803C48.0391 41.3048 45.9933 43.3517 43.4676 43.3517H4.61049C2.08592 43.3517 0.0390625 41.3048 0.0390625 38.7803V11.3517C0.0390625 8.82713 2.08592 6.78027 4.61049 6.78027Z" fill="#2196F3"/>
<path d="M16.0809 30.4662H11.1758L10.2192 34.2091H6.41577L11.9815 15.9233H15.2729L20.8763 34.2091H17.0352L16.0809 30.4662ZM11.9586 27.3896H15.2866L13.6226 20.8719L11.9586 27.3896ZM26.3232 27.7793V34.2091H22.8946V15.9233H28.6089C30.3712 15.9233 31.7758 16.4845 32.8249 17.6068C33.8718 18.7279 34.3232 20.1851 34.3232 21.9771C34.3232 23.7691 33.8775 25.1839 32.8432 26.2216C31.8066 27.2593 30.3712 27.7793 28.5369 27.7793H26.3232ZM26.3232 24.7016H28.7415C29.4261 24.7016 29.9563 24.4719 30.3335 24.0113C30.7072 23.5508 30.8946 22.8811 30.8946 22.0022C30.8946 21.0891 30.7038 20.3633 30.3198 19.8228C29.9369 19.2833 29.4226 19.0091 28.7781 18.9999H26.3232V24.7016ZM40.0375 34.2091H36.6089V15.9233H40.0375V34.2091Z" fill="white"/>
</g>
<defs>
<clipPath id="clip0_6593_18273">
<rect width="48" height="48" fill="white" transform="translate(0.0390625 0.280273)"/>
</clipPath>
</defs>
</svg>
