<svg width="49" height="29" viewBox="0 0 49 29" fill="none" xmlns="http://www.w3.org/2000/svg">
<g clip-path="url(#clip0_6593_16791)">
<g clip-path="url(#clip1_6593_16791)">
<path d="M35.3657 20.0796L36.7524 16.5731H40.7561L38.8561 11.2538L41.2324 5.24426L48.039 23.3164H43.0194L41.8563 20.0796H35.3657Z" fill="#3D3D3D"/>
<path d="M31.0834 23.3164L38.3699 5.24429L33.5392 5.24432L28.5548 16.9229L25.0103 5.24434H21.2972L17.4914 16.9229L14.8075 11.6012L12.3787 19.0841L14.8447 23.3164H19.5987L23.0378 12.8432L26.3168 23.3164H31.0834Z" fill="#5A0FC8"/>
<path d="M4.62454 17.1126H7.60002C8.50135 17.1126 9.30395 17.012 10.0078 16.8109L10.7773 14.4402L12.9279 7.81444C12.7641 7.55471 12.577 7.30913 12.3667 7.07774C11.2625 5.85549 9.64691 5.24438 7.51993 5.24438H0.0390625V23.3165H4.62454V17.1126ZM8.56305 9.40205C8.99436 9.83614 9.20999 10.417 9.20999 11.1448C9.20999 11.8781 9.02032 12.4597 8.64102 12.8896C8.2252 13.3673 7.45954 13.6061 6.34408 13.6061H4.62454V8.75088H6.35672C7.39632 8.75088 8.13176 8.96794 8.56305 9.40205Z" fill="#3D3D3D"/>
</g>
</g>
<defs>
<clipPath id="clip0_6593_16791">
<rect width="48" height="28.0976" fill="white" transform="translate(0.0390625 0.231506)"/>
</clipPath>
<clipPath id="clip1_6593_16791">
<rect width="48" height="18.0722" fill="white" transform="translate(0.0390625 5.2442)"/>
</clipPath>
</defs>
</svg>
