<svg width="49" height="49" viewBox="0 0 49 49" fill="none" xmlns="http://www.w3.org/2000/svg">
<g clip-path="url(#clip0_6593_14779)">
<path d="M24.1082 0.780594C22.4684 0.788027 20.9026 0.924461 19.5248 1.16232C15.4659 1.8619 14.729 3.32619 14.729 6.02658V9.59298H24.3206V10.7818H14.729H11.1293C8.34175 10.7818 5.90086 12.4164 5.13738 15.5261C4.25672 19.0905 4.21766 21.3147 5.13738 25.0365C5.81919 27.8068 7.44743 29.7808 10.235 29.7808H13.5328V25.5054C13.5328 22.4168 16.272 19.6923 19.5248 19.6923H29.1052C31.772 19.6923 33.901 17.5501 33.901 14.9371V6.02658C33.901 3.49059 31.7081 1.58557 29.1052 1.16232C27.4575 0.894728 25.7479 0.773161 24.1082 0.780594ZM18.9211 3.64898C19.9118 3.64898 20.7209 4.45122 20.7209 5.43764C20.7209 6.42055 19.9118 7.21538 18.9211 7.21538C17.9268 7.21538 17.1213 6.42055 17.1213 5.43764C17.1213 4.45122 17.9268 3.64898 18.9211 3.64898Z" fill="url(#paint0_linear_6593_14779)"/>
<path d="M35.0967 10.7819V14.9372C35.0967 18.1588 32.2971 20.8703 29.1047 20.8703H19.5243C16.9001 20.8703 14.7285 23.0615 14.7285 25.6255V34.536C14.7285 37.072 16.9889 38.5637 19.5243 39.2912C22.5605 40.1622 25.472 40.3196 29.1047 39.2912C31.5194 38.6091 33.9005 37.2364 33.9005 34.536V30.9696H24.3201V29.7808H33.9005H38.6963C41.4839 29.7808 42.5227 27.8839 43.4921 25.0365C44.4935 22.1053 44.4509 19.2864 43.4921 15.5262C42.8032 12.8188 41.4874 10.7819 38.6963 10.7819H35.0967ZM29.7084 33.3472C30.7027 33.3472 31.5082 34.1421 31.5082 35.125C31.5082 36.1114 30.7027 36.9136 29.7084 36.9136C28.7176 36.9136 27.9086 36.1114 27.9086 35.125C27.9086 34.1421 28.7176 33.3472 29.7084 33.3472Z" fill="url(#paint1_linear_6593_14779)"/>
<path opacity="0.44382" d="M24.4287 47.7803C31.5275 47.7803 37.2822 46.6916 37.2822 45.3487C37.2822 44.0057 31.5275 42.9171 24.4287 42.9171C17.3299 42.9171 11.5752 44.0057 11.5752 45.3487C11.5752 46.6916 17.3299 47.7803 24.4287 47.7803Z" fill="url(#paint2_radial_6593_14779)"/>
</g>
<defs>
<linearGradient id="paint0_linear_6593_14779" x1="4.46216" y1="0.780273" x2="26.1182" y2="19.6955" gradientUnits="userSpaceOnUse">
<stop stop-color="#5A9FD4"/>
<stop offset="1" stop-color="#306998"/>
</linearGradient>
<linearGradient id="paint1_linear_6593_14779" x1="29.4779" y1="34.8251" x2="21.8005" y2="23.798" gradientUnits="userSpaceOnUse">
<stop stop-color="#FFD43B"/>
<stop offset="1" stop-color="#FFE873"/>
</linearGradient>
<radialGradient id="paint2_radial_6593_14779" cx="0" cy="0" r="1" gradientUnits="userSpaceOnUse" gradientTransform="translate(24.4287 45.3487) rotate(-90) scale(2.43163 10.9552)">
<stop stop-color="#B8B8B8" stop-opacity="0.498039"/>
<stop offset="1" stop-color="#7F7F7F" stop-opacity="0"/>
</radialGradient>
<clipPath id="clip0_6593_14779">
<rect width="48" height="48" fill="white" transform="translate(0.0390625 0.280273)"/>
</clipPath>
</defs>
</svg>
