<svg width="49" height="49" viewBox="0 0 49 49" fill="none" xmlns="http://www.w3.org/2000/svg">
<g clip-path="url(#clip0_6593_17173)">
<path d="M24.0391 35.1888C10.5782 35.1888 0.0390625 30.5975 0.0390625 24.754C0.0390625 18.9106 10.5782 14.3192 24.0391 14.3192C37.5 14.3192 48.0392 18.9106 48.0392 24.754C48.0392 30.5975 37.5 35.1888 24.0391 35.1888ZM24.0391 16.4062C10.8913 16.4062 2.12602 20.6845 2.12602 24.754C2.12602 28.8236 10.8913 33.1019 24.0391 33.1019C37.187 33.1019 45.9522 28.8236 45.9522 24.754C45.9522 20.6845 37.187 16.4062 24.0391 16.4062Z" fill="#80DEEA"/>
<path d="M14.7498 46.2492C13.7063 46.2492 12.8715 46.0405 12.0367 45.5188C6.92366 42.597 8.28018 31.2231 14.9585 19.5361C18.0889 14.11 21.9498 9.51869 25.7063 6.59695C29.7759 3.46651 33.4281 2.52737 35.9324 3.98825C38.5411 5.44912 39.4802 9.1013 38.8541 14.2144C38.2281 19.0144 36.1411 24.6492 33.0107 30.0753C29.8802 35.5013 26.0193 40.0927 22.2628 43.0144C19.5498 45.1014 16.9411 46.2492 14.7498 46.2492ZM33.3237 5.34477C31.6541 5.34477 29.4628 6.2839 27.0628 8.16217C23.515 10.9796 19.8628 15.3622 16.8367 20.5796C10.2628 31.9535 9.6367 41.7622 13.0802 43.7448C14.8541 44.7883 17.7758 43.8492 21.0106 41.3448C24.5585 38.5274 28.2106 34.1448 31.2367 28.9274C34.2628 23.71 36.2454 18.3883 36.8715 13.9013C37.3933 9.72739 36.7672 6.80564 34.9933 5.76216C34.4715 5.55347 33.9498 5.34477 33.3237 5.34477Z" fill="#80DEEA"/>
<path d="M33.4295 46.2493C28.212 46.2493 20.699 39.8841 15.0642 29.971C8.28157 18.284 6.92504 6.91008 12.0381 3.98833C17.1512 1.06659 26.3338 7.84921 33.1164 19.5362C36.2469 24.9623 38.3338 30.5971 38.9599 35.3971C39.6903 40.5101 38.6469 44.058 36.0382 45.6232C35.2034 46.0406 34.3686 46.2493 33.4295 46.2493ZM13.0816 5.76225C9.63809 7.74486 10.2642 17.5536 16.8381 28.9275C23.412 40.3014 31.5512 45.7275 34.9947 43.7449C36.7686 42.7015 37.3947 39.7797 36.8729 35.6058C36.2469 31.1188 34.2642 25.7971 31.2381 20.5797C24.6642 9.20573 16.5251 3.77964 13.0816 5.76225Z" fill="#80DEEA"/>
<path d="M24.0372 28.928C26.3424 28.928 28.2111 27.0593 28.2111 24.7541C28.2111 22.4489 26.3424 20.5802 24.0372 20.5802C21.732 20.5802 19.8633 22.4489 19.8633 24.7541C19.8633 27.0593 21.732 28.928 24.0372 28.928Z" fill="#80DEEA"/>
</g>
<defs>
<clipPath id="clip0_6593_17173">
<rect width="48" height="48" fill="white" transform="translate(0.0390625 0.280273)"/>
</clipPath>
</defs>
</svg>
