<svg width="49" height="49" viewBox="0 0 49 49" fill="none" xmlns="http://www.w3.org/2000/svg">
<path d="M39.1112 11.2634C39.0854 11.0292 38.8789 10.9251 38.724 10.8991C38.5691 10.8731 35.4714 10.8471 35.4714 10.8471C35.4714 10.8471 32.8642 8.29718 32.6061 8.03699C32.348 7.7768 31.8575 7.85486 31.651 7.90689C31.651 7.90689 31.1605 8.06301 30.3345 8.3232C30.2054 7.88088 29.9989 7.33447 29.715 6.78806C28.7857 4.99273 27.4433 4.05603 25.7913 4.05603C25.688 4.05603 25.5589 4.05603 25.4557 4.08205C25.4041 4.03001 25.3524 3.97797 25.3008 3.89992C24.578 3.11934 23.6745 2.75507 22.5904 2.78109C20.4736 2.83312 18.3827 4.36826 16.6532 7.12631C15.4399 9.05174 14.5365 11.4715 14.2783 13.3449C11.8518 14.0995 10.1481 14.6199 10.1223 14.6459C8.90905 15.0362 8.85742 15.0622 8.70254 16.2331C8.57347 17.0917 5.37256 42.0963 5.37256 42.0963L32.2447 46.7798L43.8867 43.8656C43.8867 43.8656 39.137 11.4715 39.1112 11.2634ZM28.9922 8.73951C28.3726 8.92165 27.6757 9.15582 26.9013 9.39C26.8754 8.3232 26.7464 6.81408 26.2559 5.51312C27.8822 5.82535 28.6566 7.6467 28.9922 8.73951ZM25.5073 9.83232C24.0876 10.2747 22.5645 10.743 21.0157 11.2374C21.4545 9.57213 22.2806 7.90689 23.2873 6.81408C23.6745 6.39777 24.1908 5.95544 24.8103 5.69525C25.4041 6.91816 25.5073 8.66145 25.5073 9.83232ZM22.6162 4.21215C23.1066 4.21215 23.5197 4.31623 23.881 4.5504C23.3131 4.83661 22.7452 5.27894 22.229 5.85137C20.8866 7.30845 19.8541 9.54611 19.4411 11.7317C18.1504 12.122 16.9113 12.5123 15.7497 12.8766C16.5241 9.44204 19.3636 4.31623 22.6162 4.21215Z" fill="#95BF47"/>
<path d="M38.724 10.8991C38.5691 10.8731 35.4714 10.8471 35.4714 10.8471C35.4714 10.8471 32.8642 8.29718 32.6061 8.03699C32.5029 7.93291 32.3739 7.88185 32.2449 7.88185L32.2447 46.7798L43.8867 43.8656C43.8867 43.8656 39.137 11.4976 39.1112 11.2634C39.0596 11.0292 38.8789 10.9251 38.724 10.8991Z" fill="#5E8E3E"/>
<path d="M25.7924 16.9362L24.4501 22.036C24.4501 22.036 22.9529 21.3335 21.1459 21.4636C18.5129 21.6197 18.4871 23.2849 18.5129 23.7272C18.6678 26.0169 24.605 26.5113 24.9405 31.8453C25.1987 36.0604 22.7206 38.9225 19.1582 39.1567C14.8732 39.4169 12.5241 36.893 12.5241 36.893L13.4276 33.0161C13.4276 33.0161 15.8025 34.8115 17.6869 34.7074C18.9259 34.6293 19.3648 33.6146 19.3131 32.886C19.1324 29.9198 14.2794 30.076 13.9697 25.2103C13.7115 21.0993 16.3962 16.9362 22.3075 16.5459C24.6308 16.3377 25.7924 16.9362 25.7924 16.9362Z" fill="white"/>
</svg>
