<svg width="48" height="30" viewBox="0 0 48 30" fill="none" xmlns="http://www.w3.org/2000/svg">
<path fill-rule="evenodd" clip-rule="evenodd" d="M43.4018 0.772339H4.33073C1.85813 0.772339 -0.143504 2.80969 -0.12388 5.2822V20.3151C-0.12388 22.8073 1.87775 24.8249 4.35036 24.8249H22.8556L31.3135 29.5722L29.3904 24.8249H43.4018C45.8744 24.8249 47.876 22.8073 47.876 20.3151V5.2822C47.876 2.7899 45.8744 0.772339 43.4018 0.772339ZM3.50662 4.25363C2.95715 4.2932 2.54504 4.491 2.27031 4.86681C1.99558 5.22286 1.89746 5.6778 1.95633 6.19208C3.11414 13.6097 4.19344 18.614 5.19426 21.2052C5.58674 22.1546 6.03809 22.6097 6.56794 22.5701C7.39213 22.5107 8.37332 21.3635 9.53113 19.1283C10.1395 17.8623 11.0814 15.9635 12.357 13.4316C13.4166 17.17 14.8687 19.9789 16.6938 21.8579C17.2041 22.392 17.7339 22.6294 18.2441 22.5898C18.6955 22.5502 19.0486 22.3129 19.2841 21.8777C19.4804 21.5019 19.5589 21.0667 19.5196 20.5722C19.4019 18.7723 19.5786 16.2602 20.0692 13.036C20.5793 9.71296 21.2073 7.31955 21.9726 5.89538C22.1296 5.59869 22.1884 5.30197 22.1689 4.94594C22.1296 4.49099 21.9334 4.11517 21.5606 3.81847C21.1877 3.52178 20.7755 3.38332 20.3242 3.42287C19.7552 3.46243 19.3234 3.73935 19.0291 4.2932C17.8124 6.52835 16.9489 10.1481 16.4388 15.1723C15.693 13.2734 15.065 11.0382 14.5744 8.40745C14.3586 7.24044 13.8288 6.68659 12.9653 6.74593C12.3766 6.78548 11.886 7.18109 11.4935 7.93273L7.1959 16.1811C6.48944 13.3129 5.82222 9.81185 5.21389 5.6778C5.07652 4.64924 4.50742 4.17451 3.50662 4.25363ZM41.3217 5.67786C42.7151 5.97457 43.7551 6.72621 44.4615 7.97236C45.0896 9.04049 45.4034 10.3262 45.4034 11.869C45.4034 13.9064 44.8933 15.7657 43.8728 17.4668C42.6954 19.4448 41.1647 20.4338 39.2613 20.4338C38.9277 20.4338 38.5744 20.3942 38.2015 20.3151C36.8083 20.0184 35.7682 19.2669 35.0617 18.0207C34.4338 16.9328 34.1198 15.6273 34.1198 14.1042C34.1198 12.0668 34.63 10.2075 35.6504 8.52621C36.8475 6.54819 38.3782 5.55919 40.2621 5.55919C40.5957 5.55919 40.9489 5.59875 41.3217 5.67786ZM40.4976 16.3789C41.2237 15.7261 41.7142 14.7569 41.989 13.4514C42.0675 12.9965 42.1263 12.502 42.1263 11.9877C42.1263 11.4141 42.0086 10.8009 41.7731 10.1877C41.4787 9.41631 41.0862 9.00093 40.6152 8.90202C39.9088 8.76356 39.222 9.15917 38.5744 10.1284C38.0446 10.88 37.7109 11.6712 37.5343 12.4822C37.4362 12.9372 37.3969 13.4317 37.3969 13.9262C37.3969 14.4998 37.5147 15.113 37.7502 15.7261C38.0446 16.4976 38.437 16.9129 38.908 17.0119C39.3986 17.1107 39.9284 16.8932 40.4976 16.3789ZM32.1574 7.97236C31.4509 6.72621 30.3912 5.97457 29.0176 5.67786C28.6446 5.59875 28.2915 5.55919 27.9578 5.55919C26.074 5.55919 24.5434 6.54819 23.3463 8.52621C22.3258 10.2075 21.8156 12.0668 21.8156 14.1042C21.8156 15.6273 22.1296 16.9328 22.7575 18.0207C23.464 19.2669 24.5041 20.0184 25.8973 20.3151C26.2701 20.3942 26.6234 20.4338 26.9571 20.4338C28.8606 20.4338 30.3912 19.4448 31.5686 17.4668C32.5891 15.7657 33.0993 13.9064 33.0993 11.869C33.0993 10.3262 32.7853 9.04049 32.1574 7.97236ZM29.6847 13.4514C29.4101 14.7569 28.9194 15.7261 28.1933 16.3789C27.6242 16.8932 27.0944 17.1107 26.6038 17.0119C26.1328 16.9129 25.7403 16.4976 25.446 15.7261C25.2105 15.113 25.0928 14.4998 25.0928 13.9262C25.0928 13.4317 25.132 12.9372 25.2302 12.4822C25.4068 11.6712 25.7403 10.88 26.2701 10.1284C26.9178 9.15917 27.6047 8.76356 28.3111 8.90202C28.7821 9.00093 29.1746 9.41631 29.4689 10.1877C29.7044 10.8009 29.8221 11.4141 29.8221 11.9877C29.8221 12.502 29.7829 12.9965 29.6847 13.4514Z" fill="#7F54B3"/>
</svg>
