<svg viewBox="0 0 512 512" xmlns="http://www.w3.org/2000/svg" fill-rule="evenodd" clip-rule="evenodd" stroke-linejoin="round" stroke-miterlimit="2"><path d="M321.83 144.986C298.763 78.408 366.185 7.034 421.649 4.905c33.233 17.337 61.768 62.866 60.34 124.649-4.354 76.117-58.211 141.717-116.827 202.155-3.264-73.697-18.906-120.675-43.332-186.723" fill="#7cc734"/><path d="M191.07 505.502c-9.285-74.317 20.886-137.713 50.832-176.37 14.23-18.151 25.174-34.712 33.495-49.965 15.732 6.812 58.018 28.997 81.317 65.017-3.384 52.251-41.996 147.342-165.651 161.318" fill="#3e7fca"/><path d="M144.34 223.24C45.923 195.714 21.646 109.25 26.04 51.113c95.568-38.738 198.42.941 257.805 83.647 41.637 57.966 67.707 132.283 72.996 197.144-28.565-37.7-64.644-59.542-110.599-76.648-31.433-11.69-60.468-19.437-101.903-32.016" fill="#eb6e2e"/></svg>