<svg xmlns="http://www.w3.org/2000/svg" viewBox="0 0 500 500"><g id="freepik--background-complete--inject-79"><path d="M102.42,241.1a43.31,43.31,0,1,1-56.34-23.84A43.26,43.26,0,0,1,102.42,241.1Z" style="fill:#f5f5f5"></path><path d="M92.87,245a33,33,0,1,1-42.94-18.17A33,33,0,0,1,92.87,245Z" style="fill:#ebebeb"></path><path d="M92.47,244c-.18.08-.85-1.21-2.29-3.35a35.18,35.18,0,0,0-7.32-8,32.71,32.71,0,0,0-14.37-6.55,30.44,30.44,0,0,0-4.55-.52,30.76,30.76,0,0,0-4.78.14,32.09,32.09,0,0,0-4.86.89,34.82,34.82,0,0,0-4.81,1.69A34.29,34.29,0,0,0,45,230.76a32.23,32.23,0,0,0-7.27,6.42,30.06,30.06,0,0,0-2.68,3.72,32.66,32.66,0,0,0-3.51,7.72,34.13,34.13,0,0,0-1.35,7.3,35.39,35.39,0,0,0,.94,10.76c.62,2.51,1.12,3.88.93,4s-.94-1.18-1.87-3.67a30.44,30.44,0,0,1-1.78-11.13,32.6,32.6,0,0,1,1.12-7.79,33.29,33.29,0,0,1,3.52-8.35,32.31,32.31,0,0,1,2.81-4,33.57,33.57,0,0,1,3.54-3.74,35.16,35.16,0,0,1,4.23-3.26A36.67,36.67,0,0,1,48.47,226a37.73,37.73,0,0,1,5.2-1.81,34.6,34.6,0,0,1,5.25-.92,32.93,32.93,0,0,1,5.15-.09,32,32,0,0,1,4.88.65,33.08,33.08,0,0,1,15,7.45,30.54,30.54,0,0,1,7,8.82C92.24,242.51,92.61,243.94,92.47,244Z" style="fill:#e0e0e0"></path><path d="M73.1,274.18l2.23,5.3-4.73,2-2.17-5.16c-4.8,1.69-9.92,2.11-13.37,1.17l.17-6.86a20.72,20.72,0,0,0,10.59-.51l-3.33-7.9c-5.78.94-12.39,1.65-15.24-5.11-2.11-5-.28-10.86,6.84-14.85L51.88,237l4.73-2,2.17,5.16A23.23,23.23,0,0,1,69.6,239l.09,6.82a21,21,0,0,0-8.28.58l3.39,8c5.77-1,12.28-1.66,15.08,5C82,264.38,80.15,270.15,73.1,274.18ZM59.57,255.26l-2.83-6.72c-2.27,1.62-2.68,3.41-2,5S57.21,255.47,59.57,255.26Zm12.94,8c-.7-1.65-2.45-2-4.79-1.83l2.75,6.53C72.62,266.42,73.14,264.75,72.51,263.23Z" style="fill:#e0e0e0"></path><path d="M459.58,201a38.81,38.81,0,1,1-53.69-11.11A38.77,38.77,0,0,1,459.58,201Z" style="fill:#f5f5f5"></path><path d="M451.86,206.11a29.58,29.58,0,1,1-40.92-8.47A29.53,29.53,0,0,1,451.86,206.11Z" style="fill:#ebebeb"></path><path d="M451.35,205.33c-.15.11-1-.91-2.61-2.54a31.37,31.37,0,0,0-7.82-5.72,30.63,30.63,0,0,0-6.22-2.34,29.38,29.38,0,0,0-7.55-.9,27.3,27.3,0,0,0-4.09.34,28.63,28.63,0,0,0-4.18,1,29.13,29.13,0,0,0-4.12,1.63,29,29,0,0,0-7.45,5.23A29.25,29.25,0,0,0,402,208.9a29.67,29.67,0,0,0-1.71,3.74,30.07,30.07,0,0,0-1.73,7.4,30.46,30.46,0,0,0,.09,6.65,31.51,31.51,0,0,0,2.71,9.3c1,2.09,1.66,3.21,1.51,3.31s-1-.87-2.29-2.9a27.43,27.43,0,0,1-3.51-9.47,30.07,30.07,0,0,1-.38-7,30.69,30.69,0,0,1,1.64-8,30.34,30.34,0,0,1,4.22-8,30.41,30.41,0,0,1,3.15-3.6,33,33,0,0,1,3.79-3.15,32.07,32.07,0,0,1,4.25-2.49,30.86,30.86,0,0,1,4.46-1.73,28.23,28.23,0,0,1,4.51-1,27.53,27.53,0,0,1,4.4-.28,29.48,29.48,0,0,1,14.54,3.92,27.31,27.31,0,0,1,7.71,6.53C450.88,204.07,451.46,205.26,451.35,205.33Z" style="fill:#e0e0e0"></path><path d="M439.59,235.24l2.89,4.27-3.81,2.58-2.81-4.16c-3.93,2.33-8.35,3.59-11.55,3.37l-1.05-6.06a18.59,18.59,0,0,0,9.22-2.3l-4.3-6.36c-4.93,1.83-10.61,3.62-14.29-1.83-2.73-4-2.14-9.5,3.41-14.25l-2.86-4.23,3.81-2.58,2.81,4.15a20.79,20.79,0,0,1,9.31-2.9l1.26,6a18.84,18.84,0,0,0-7.17,2l4.39,6.48c4.89-1.87,10.5-3.6,14.13,1.77C445.66,225.08,445.08,230.47,439.59,235.24ZM424.39,221l-3.66-5.42c-1.71,1.83-1.76,3.47-.91,4.73S422.35,221.58,424.39,221Zm12.77,4.75c-.91-1.34-2.5-1.31-4.53-.78l3.56,5.26C437.81,228.5,438,227,437.16,225.73Z" style="fill:#e0e0e0"></path><path d="M325.05,73.9a32.84,32.84,0,1,1-15.93-43.56A32.8,32.8,0,0,1,325.05,73.9Z" style="fill:#f5f5f5"></path><path d="M318,70.6a25,25,0,1,1-12.14-33.19A25,25,0,0,1,318,70.6Z" style="fill:#ebebeb"></path><path d="M318.3,69.89c-.14-.06.22-1.1.67-3a26.77,26.77,0,0,0,.62-8.17,26.31,26.31,0,0,0-1.08-5.52,25.62,25.62,0,0,0-2.72-5.82,23.48,23.48,0,0,0-2.07-2.8A22.9,22.9,0,0,0,311.17,42a24.24,24.24,0,0,0-3-2.24,24.86,24.86,0,0,0-7.08-3,25.24,25.24,0,0,0-3.69-.64,24.44,24.44,0,0,0-3.62-.07,23.91,23.91,0,0,0-3.45.44,24.78,24.78,0,0,0-6.09,2,25.66,25.66,0,0,0-4.75,3A26.45,26.45,0,0,0,274,47.63c-1.07,1.63-1.57,2.62-1.71,2.56s.16-1.13,1.07-2.94a23,23,0,0,1,5.24-6.74,25.49,25.49,0,0,1,4.9-3.41A25.78,25.78,0,0,1,290,34.73a24.6,24.6,0,0,1,3.7-.53,23.13,23.13,0,0,1,3.9,0,26.52,26.52,0,0,1,4,.65,27.38,27.38,0,0,1,3.95,1.33,26.91,26.91,0,0,1,3.69,1.94,26.28,26.28,0,0,1,3.23,2.44,25.95,25.95,0,0,1,4.88,5.85,25.48,25.48,0,0,1,2.74,6.3,25.09,25.09,0,0,1,.91,5.9,23.1,23.1,0,0,1-1.26,8.45C319,69,318.4,69.94,318.3,69.89Z" style="fill:#e0e0e0"></path><path d="M291.55,74.76l-1.78,4-3.55-1.6L288,73.27c-3.42-1.79-6.3-4.4-7.57-6.8l3.9-3.46A15.69,15.69,0,0,0,290,68.62l2.66-5.93c-3.52-2.72-7.33-6-5.05-11.09,1.69-3.76,5.87-5.77,11.77-3.89l1.76-4,3.56,1.6L303,49.23a17.65,17.65,0,0,1,6.24,5.4L305.5,58.2a16.12,16.12,0,0,0-4.6-4.29l-2.71,6c3.53,2.69,7.27,6,5,11C301.56,74.6,297.43,76.59,291.55,74.76ZM295,57.47l2.26-5c-2.07-.42-3.28.28-3.81,1.45S293.7,56.28,295,57.47Zm2.27,11.3c.56-1.24-.17-2.38-1.46-3.6l-2.2,4.9C295.6,70.48,296.8,69.91,297.31,68.77Z" style="fill:#e0e0e0"></path><rect x="43.13" y="400.07" width="79.45" height="15.41" transform="translate(165.7 815.54) rotate(180)" style="fill:#f5f5f5"></rect><path d="M117.47,400.32c-.19,0-.35,3.35-.35,7.47s.16,7.47.35,7.47.34-3.34.34-7.47S117.66,400.32,117.47,400.32Z" style="fill:#e0e0e0"></path><path d="M110.1,400.32c-.19,0-.34,3.35-.34,7.47s.15,7.47.34,7.47.35-3.34.35-7.47S110.29,400.32,110.1,400.32Z" style="fill:#e0e0e0"></path><path d="M102.82,400.32c-.19,0-.34,3.35-.34,7.47s.15,7.47.34,7.47.35-3.34.35-7.47S103,400.32,102.82,400.32Z" style="fill:#e0e0e0"></path><path d="M95.58,400.32c-.19,0-.35,3.35-.35,7.47s.16,7.47.35,7.47.34-3.34.34-7.47S95.77,400.32,95.58,400.32Z" style="fill:#e0e0e0"></path><path d="M88.34,400.32c-.19,0-.35,3.35-.35,7.47s.16,7.47.35,7.47.34-3.34.34-7.47S88.53,400.32,88.34,400.32Z" style="fill:#e0e0e0"></path><path d="M81.1,400.32c-.19,0-.35,3.35-.35,7.47s.16,7.47.35,7.47.34-3.34.34-7.47S81.29,400.32,81.1,400.32Z" style="fill:#e0e0e0"></path><path d="M73.86,400.32c-.19,0-.35,3.35-.35,7.47s.16,7.47.35,7.47.34-3.34.34-7.47S74.05,400.32,73.86,400.32Z" style="fill:#e0e0e0"></path><path d="M66.62,400.32c-.2,0-.35,3.35-.35,7.47s.15,7.47.35,7.47.34-3.34.34-7.47S66.81,400.32,66.62,400.32Z" style="fill:#e0e0e0"></path><path d="M59.37,400.32c-.19,0-.34,3.35-.34,7.47s.15,7.47.34,7.47.35-3.34.35-7.47S59.56,400.32,59.37,400.32Z" style="fill:#e0e0e0"></path><path d="M52.13,400.32c-.19,0-.34,3.35-.34,7.47s.15,7.47.34,7.47.35-3.34.35-7.47S52.32,400.32,52.13,400.32Z" style="fill:#e0e0e0"></path><path d="M44.89,400.32c-.19,0-.34,3.35-.34,7.47s.15,7.47.34,7.47.35-3.34.35-7.47S45.08,400.32,44.89,400.32Z" style="fill:#e0e0e0"></path><path d="M43.11,400.11c0,.19,17.75.35,39.65.35s39.65-.16,39.65-.35-17.75-.34-39.65-.34S43.11,399.92,43.11,400.11Z" style="fill:#e0e0e0"></path><rect x="48.24" y="415.48" width="79.45" height="15.41" transform="translate(175.92 846.37) rotate(180)" style="fill:#f5f5f5"></rect><path d="M122.58,415.74c-.19,0-.35,3.34-.35,7.47s.16,7.47.35,7.47.34-3.34.34-7.47S122.77,415.74,122.58,415.74Z" style="fill:#e0e0e0"></path><path d="M115.21,415.74c-.19,0-.35,3.34-.35,7.47s.16,7.47.35,7.47.34-3.34.34-7.47S115.4,415.74,115.21,415.74Z" style="fill:#e0e0e0"></path><path d="M107.93,415.74c-.19,0-.35,3.34-.35,7.47s.16,7.47.35,7.47.34-3.34.34-7.47S108.12,415.74,107.93,415.74Z" style="fill:#e0e0e0"></path><path d="M100.69,415.74c-.19,0-.35,3.34-.35,7.47s.16,7.47.35,7.47.34-3.34.34-7.47S100.88,415.74,100.69,415.74Z" style="fill:#e0e0e0"></path><path d="M93.45,415.74c-.19,0-.35,3.34-.35,7.47s.16,7.47.35,7.47.34-3.34.34-7.47S93.64,415.74,93.45,415.74Z" style="fill:#e0e0e0"></path><path d="M86.21,415.74c-.19,0-.35,3.34-.35,7.47s.16,7.47.35,7.47.34-3.34.34-7.47S86.4,415.74,86.21,415.74Z" style="fill:#e0e0e0"></path><path d="M79,415.74c-.19,0-.34,3.34-.34,7.47s.15,7.47.34,7.47.35-3.34.35-7.47S79.15,415.74,79,415.74Z" style="fill:#e0e0e0"></path><path d="M71.72,415.74c-.19,0-.34,3.34-.34,7.47s.15,7.47.34,7.47.35-3.34.35-7.47S71.91,415.74,71.72,415.74Z" style="fill:#e0e0e0"></path><path d="M64.48,415.74c-.19,0-.34,3.34-.34,7.47s.15,7.47.34,7.47.35-3.34.35-7.47S64.67,415.74,64.48,415.74Z" style="fill:#e0e0e0"></path><path d="M57.24,415.74c-.19,0-.34,3.34-.34,7.47s.15,7.47.34,7.47.35-3.34.35-7.47S57.43,415.74,57.24,415.74Z" style="fill:#e0e0e0"></path><path d="M50,415.74c-.19,0-.35,3.34-.35,7.47s.16,7.47.35,7.47.34-3.34.34-7.47S50.19,415.74,50,415.74Z" style="fill:#e0e0e0"></path><path d="M48.22,415.53c0,.19,17.75.35,39.65.35s39.65-.16,39.65-.35-17.75-.34-39.65-.34S48.22,415.34,48.22,415.53Z" style="fill:#e0e0e0"></path><rect x="43.7" y="430.68" width="79.45" height="15.41" transform="translate(166.84 876.77) rotate(180)" style="fill:#f5f5f5"></rect><path d="M118,430.94c-.19,0-.35,3.34-.35,7.47s.16,7.47.35,7.47.34-3.35.34-7.47S118.23,430.94,118,430.94Z" style="fill:#e0e0e0"></path><path d="M110.67,430.94c-.19,0-.34,3.34-.34,7.47s.15,7.47.34,7.47.35-3.35.35-7.47S110.86,430.94,110.67,430.94Z" style="fill:#e0e0e0"></path><path d="M103.39,430.94c-.19,0-.34,3.34-.34,7.47s.15,7.47.34,7.47.34-3.35.34-7.47S103.58,430.94,103.39,430.94Z" style="fill:#e0e0e0"></path><path d="M96.15,430.94c-.19,0-.35,3.34-.35,7.47s.16,7.47.35,7.47.34-3.35.34-7.47S96.34,430.94,96.15,430.94Z" style="fill:#e0e0e0"></path><path d="M88.91,430.94c-.19,0-.35,3.34-.35,7.47s.16,7.47.35,7.47.34-3.35.34-7.47S89.1,430.94,88.91,430.94Z" style="fill:#e0e0e0"></path><path d="M81.67,430.94c-.19,0-.35,3.34-.35,7.47s.16,7.47.35,7.47.34-3.35.34-7.47S81.86,430.94,81.67,430.94Z" style="fill:#e0e0e0"></path><path d="M74.43,430.94c-.2,0-.35,3.34-.35,7.47s.15,7.47.35,7.47.34-3.35.34-7.47S74.62,430.94,74.43,430.94Z" style="fill:#e0e0e0"></path><path d="M67.18,430.94c-.19,0-.34,3.34-.34,7.47s.15,7.47.34,7.47.35-3.35.35-7.47S67.37,430.94,67.18,430.94Z" style="fill:#e0e0e0"></path><path d="M59.94,430.94c-.19,0-.34,3.34-.34,7.47s.15,7.47.34,7.47.35-3.35.35-7.47S60.13,430.94,59.94,430.94Z" style="fill:#e0e0e0"></path><path d="M52.7,430.94c-.19,0-.34,3.34-.34,7.47s.15,7.47.34,7.47.35-3.35.35-7.47S52.89,430.94,52.7,430.94Z" style="fill:#e0e0e0"></path><path d="M45.46,430.94c-.19,0-.34,3.34-.34,7.47s.15,7.47.34,7.47.35-3.35.35-7.47S45.65,430.94,45.46,430.94Z" style="fill:#e0e0e0"></path><path d="M43.68,430.73c0,.19,17.75.34,39.65.34s39.65-.15,39.65-.34-17.75-.35-39.65-.35S43.68,430.54,43.68,430.73Z" style="fill:#e0e0e0"></path><rect x="391.03" y="82.54" width="58.25" height="58.25" rx="10.16" style="fill:#e0e0e0"></rect><path d="M433,118.72a5.8,5.8,0,0,0-1.15-6.19,6.52,6.52,0,0,0-6.36-2.07,7.11,7.11,0,0,0-14.1.92,5.33,5.33,0,0,0-4.07,7.22Z" style="fill:#fff"></path></g><g id="freepik--Floor--inject-79"><path d="M465.43,446.09c0,.14-96.46.26-215.42.26s-215.44-.12-215.44-.26,96.44-.26,215.44-.26S465.43,445.94,465.43,446.09Z" style="fill:#263238"></path></g><g id="freepik--screen-1--inject-79"><path d="M214.3,48.36l-23.33,0a5.8,5.8,0,0,0-5.67,5.92V58.5a5.8,5.8,0,0,1-5.67,5.92l-45.48,0a5.81,5.81,0,0,1-5.67-5.93V54.23a5.81,5.81,0,0,0-5.66-5.93H94.19A18.35,18.35,0,0,0,75.82,66.64l-.06,294.51a18.35,18.35,0,0,0,18.35,18.36l120.11.07a18.35,18.35,0,0,0,18.37-18.35l.06-294.51A18.35,18.35,0,0,0,214.3,48.36Z" style="fill:#fff"></path><path d="M214.3,48.36l.63,0a14.18,14.18,0,0,1,1.86.14,17.26,17.26,0,0,1,6.89,2.38,17.78,17.78,0,0,1,4.19,3.39,18.47,18.47,0,0,1,3.49,5.48,19.15,19.15,0,0,1,1.38,7.46c0,2.71,0,5.6,0,8.65,0,24.47,0,59.86.06,103.6s0,95.82,0,153.64v27.52a19.39,19.39,0,0,1-.71,5.6,18.75,18.75,0,0,1-2.34,5.18,20,20,0,0,1-3.83,4.24,18.52,18.52,0,0,1-10.6,4.12c-3.85.11-7.67,0-11.54.05H180.44l-48,0H95.5a19.31,19.31,0,0,1-12-3.3,18.78,18.78,0,0,1-7.28-10.05,20.16,20.16,0,0,1-.77-6.21V354q0-12.36,0-24.55,0-24.37,0-48c0-31.47,0-61.83,0-90.75s0-56.39,0-82.11q0-19.29,0-37.21V66.93c0-.74.06-1.48.1-2.22s.19-1.48.38-2.19A18.69,18.69,0,0,1,80,54.74a19,19,0,0,1,6.81-5.09,19.25,19.25,0,0,1,8.16-1.55l16,0h11.47a5.78,5.78,0,0,1,3.61,1,6,6,0,0,1,2.25,3,9.75,9.75,0,0,1,.37,3.62v1.79a12.58,12.58,0,0,0,.06,1.75,5.78,5.78,0,0,0,1.37,3.07,5.37,5.37,0,0,0,2.81,1.74,6.05,6.05,0,0,0,1.65.17h8.32l24.21,0,10.67,0c.85,0,1.7,0,2.5,0a5.37,5.37,0,0,0,2.25-.79,5.8,5.8,0,0,0,2.57-3.7,10.37,10.37,0,0,0,.15-2.23V55.36a12.85,12.85,0,0,1,.1-2.15,6.27,6.27,0,0,1,.69-2,5.8,5.8,0,0,1,2.93-2.59,9,9,0,0,1,3.65-.39l11.91,0,7.32,0,2.5,0-2.5,0-7.32,0-11.91,0a9.13,9.13,0,0,0-3.58.39,5.65,5.65,0,0,0-2.84,2.52,6.35,6.35,0,0,0-.67,1.92,13.24,13.24,0,0,0-.09,2.11c0,.72,0,1.45,0,2.19a10.28,10.28,0,0,1-.15,2.27,6,6,0,0,1-2.65,3.84,5.66,5.66,0,0,1-2.34.83c-.85.07-1.67,0-2.53,0h-43.2a6.39,6.39,0,0,1-1.73-.17,5.75,5.75,0,0,1-3-1.83,6.14,6.14,0,0,1-1.44-3.24,13.46,13.46,0,0,1-.07-1.79V55.72a9.37,9.37,0,0,0-.36-3.51,5.7,5.7,0,0,0-2.12-2.79,5.5,5.5,0,0,0-3.43-1H94.93a19,19,0,0,0-8,1.52,18.79,18.79,0,0,0-6.66,5,18.53,18.53,0,0,0-3.78,7.62c-.18.7-.24,1.43-.36,2.15S76,66.2,76,66.93v4.46q0,17.89,0,37.21V329.46q0,12.19,0,24.55v6.2a19.65,19.65,0,0,0,.75,6.06A18.25,18.25,0,0,0,83.84,376a18.83,18.83,0,0,0,11.66,3.21h12.4l24.55,0,48,0h23.38c3.85,0,7.72.07,11.51,0a18.15,18.15,0,0,0,10.32-4,19,19,0,0,0,3.72-4.13,18,18,0,0,0,2.29-5,19.41,19.41,0,0,0,.69-5.47v-5.57q0-11.1,0-21.95c0-57.82.06-109.9.08-153.64s.08-79.13.11-103.6c0-3,0-5.94,0-8.65a19,19,0,0,0-1.34-7.4,18.36,18.36,0,0,0-3.45-5.45,18.38,18.38,0,0,0-11-5.81,15.36,15.36,0,0,0-1.85-.17Z" style="fill:#263238"></path><rect x="89.51" y="87.85" width="127.82" height="21.67" rx="8.92" style="fill:#ebebeb"></rect><rect x="89.42" y="264.79" width="36.44" height="36.44" rx="10.16" style="fill:#e0e0e0"></rect><rect x="183.69" y="265.48" width="36.44" height="36.44" rx="10.16" style="fill:#e0e0e0"></rect><path d="M98.4,292.27l1.33-4.95a9.17,9.17,0,1,1,3.65,3.62Zm5.23-3.19.31.19a7.41,7.41,0,1,0-2.55-2.52l.2.31-.74,2.77Z" style="fill:#fff"></path><path d="M111,284.23a1.52,1.52,0,0,0-1.31-.3c-.34.14-.55.67-.77.94a.34.34,0,0,1-.43.1,6,6,0,0,1-3-2.54.37.37,0,0,1,0-.5,2,2,0,0,0,.54-.87,2,2,0,0,0-.24-1,2.42,2.42,0,0,0-.77-1.15,1,1,0,0,0-1.13.17,2.26,2.26,0,0,0-.8,1.82,2.79,2.79,0,0,0,.07.58,4.57,4.57,0,0,0,.56,1.28,8.47,8.47,0,0,0,.58.89,9,9,0,0,0,2.51,2.33,8.06,8.06,0,0,0,1.57.75,3.61,3.61,0,0,0,1.83.29,2.21,2.21,0,0,0,1.66-1.23,1.05,1.05,0,0,0,.07-.63C112,284.69,111.37,284.44,111,284.23Z" style="fill:#fff;fill-rule:evenodd"></path><rect x="89.27" y="208.88" width="36.44" height="36.44" rx="9.07" style="fill:#FF725E"></rect><path d="M109.57,228.09a5.22,5.22,0,0,0,3.11-4.83,4.91,4.91,0,1,0-9.79,0,5.21,5.21,0,0,0,3.12,4.87c-7.53,1.14-7.19,9.32-7.19,9.32l17.81.08S117,229.22,109.57,228.09Z" style="fill:#fff"></path><rect x="181.21" y="208.88" width="36.44" height="36.44" rx="10.28" style="fill:#e0e0e0"></rect><path d="M204.23,221.26a1.07,1.07,0,1,0,1.07,1.07A1.06,1.06,0,0,0,204.23,221.26Z" style="fill:#fff"></path><path d="M199.5,222.32a4.47,4.47,0,1,0,4.47,4.47A4.47,4.47,0,0,0,199.5,222.32Zm0,7.34a2.87,2.87,0,1,1,2.86-2.87A2.88,2.88,0,0,1,199.5,229.66Z" style="fill:#fff"></path><path d="M203.05,236.18H195.8a5.46,5.46,0,0,1-5.45-5.46v-7.25A5.46,5.46,0,0,1,195.8,218h7.25a5.46,5.46,0,0,1,5.45,5.45v7.25A5.46,5.46,0,0,1,203.05,236.18Zm-7.25-16.45a3.75,3.75,0,0,0-3.75,3.74v7.25a3.75,3.75,0,0,0,3.75,3.75h7.25a3.75,3.75,0,0,0,3.75-3.75v-7.25a3.75,3.75,0,0,0-3.75-3.74Z" style="fill:#fff"></path><rect x="136.27" y="208.88" width="36.44" height="36.44" rx="9.61" style="fill:#e0e0e0"></rect><rect x="136.27" y="265.54" width="36.44" height="36.44" rx="9.61" style="fill:#e0e0e0"></rect><path d="M146.43,236a.81.81,0,0,1-.58-1.38l4.33-4.33a7.47,7.47,0,0,1,.54-9.87,7.41,7.41,0,1,1,.61,11L147,235.74A.83.83,0,0,1,146.43,236ZM156,219.84a5.79,5.79,0,1,0,4.09,1.7A5.75,5.75,0,0,0,156,219.84Z" style="fill:#fff"></path><path d="M146.27,291.53h16.44L160.48,289v-6.12a6,6,0,0,0-6-6h0a6,6,0,0,0-6,6v5.82Z" style="fill:#fff"></path><path d="M152.19,290.72a2.54,2.54,0,1,0,5-.86" style="fill:#fff"></path><rect x="153.79" y="274.37" width="1.61" height="3.43" style="fill:#fff"></rect><path d="M209.91,288.11a3.63,3.63,0,0,0-.72-3.87,4.06,4.06,0,0,0-4-1.29,4.45,4.45,0,0,0-8.82.57,3.41,3.41,0,0,0-2.35,1.65,3.36,3.36,0,0,0-.19,2.87Z" style="fill:#fff"></path><path d="M170.41,170.5a1.83,1.83,0,0,0,.31,0,1.66,1.66,0,0,0,.79-.34,1.6,1.6,0,0,0,.4-.48,1.93,1.93,0,0,0,.13-.32,2.21,2.21,0,0,0,0-.37,1.39,1.39,0,0,0-.06-.4,1.65,1.65,0,0,0-.17-.39,1.5,1.5,0,0,0-.66-.61h0a1.12,1.12,0,0,0-.61-1,1.1,1.1,0,0,0-1.26.21l0,0v-.05a2.13,2.13,0,0,0-1.3-1.49,2,2,0,0,0-.53-.14h-.27a2.06,2.06,0,0,0-.26,0,2,2,0,0,0-.93.45,2.21,2.21,0,0,0-.59.78,2,2,0,0,0-.17.91v0h0a1.49,1.49,0,0,0-1,.12,1.94,1.94,0,0,0-.41.27,2,2,0,0,0-.29.36,1.67,1.67,0,0,0-.16.4,1.44,1.44,0,0,0,0,.41,1.75,1.75,0,0,0,.21.68,1.6,1.6,0,0,0,.74.67,2.25,2.25,0,0,0,.34.12h-.09l-.11,0a.53.53,0,0,1-.15-.05,1.64,1.64,0,0,1-.75-.68,1.48,1.48,0,0,1-.22-.69,1.14,1.14,0,0,1,0-.41,1.28,1.28,0,0,1,.17-.42,2.06,2.06,0,0,1,.29-.37,1.71,1.71,0,0,1,.42-.28,1.59,1.59,0,0,1,1.06-.13l0,0a2.2,2.2,0,0,1,.18-.93,2.14,2.14,0,0,1,.61-.8,1.93,1.93,0,0,1,.95-.46l.27,0h.28a2.12,2.12,0,0,1,.54.13,2.17,2.17,0,0,1,1.33,1.53h0a1.15,1.15,0,0,1,2,.86v0a1.63,1.63,0,0,1,.85,1,1.45,1.45,0,0,1,.06.41,1.58,1.58,0,0,1-.05.38,1.2,1.2,0,0,1-.13.33,1.59,1.59,0,0,1-1.22.81,1,1,0,0,1-.23,0Z" style="fill:#263238"></path><path d="M170.56,170.66h-.16a.15.15,0,0,1-.09-.25.16.16,0,0,1,.14,0,1.46,1.46,0,0,0,.25,0,1.38,1.38,0,0,0,.72-.31,1.34,1.34,0,0,0,.48-.72,1.23,1.23,0,0,0,0-.33,1.36,1.36,0,0,0-.05-.36,2.75,2.75,0,0,0-.15-.36,1.44,1.44,0,0,0-.6-.55.14.14,0,0,1-.1-.14,1,1,0,0,0-.53-.91,1,1,0,0,0-1.1.18l0,0a.14.14,0,0,1-.14,0,.16.16,0,0,1-.1-.11v-.05a2,2,0,0,0-1.22-1.39,1.68,1.68,0,0,0-.48-.12h-.32l-.17,0a2,2,0,0,0-.87.42,2.31,2.31,0,0,0-.55.73,2,2,0,0,0-.16.84v0a.12.12,0,0,1-.05.12.14.14,0,0,1-.13,0h0a1.38,1.38,0,0,0-.93.11,2.19,2.19,0,0,0-.37.25,1.64,1.64,0,0,0-.26.33,1.38,1.38,0,0,0-.15.36,1.45,1.45,0,0,0,0,.35,1.36,1.36,0,0,0,.19.62,1.42,1.42,0,0,0,.67.62l.28.1a.17.17,0,0,1,.12.07.15.15,0,0,1,0,.11.17.17,0,0,1-.19.11l-.07,0a.31.31,0,0,1-.13,0h0l-.13-.05a1.87,1.87,0,0,1-.81-.73,1.69,1.69,0,0,1-.21-1.21,1.38,1.38,0,0,1,.18-.46,2.15,2.15,0,0,1,.32-.41,2.21,2.21,0,0,1,.45-.3,1.76,1.76,0,0,1,.95-.18,2.28,2.28,0,0,1,.19-.79,2.42,2.42,0,0,1,.64-.86,2.19,2.19,0,0,1,1-.49l.22,0h.38a2.2,2.2,0,0,1,.57.15,2.34,2.34,0,0,1,1.35,1.37,1.3,1.3,0,0,1,2,1,1.81,1.81,0,0,1,.65.64,1.85,1.85,0,0,1,.18.44,1.61,1.61,0,0,1,.06.44,1.21,1.21,0,0,1,0,.42,1.25,1.25,0,0,1-.15.38,1.78,1.78,0,0,1-1.32.88Z" style="fill:#263238"></path><path d="M167,169.46a4.23,4.23,0,0,1-.4.73c-.24.39-.44.7-.45.7a4.23,4.23,0,0,1,.4-.73C166.75,169.77,167,169.45,167,169.46Z" style="fill:#263238"></path><path d="M166.12,171a.16.16,0,0,1-.09,0c-.14-.08-.14-.11.36-.93s.47-.74.54-.76a.15.15,0,0,1,.11,0h0a.11.11,0,0,1,.06.09c0,.06,0,.09-.42.83S166.21,171,166.12,171Z" style="fill:#263238"></path><path d="M168.3,169.46a4.23,4.23,0,0,1-.4.73c-.24.39-.44.7-.45.7a5.26,5.26,0,0,1,.4-.73C168.09,169.77,168.29,169.45,168.3,169.46Z" style="fill:#263238"></path><path d="M167.45,171l-.08,0c-.14-.08-.13-.11.36-.93s.48-.74.54-.76a.14.14,0,0,1,.11,0h0c.14.08.14.11-.35.92s-.48.75-.55.77Z" style="fill:#263238"></path><path d="M169.65,169.46a6.13,6.13,0,0,1-.41.73,7.49,7.49,0,0,1-.45.7,6.94,6.94,0,0,1,.4-.73A5.45,5.45,0,0,1,169.65,169.46Z" style="fill:#263238"></path><path d="M168.8,171a.13.13,0,0,1-.08,0c-.14-.08-.14-.11.35-.93s.48-.74.54-.76a.14.14,0,0,1,.11,0h0a.16.16,0,0,1,.07.09c0,.06,0,.09-.42.83S168.89,171,168.8,171Z" style="fill:#263238"></path><path d="M165.41,171.46a8.32,8.32,0,0,1-.4.73,4.91,4.91,0,0,1-.46.69,7.79,7.79,0,0,1,.41-.72A5.21,5.21,0,0,1,165.41,171.46Z" style="fill:#263238"></path><path d="M164.55,173l-.07,0a.13.13,0,0,1-.07-.09c0-.06,0-.1.42-.84s.51-.83.65-.75h0c.14.08.14.1-.35.92s-.48.75-.54.77Z" style="fill:#263238"></path><path d="M166.75,171.46a8.32,8.32,0,0,1-.4.73,4.91,4.91,0,0,1-.46.69,7.79,7.79,0,0,1,.41-.72A5.21,5.21,0,0,1,166.75,171.46Z" style="fill:#263238"></path><path d="M165.9,173l-.08,0a.16.16,0,0,1-.07-.09c0-.06,0-.1.42-.84s.52-.83.66-.75h0c.13.08.13.11-.36.92s-.48.75-.54.77Z" style="fill:#263238"></path><path d="M168.09,171.46a4.69,4.69,0,0,1-.4.73,7.22,7.22,0,0,1-.45.69,4.9,4.9,0,0,1,.4-.72A6.72,6.72,0,0,1,168.09,171.46Z" style="fill:#263238"></path><path d="M167.24,173l-.08,0a.16.16,0,0,1-.07-.09c0-.06,0-.1.43-.84s.51-.83.65-.75h0c.14.08.14.1-.36.92s-.48.75-.54.77Z" style="fill:#263238"></path><path d="M169.49,171.49a4.69,4.69,0,0,1-.4.73c-.24.39-.44.7-.45.7a4.23,4.23,0,0,1,.4-.73A6.72,6.72,0,0,1,169.49,171.49Z" style="fill:#263238"></path><path d="M168.65,173.07l-.09,0c-.14-.08-.13-.11.36-.93s.48-.75.54-.76a.14.14,0,0,1,.11,0h0a.16.16,0,0,1,.07.09c0,.06,0,.09-.42.83S168.74,173.07,168.65,173.07Z" style="fill:#263238"></path><path d="M143.56,164.05v10h-1V165h-2.36v-.91Z" style="fill:#263238"></path><path d="M153.63,171.27c0,1.77-1.5,2.87-3.88,2.87s-3.86-1.1-3.86-2.87a2.49,2.49,0,0,1,1.93-2.46,2.26,2.26,0,0,1-1.58-2.2c0-1.63,1.39-2.65,3.51-2.65s3.53,1,3.53,2.65a2.27,2.27,0,0,1-1.6,2.2A2.52,2.52,0,0,1,153.63,171.27Zm-1,0c0-1.23-1.06-2-2.83-2s-2.82.77-2.82,2,1,2,2.82,2S152.58,172.5,152.58,171.25Zm-2.83-2.81c1.55,0,2.48-.7,2.48-1.79s-1-1.82-2.48-1.82-2.48.69-2.48,1.81S148.19,168.44,149.75,168.44Z" style="fill:#263238"></path><path d="M154.92,165.66a2.48,2.48,0,0,1,5,0,2.48,2.48,0,0,1-5,0Zm4.2,0a1.73,1.73,0,1,0-1.73,1.65A1.61,1.61,0,0,0,159.12,165.66Z" style="fill:#263238"></path><path d="M128.08,134v19h-3.54V136.92h-4v-3Z" style="fill:#263238"></path><path d="M131.87,143.49c0-6.27,3.43-9.81,7.95-9.81s8,3.54,8,9.81-3.43,9.8-8,9.8S131.87,149.75,131.87,143.49Zm12.36,0c0-4.61-1.8-6.73-4.41-6.73s-4.39,2.12-4.39,6.73,1.8,6.72,4.39,6.72S144.23,148.09,144.23,143.49Z" style="fill:#263238"></path><path d="M150.08,140.57a2.24,2.24,0,1,1,4.47,0,2.24,2.24,0,1,1-4.47,0Zm0,10.38a2.24,2.24,0,1,1,4.47,0,2.24,2.24,0,1,1-4.47,0Z" style="fill:#263238"></path><path d="M156.83,143.49c0-6.27,3.44-9.81,7.95-9.81s8,3.54,8,9.81-3.43,9.8-8,9.8S156.83,149.75,156.83,143.49Zm12.37,0c0-4.61-1.8-6.73-4.42-6.73s-4.38,2.12-4.38,6.73,1.8,6.72,4.38,6.72S169.2,148.09,169.2,143.49Z" style="fill:#263238"></path><path d="M175.16,143.49c0-6.27,3.43-9.81,8-9.81s8,3.54,8,9.81-3.43,9.8-8,9.8S175.16,149.75,175.16,143.49Zm12.36,0c0-4.61-1.8-6.73-4.41-6.73s-4.38,2.12-4.38,6.73,1.79,6.72,4.38,6.72S187.52,148.09,187.52,143.49Z" style="fill:#263238"></path><path d="M203.17,102.39a4.25,4.25,0,1,1,4.24-4.25A4.26,4.26,0,0,1,203.17,102.39Zm0-7.65a3.4,3.4,0,1,0,3.4,3.4A3.41,3.41,0,0,0,203.17,94.74Z" style="fill:#263238"></path><path d="M208.86,103.49a.43.43,0,0,1-.27-.11l-2.8-2.44a.43.43,0,0,1,0-.6.41.41,0,0,1,.59,0l2.79,2.44a.42.42,0,0,1,0,.6A.41.41,0,0,1,208.86,103.49Z" style="fill:#263238"></path><path d="M146.49,335.12a3.41,3.41,0,1,1-3.41-3.59A3.51,3.51,0,0,1,146.49,335.12Z" style="fill:#e0e0e0"></path><path d="M157.9,335.12a3.41,3.41,0,1,1-3.41-3.59A3.51,3.51,0,0,1,157.9,335.12Z" style="fill:#e0e0e0"></path><path d="M169.31,335.12a3.42,3.42,0,1,1-3.41-3.59A3.51,3.51,0,0,1,169.31,335.12Z" style="fill:#e0e0e0"></path></g><g id="freepik--screen-2--inject-79"><path d="M373.18,197.87l0-80.32a19.26,19.26,0,0,0-19.26-19.27l-24.49,0a6.08,6.08,0,0,0-5.95,6.21v4.45a6.09,6.09,0,0,1-5.95,6.21l-47.74,0a6.08,6.08,0,0,1-5.94-6.22v-4.44a6.09,6.09,0,0,0-5.95-6.22H227.87a19.28,19.28,0,0,0-19.28,19.27l-.06,309.1a19.28,19.28,0,0,0,19.26,19.28l126.07.07a19.27,19.27,0,0,0,19.28-19.26l0-228.79" style="fill:#fff"></path><path d="M373.19,173.94V117.4a19.26,19.26,0,0,0-19.25-19.12l-24.49,0a6.08,6.08,0,0,0-5.95,6.21v4.45a6.09,6.09,0,0,1-5.95,6.21l-47.74,0a6.08,6.08,0,0,1-5.94-6.22v-4.44a6.09,6.09,0,0,0-5.95-6.22H227.87a19.28,19.28,0,0,0-19.28,19.27v56.47Z" style="fill:#FF725E"></path><rect x="223.76" y="134.47" width="28.76" height="28.76" rx="4.8" style="fill:#fff"></rect><path d="M359.33,143.54a2.06,2.06,0,1,1-2.05-2.07A2.06,2.06,0,0,1,359.33,143.54Z" style="fill:#fff"></path><path d="M359.3,150.93a2.06,2.06,0,1,1-2-2.06A2,2,0,0,1,359.3,150.93Z" style="fill:#fff"></path><path d="M359.28,158.33a2.06,2.06,0,1,1-2-2.07A2.07,2.07,0,0,1,359.28,158.33Z" style="fill:#fff"></path><rect x="227.69" y="194.47" width="43.66" height="43.66" rx="5.37" style="fill:#e0e0e0"></rect><rect x="282.26" y="199.79" width="71.82" height="8.14" style="fill:#e0e0e0"></rect><rect x="282.26" y="214.99" width="47.22" height="8.14" style="fill:#e0e0e0"></rect><rect x="227.69" y="255.52" width="43.66" height="43.66" rx="5.37" style="fill:#e0e0e0"></rect><rect x="282.26" y="260.84" width="71.82" height="8.14" style="fill:#e0e0e0"></rect><rect x="282.26" y="276.04" width="47.22" height="8.14" style="fill:#e0e0e0"></rect><rect x="228" y="393.24" width="43.66" height="43.66" rx="5.37" style="fill:#e0e0e0"></rect><rect x="282.57" y="398.56" width="71.82" height="8.14" style="fill:#e0e0e0"></rect><rect x="282.57" y="413.76" width="47.22" height="8.14" style="fill:#e0e0e0"></rect><rect x="208.64" y="314.4" width="164.51" height="69.65" style="fill:#e0e0e0"></rect><path d="M301.77,346.82a4.75,4.75,0,0,1,0,8.22L293.26,360l-8.5,4.91a4.75,4.75,0,0,1-7.12-4.11V341.11a4.74,4.74,0,0,1,7.12-4.11l8.5,4.91Z" style="fill:#fff"></path><path d="M239.76,149.16a4.57,4.57,0,0,0,2.73-4.24,4.3,4.3,0,1,0-8.59,0,4.57,4.57,0,0,0,2.74,4.28c-6.61,1-6.31,8.18-6.31,8.18l15.63.08S246.32,150.15,239.76,149.16Z" style="fill:#FF725E"></path><rect x="265.1" y="147.23" width="60.38" height="7.4" style="fill:#fff"></rect><path d="M373.18,197.87s0,.89,0,2.62,0,4.31,0,7.69c0,6.76,0,16.73,0,29.56,0,25.68,0,62.83.06,108.73,0,23,0,48.1,0,75.09v5.08a20.24,20.24,0,0,1-.69,5.12,22.39,22.39,0,0,1-.83,2.47,23.3,23.3,0,0,1-1.2,2.33,18.69,18.69,0,0,1-3.25,4.12,19,19,0,0,1-9.27,5c-.43.13-.88.15-1.32.24a12.24,12.24,0,0,1-1.34.16c-.9.05-1.8.1-2.68.08h-5.38l-44.34,0-46.61,0H227.8l-1.55-.08a20.15,20.15,0,0,1-6-1.43,19.75,19.75,0,0,1-11.54-13.91,29.94,29.94,0,0,1-.44-6.26q0-6.24,0-12.54V386.49q0-25.58,0-51.86c0-70.07,0-136.81.06-197.51V120.2a36,36,0,0,1,.24-5.58,18.3,18.3,0,0,1,1.59-5.34,19,19,0,0,1,3-4.64,19.61,19.61,0,0,1,9.12-5.86,20.76,20.76,0,0,1,5.36-.8H256.5a14.17,14.17,0,0,1,2.59.12,6.18,6.18,0,0,1,4.12,3,6.69,6.69,0,0,1,.82,2.46c.09.87,0,1.69.05,2.53.06,1.67-.2,3.38.38,4.88a5.87,5.87,0,0,0,3.16,3.41c1.45.68,3.13.4,4.75.47h19.17l18.41,0h6.7a9.06,9.06,0,0,0,2.16-.15,5.68,5.68,0,0,0,3.41-2.35,6.45,6.45,0,0,0,1.09-4c0-1.44,0-2.85,0-4.29a6.46,6.46,0,0,1,1.57-4,6,6,0,0,1,3.68-2,14.68,14.68,0,0,1,2.09-.06h2.05l15.95,0h3.85a30.12,30.12,0,0,1,3.8.17,19.32,19.32,0,0,1,16,13,20.9,20.9,0,0,1,1,6.65c0,2.2,0,4.36,0,6.47q0,6.36,0,12.22c0,7.81,0,15,0,21.36,0,12.84,0,22.8-.05,29.56,0,3.38,0,5.95,0,7.69s0,2.62,0,2.62,0-.89,0-2.62,0-4.31,0-7.69c0-6.76,0-16.72,0-29.56,0-6.41,0-13.55,0-21.36q0-5.85,0-12.22V118a20.35,20.35,0,0,0-1-6.56,19,19,0,0,0-8.79-10.53,18.71,18.71,0,0,0-7-2.26,29.25,29.25,0,0,0-3.76-.16H330.67a15.22,15.22,0,0,0-2,.07,5.61,5.61,0,0,0-3.46,1.92,6.06,6.06,0,0,0-1.47,3.75c0,1.4,0,2.84,0,4.27a6.74,6.74,0,0,1-1.16,4.2,6,6,0,0,1-3.63,2.51,9.43,9.43,0,0,1-2.24.16H269.93a6.07,6.07,0,0,1-2.48-.49,6.37,6.37,0,0,1-3.39-3.65,7.28,7.28,0,0,1-.41-2.52v-2.51c0-.83,0-1.69,0-2.48a6.08,6.08,0,0,0-.77-2.3A5.74,5.74,0,0,0,259,98.55a13,13,0,0,0-2.51-.11H227.68a20.18,20.18,0,0,0-5.23.78,19,19,0,0,0-8.9,5.73,18.21,18.21,0,0,0-3,4.53,18,18,0,0,0-1.55,5.21,34.75,34.75,0,0,0-.22,5.51v16.92c0,60.7,0,127.44,0,197.51q0,26.26,0,51.86,0,12.79,0,25.39v12.54a28.58,28.58,0,0,0,.42,6.15,19.25,19.25,0,0,0,11.23,13.55,19.77,19.77,0,0,0,5.85,1.4l1.51.08h4.56l24.08,0,46.61,0,44.34,0h5.38c.89,0,1.77,0,2.65-.07a9.42,9.42,0,0,0,1.3-.16,11.24,11.24,0,0,0,1.29-.23,19.94,19.94,0,0,0,4.89-1.81,20.36,20.36,0,0,0,4.17-3.06,18.41,18.41,0,0,0,3.18-4,22.13,22.13,0,0,0,1.17-2.27,20.82,20.82,0,0,0,.81-2.42c1-3.27.63-6.71.69-10.08,0-27,0-52.13.05-75.09,0-45.9.08-83.05.1-108.73,0-12.83,0-22.8.06-29.56,0-3.38,0-6,0-7.69S373.18,197.87,373.18,197.87Z" style="fill:#263238"></path></g><g id="freepik--Coins--inject-79"><circle cx="434.41" cy="407.77" r="37.53" transform="translate(-88.59 122.35) rotate(-14.57)" style="fill:#FF725E"></circle><g style="opacity:0.1"><path d="M420.94,372.74a37.53,37.53,0,0,0-21.56,48.5s25-8.37,27.15-20.55S420.94,372.74,420.94,372.74Z" style="fill:#fff"></path></g><path d="M460.27,397.19A28.53,28.53,0,1,1,423.4,380.8,28.53,28.53,0,0,1,460.27,397.19Z" style="fill:#FF725E"></path><g style="opacity:0.2"><path d="M460.27,397.19A28.53,28.53,0,1,1,423.4,380.8,28.53,28.53,0,0,1,460.27,397.19Z"></path></g><path d="M461.45,398a28.14,28.14,0,1,1-36.38-16.17A28.15,28.15,0,0,1,461.45,398Z" style="fill:#FF725E"></path><g style="opacity:0.2"><path d="M461.45,398a28.14,28.14,0,1,1-36.38-16.17A28.15,28.15,0,0,1,461.45,398Z" style="fill:#fff"></path></g><path d="M435.35,405.43l-2.59-6.72h0a14.32,14.32,0,0,1,3.93-.44,11.77,11.77,0,0,1,2.08.41v-.24l.11-2.82,0-.65-1.68-.8-.47.48a13.47,13.47,0,0,0-5.41.47l-1.42-3.7-1.51-.48.35.92-1.57.61,1.44,3.76c-5,2.5-6.33,6.41-5,9.81,1.78,4.63,6.2,4.3,10.25,3.78l2.56,6.66a13.68,13.68,0,0,1-7.64,0l-.2,3.94c2.31.83,5.88.68,9.22-.37l1.07,2.79-1.29.52,1.64.38,2.73-1.05L440.56,419c5-2.54,6.39-6.43,5.09-9.83C443.87,404.53,439.39,404.91,435.35,405.43Zm-3,.35c-2.15.18-3.87,0-4.48-1.6s0-3.05,2.2-4.33Zm.41-7.08Zm6.4,16.65-2.26-5.89c2.21-.2,4,0,4.6,1.63C442.05,412.52,441.45,414.05,439.16,415.35Z" style="fill:#FF725E"></path><g style="opacity:0.30000000000000004"><path d="M435.35,405.43l-2.59-6.72h0a14.32,14.32,0,0,1,3.93-.44,11.77,11.77,0,0,1,2.08.41v-.24l.11-2.82,0-.65-1.68-.8-.47.48a13.47,13.47,0,0,0-5.41.47l-1.42-3.7-1.51-.48.35.92-1.57.61,1.44,3.76c-5,2.5-6.33,6.41-5,9.81,1.78,4.63,6.2,4.3,10.25,3.78l2.56,6.66a13.68,13.68,0,0,1-7.64,0l-.2,3.94c2.31.83,5.88.68,9.22-.37l1.07,2.79-1.29.52,1.64.38,2.73-1.05L440.56,419c5-2.54,6.39-6.43,5.09-9.83C443.87,404.53,439.39,404.91,435.35,405.43Zm-3,.35c-2.15.18-3.87,0-4.48-1.6s0-3.05,2.2-4.33Zm.41-7.08Zm6.4,16.65-2.26-5.89c2.21-.2,4,0,4.6,1.63C442.05,412.52,441.45,414.05,439.16,415.35Z"></path></g><path d="M439.08,418.51l1.43,3.73-2.73,1.05-1.42-3.7c-3.34,1.05-6.92,1.21-9.22.37l.2-3.94a13.68,13.68,0,0,0,7.64,0l-2.57-6.66c-4,.52-8.46.85-10.24-3.78-1.31-3.4,0-7.31,5-9.81L425.74,392l2.73-1.05,1.43,3.7a15.15,15.15,0,0,1,7.54-.57l-.07,3.89a14.65,14.65,0,0,0-6.09.27l2.59,6.73c4-.52,8.52-.91,10.3,3.72C445.47,412.07,444.1,416,439.08,418.51Zm-8.21-13.21-2.28-5.93c-2.23,1.28-2.77,2.86-2.2,4.33S428.72,405.48,430.87,405.3Zm9.15,5.31c-.63-1.63-2.39-1.83-4.6-1.63l2.26,5.9C440,413.57,440.57,412.05,440,410.61Z" style="fill:#FF725E"></path><path d="M410.9,435.67s-.1-.06-.27-.21l-.73-.63c-.32-.28-.7-.63-1.12-1.06s-.91-.9-1.4-1.48c-.24-.29-.5-.58-.77-.89s-.52-.66-.8-1c-.56-.69-1.08-1.48-1.65-2.3A37.33,37.33,0,0,1,399,416.21c-.2-1-.42-1.9-.54-2.78-.06-.44-.14-.87-.18-1.27s-.08-.81-.11-1.18c-.09-.75-.09-1.44-.12-2s0-1.11,0-1.53,0-.72,0-1a.17.17,0,1,1,.06,0v1c0,.42,0,.93.05,1.53s.05,1.27.15,2c0,.37.09.76.13,1.17s.14.82.2,1.26c.13.87.35,1.79.56,2.76a38.66,38.66,0,0,0,5.09,11.8c.55.82,1.06,1.61,1.61,2.3.27.35.52.7.78,1l.76.9c.47.59,1,1.06,1.36,1.5s.78.8,1.08,1.09l.7.67Z" style="fill:#fff"></path><path d="M425.52,407.46a2.39,2.39,0,0,1-1.07-.47,4.41,4.41,0,0,1-1.74-5.05,2.34,2.34,0,0,1,.55-1s-.19.41-.36,1.08a4.56,4.56,0,0,0,1.66,4.84C425.12,407.26,425.53,407.41,425.52,407.46Z" style="fill:#fff"></path><path d="M427.54,395a5.07,5.07,0,0,1-.84-2.19c.07,0,.32.44.55,1A2.65,2.65,0,0,1,427.54,395Z" style="fill:#fff"></path><path d="M425.54,379.19a5.77,5.77,0,0,1-.86.3,10.63,10.63,0,0,0-1,.33c-.4.14-.85.28-1.33.49s-1,.41-1.58.68-1.15.57-1.76.89a32.37,32.37,0,0,0-3.78,2.47,31.58,31.58,0,0,0-3.36,3c-.47.51-.92,1-1.31,1.47s-.75.93-1.06,1.35-.58.82-.82,1.16-.43.64-.59.9a5,5,0,0,1-.51.76,8.54,8.54,0,0,1,.42-.82c.14-.26.32-.58.55-.93s.47-.76.79-1.19.64-.9,1-1.38.84-1,1.31-1.5a29.11,29.11,0,0,1,3.37-3.06,31,31,0,0,1,3.82-2.47c.63-.32,1.22-.64,1.79-.88s1.11-.47,1.61-.65.95-.33,1.35-.46.75-.22,1-.29A5.63,5.63,0,0,1,425.54,379.19Z" style="fill:#fff"></path><path d="M451.45,439.34a2.67,2.67,0,0,1-.56.41,17.94,17.94,0,0,1-1.63,1,27.1,27.1,0,0,1-5.78,2.31,28,28,0,0,1-6.16.93c-.8,0-1.45,0-1.89,0a3.47,3.47,0,0,1-.69-.07,3.48,3.48,0,0,1,.69,0c.45,0,1.09,0,1.88-.07a30.34,30.34,0,0,0,11.86-3.21c.71-.36,1.28-.67,1.66-.89A3.67,3.67,0,0,1,451.45,439.34Z" style="fill:#fff"></path><rect x="341.33" y="353.97" width="79.45" height="16.02" transform="translate(762.11 723.96) rotate(180)" style="fill:#FF725E"></rect><path d="M415.67,354.24c-.19,0-.34,3.48-.34,7.77s.15,7.76.34,7.76.35-3.47.35-7.76S415.86,354.24,415.67,354.24Z" style="fill:#263238"></path><path d="M408.31,354.24c-.19,0-.35,3.48-.35,7.77s.16,7.76.35,7.76.34-3.47.34-7.76S408.5,354.24,408.31,354.24Z" style="fill:#263238"></path><path d="M401,354.24c-.19,0-.35,3.48-.35,7.77s.16,7.76.35,7.76.34-3.47.34-7.76S401.22,354.24,401,354.24Z" style="fill:#263238"></path><path d="M393.78,354.24c-.19,0-.34,3.48-.34,7.77s.15,7.76.34,7.76.35-3.47.35-7.76S394,354.24,393.78,354.24Z" style="fill:#263238"></path><path d="M386.54,354.24c-.19,0-.34,3.48-.34,7.77s.15,7.76.34,7.76.35-3.47.35-7.76S386.73,354.24,386.54,354.24Z" style="fill:#263238"></path><path d="M379.3,354.24c-.19,0-.34,3.48-.34,7.77s.15,7.76.34,7.76.35-3.47.35-7.76S379.49,354.24,379.3,354.24Z" style="fill:#263238"></path><path d="M372.06,354.24c-.19,0-.34,3.48-.34,7.77s.15,7.76.34,7.76.35-3.47.35-7.76S372.25,354.24,372.06,354.24Z" style="fill:#263238"></path><path d="M364.82,354.24c-.19,0-.34,3.48-.34,7.77s.15,7.76.34,7.76.34-3.47.34-7.76S365,354.24,364.82,354.24Z" style="fill:#263238"></path><path d="M357.58,354.24c-.19,0-.35,3.48-.35,7.77s.16,7.76.35,7.76.34-3.47.34-7.76S357.77,354.24,357.58,354.24Z" style="fill:#263238"></path><path d="M350.34,354.24c-.19,0-.35,3.48-.35,7.77s.16,7.76.35,7.76.34-3.47.34-7.76S350.53,354.24,350.34,354.24Z" style="fill:#263238"></path><path d="M343.1,354.24c-.19,0-.35,3.48-.35,7.77s.16,7.76.35,7.76.34-3.47.34-7.76S343.29,354.24,343.1,354.24Z" style="fill:#263238"></path><g style="opacity:0.30000000000000004"><path d="M419.5,354a289.47,289.47,0,0,1-76.9,0Z"></path></g><path d="M341.31,354c0,.19,17.76.35,39.65.35s39.66-.16,39.66-.35-17.75-.34-39.66-.34S341.31,353.83,341.31,354Z" style="fill:#263238"></path><rect x="339.55" y="369.72" width="79.45" height="16.02" transform="translate(758.55 755.47) rotate(180)" style="fill:#FF725E"></rect><path d="M413.89,370c-.19,0-.35,3.48-.35,7.77s.16,7.77.35,7.77.34-3.48.34-7.77S414.08,370,413.89,370Z" style="fill:#263238"></path><path d="M406.52,370c-.19,0-.34,3.48-.34,7.77s.15,7.77.34,7.77.35-3.48.35-7.77S406.71,370,406.52,370Z" style="fill:#263238"></path><path d="M399.24,370c-.19,0-.34,3.48-.34,7.77s.15,7.77.34,7.77.35-3.48.35-7.77S399.43,370,399.24,370Z" style="fill:#263238"></path><path d="M392,370c-.19,0-.34,3.48-.34,7.77s.15,7.77.34,7.77.35-3.48.35-7.77S392.19,370,392,370Z" style="fill:#263238"></path><path d="M384.76,370c-.19,0-.35,3.48-.35,7.77s.16,7.77.35,7.77.34-3.48.34-7.77S385,370,384.76,370Z" style="fill:#263238"></path><path d="M377.52,370c-.19,0-.35,3.48-.35,7.77s.16,7.77.35,7.77.34-3.48.34-7.77S377.71,370,377.52,370Z" style="fill:#263238"></path><path d="M370.28,370c-.19,0-.35,3.48-.35,7.77s.16,7.77.35,7.77.34-3.48.34-7.77S370.47,370,370.28,370Z" style="fill:#263238"></path><path d="M363,370c-.19,0-.35,3.48-.35,7.77s.16,7.77.35,7.77.34-3.48.34-7.77S363.23,370,363,370Z" style="fill:#263238"></path><path d="M355.79,370c-.19,0-.34,3.48-.34,7.77s.15,7.77.34,7.77.35-3.48.35-7.77S356,370,355.79,370Z" style="fill:#263238"></path><path d="M348.55,370c-.19,0-.34,3.48-.34,7.77s.15,7.77.34,7.77.35-3.48.35-7.77S348.74,370,348.55,370Z" style="fill:#263238"></path><path d="M341.31,370c-.19,0-.34,3.48-.34,7.77s.15,7.77.34,7.77.35-3.48.35-7.77S341.5,370,341.31,370Z" style="fill:#263238"></path><g style="opacity:0.30000000000000004"><path d="M417.72,369.74a289.47,289.47,0,0,1-76.9,0Z"></path></g><path d="M339.53,369.77c0,.2,17.75.35,39.65.35s39.66-.15,39.66-.35-17.76-.34-39.66-.34S339.53,369.58,339.53,369.77Z" style="fill:#263238"></path><rect x="347.09" y="385.23" width="79.45" height="16.02" transform="translate(773.63 786.48) rotate(180)" style="fill:#FF725E"></rect><path d="M421.43,385.49c-.19,0-.34,3.48-.34,7.77s.15,7.77.34,7.77.35-3.48.35-7.77S421.62,385.49,421.43,385.49Z" style="fill:#263238"></path><path d="M414.07,385.49c-.2,0-.35,3.48-.35,7.77s.15,7.77.35,7.77.34-3.48.34-7.77S414.26,385.49,414.07,385.49Z" style="fill:#263238"></path><path d="M406.78,385.49c-.19,0-.34,3.48-.34,7.77s.15,7.77.34,7.77.35-3.48.35-7.77S407,385.49,406.78,385.49Z" style="fill:#263238"></path><path d="M399.54,385.49c-.19,0-.34,3.48-.34,7.77s.15,7.77.34,7.77.35-3.48.35-7.77S399.73,385.49,399.54,385.49Z" style="fill:#263238"></path><path d="M392.3,385.49c-.19,0-.34,3.48-.34,7.77s.15,7.77.34,7.77.35-3.48.35-7.77S392.49,385.49,392.3,385.49Z" style="fill:#263238"></path><path d="M385.06,385.49c-.19,0-.34,3.48-.34,7.77s.15,7.77.34,7.77.35-3.48.35-7.77S385.25,385.49,385.06,385.49Z" style="fill:#263238"></path><path d="M377.82,385.49c-.19,0-.34,3.48-.34,7.77s.15,7.77.34,7.77.34-3.48.34-7.77S378,385.49,377.82,385.49Z" style="fill:#263238"></path><path d="M370.58,385.49c-.19,0-.35,3.48-.35,7.77s.16,7.77.35,7.77.34-3.48.34-7.77S370.77,385.49,370.58,385.49Z" style="fill:#263238"></path><path d="M363.34,385.49c-.19,0-.35,3.48-.35,7.77s.16,7.77.35,7.77.34-3.48.34-7.77S363.53,385.49,363.34,385.49Z" style="fill:#263238"></path><path d="M356.1,385.49c-.19,0-.35,3.48-.35,7.77s.16,7.77.35,7.77.34-3.48.34-7.77S356.29,385.49,356.1,385.49Z" style="fill:#263238"></path><path d="M348.86,385.49c-.2,0-.35,3.48-.35,7.77s.15,7.77.35,7.77.34-3.48.34-7.77S349.05,385.49,348.86,385.49Z" style="fill:#263238"></path><g style="opacity:0.30000000000000004"><path d="M425.26,385.24a289.47,289.47,0,0,1-76.9,0Z"></path></g><path d="M347.07,385.28c0,.19,17.76.34,39.65.34s39.66-.15,39.66-.34-17.75-.35-39.66-.35S347.07,385.09,347.07,385.28Z" style="fill:#263238"></path><rect x="337.78" y="401.13" width="79.45" height="15.41" transform="translate(755.02 817.67) rotate(180)" style="fill:#FF725E"></rect><path d="M412.12,401.39c-.19,0-.34,3.34-.34,7.47s.15,7.47.34,7.47.35-3.35.35-7.47S412.32,401.39,412.12,401.39Z" style="fill:#263238"></path><path d="M404.76,401.39c-.19,0-.35,3.34-.35,7.47s.16,7.47.35,7.47.34-3.35.34-7.47S405,401.39,404.76,401.39Z" style="fill:#263238"></path><path d="M397.48,401.39c-.19,0-.35,3.34-.35,7.47s.16,7.47.35,7.47.34-3.35.34-7.47S397.67,401.39,397.48,401.39Z" style="fill:#263238"></path><path d="M390.24,401.39c-.19,0-.35,3.34-.35,7.47s.16,7.47.35,7.47.34-3.35.34-7.47S390.43,401.39,390.24,401.39Z" style="fill:#263238"></path><path d="M383,401.39c-.19,0-.35,3.34-.35,7.47s.16,7.47.35,7.47.34-3.35.34-7.47S383.19,401.39,383,401.39Z" style="fill:#263238"></path><path d="M375.75,401.39c-.19,0-.34,3.34-.34,7.47s.15,7.47.34,7.47.35-3.35.35-7.47S375.94,401.39,375.75,401.39Z" style="fill:#263238"></path><path d="M368.51,401.39c-.19,0-.34,3.34-.34,7.47s.15,7.47.34,7.47.35-3.35.35-7.47S368.7,401.39,368.51,401.39Z" style="fill:#263238"></path><path d="M361.27,401.39c-.19,0-.34,3.34-.34,7.47s.15,7.47.34,7.47.35-3.35.35-7.47S361.46,401.39,361.27,401.39Z" style="fill:#263238"></path><path d="M354,401.39c-.19,0-.34,3.34-.34,7.47s.15,7.47.34,7.47.35-3.35.35-7.47S354.22,401.39,354,401.39Z" style="fill:#263238"></path><path d="M346.79,401.39c-.19,0-.35,3.34-.35,7.47s.16,7.47.35,7.47.34-3.35.34-7.47S347,401.39,346.79,401.39Z" style="fill:#263238"></path><path d="M339.55,401.39c-.19,0-.35,3.34-.35,7.47s.16,7.47.35,7.47.34-3.35.34-7.47S339.74,401.39,339.55,401.39Z" style="fill:#263238"></path><g style="opacity:0.30000000000000004"><path d="M416,401.15a227.43,227.43,0,0,1-76.9,0Z"></path></g><path d="M337.76,401.18c0,.19,17.76.34,39.66.34s39.65-.15,39.65-.34-17.75-.35-39.65-.35S337.76,401,337.76,401.18Z" style="fill:#263238"></path><rect x="342.89" y="416.55" width="79.45" height="15.41" transform="translate(765.23 848.5) rotate(180)" style="fill:#FF725E"></rect><path d="M417.23,416.8c-.19,0-.34,3.35-.34,7.47s.15,7.47.34,7.47.35-3.34.35-7.47S417.42,416.8,417.23,416.8Z" style="fill:#263238"></path><path d="M409.87,416.8c-.19,0-.35,3.35-.35,7.47s.16,7.47.35,7.47.34-3.34.34-7.47S410.06,416.8,409.87,416.8Z" style="fill:#263238"></path><path d="M402.59,416.8c-.19,0-.35,3.35-.35,7.47s.16,7.47.35,7.47.34-3.34.34-7.47S402.78,416.8,402.59,416.8Z" style="fill:#263238"></path><path d="M395.34,416.8c-.19,0-.34,3.35-.34,7.47s.15,7.47.34,7.47.35-3.34.35-7.47S395.54,416.8,395.34,416.8Z" style="fill:#263238"></path><path d="M388.1,416.8c-.19,0-.34,3.35-.34,7.47s.15,7.47.34,7.47.35-3.34.35-7.47S388.29,416.8,388.1,416.8Z" style="fill:#263238"></path><path d="M380.86,416.8c-.19,0-.34,3.35-.34,7.47s.15,7.47.34,7.47.35-3.34.35-7.47S381.05,416.8,380.86,416.8Z" style="fill:#263238"></path><path d="M373.62,416.8c-.19,0-.34,3.35-.34,7.47s.15,7.47.34,7.47.35-3.34.35-7.47S373.81,416.8,373.62,416.8Z" style="fill:#263238"></path><path d="M366.38,416.8c-.19,0-.34,3.35-.34,7.47s.15,7.47.34,7.47.34-3.34.34-7.47S366.57,416.8,366.38,416.8Z" style="fill:#263238"></path><path d="M359.14,416.8c-.19,0-.35,3.35-.35,7.47s.16,7.47.35,7.47.34-3.34.34-7.47S359.33,416.8,359.14,416.8Z" style="fill:#263238"></path><path d="M351.9,416.8c-.19,0-.35,3.35-.35,7.47s.16,7.47.35,7.47.34-3.34.34-7.47S352.09,416.8,351.9,416.8Z" style="fill:#263238"></path><path d="M344.66,416.8c-.19,0-.35,3.35-.35,7.47s.16,7.47.35,7.47.34-3.34.34-7.47S344.85,416.8,344.66,416.8Z" style="fill:#263238"></path><g style="opacity:0.30000000000000004"><path d="M421.06,416.56a201.37,201.37,0,0,1-76.9,0Z"></path></g><path d="M342.87,416.59c0,.2,17.76.35,39.65.35s39.66-.15,39.66-.35-17.75-.34-39.66-.34S342.87,416.4,342.87,416.59Z" style="fill:#263238"></path><rect x="338.35" y="431.74" width="79.45" height="15.41" transform="translate(756.16 878.89) rotate(180)" style="fill:#FF725E"></rect><path d="M412.69,432c-.19,0-.34,3.35-.34,7.47s.15,7.47.34,7.47.35-3.34.35-7.47S412.88,432,412.69,432Z" style="fill:#263238"></path><path d="M405.33,432c-.19,0-.35,3.35-.35,7.47s.16,7.47.35,7.47.34-3.34.34-7.47S405.52,432,405.33,432Z" style="fill:#263238"></path><path d="M398.05,432c-.19,0-.35,3.35-.35,7.47s.16,7.47.35,7.47.34-3.34.34-7.47S398.24,432,398.05,432Z" style="fill:#263238"></path><path d="M390.81,432c-.19,0-.35,3.35-.35,7.47s.16,7.47.35,7.47.34-3.34.34-7.47S391,432,390.81,432Z" style="fill:#263238"></path><path d="M383.56,432c-.19,0-.34,3.35-.34,7.47s.15,7.47.34,7.47.35-3.34.35-7.47S383.76,432,383.56,432Z" style="fill:#263238"></path><path d="M376.32,432c-.19,0-.34,3.35-.34,7.47s.15,7.47.34,7.47.35-3.34.35-7.47S376.51,432,376.32,432Z" style="fill:#263238"></path><path d="M369.08,432c-.19,0-.34,3.35-.34,7.47s.15,7.47.34,7.47.35-3.34.35-7.47S369.27,432,369.08,432Z" style="fill:#263238"></path><path d="M361.84,432c-.19,0-.34,3.35-.34,7.47s.15,7.47.34,7.47.35-3.34.35-7.47S362,432,361.84,432Z" style="fill:#263238"></path><path d="M354.6,432c-.19,0-.34,3.35-.34,7.47s.15,7.47.34,7.47.34-3.34.34-7.47S354.79,432,354.6,432Z" style="fill:#263238"></path><path d="M347.36,432c-.19,0-.35,3.35-.35,7.47s.16,7.47.35,7.47.34-3.34.34-7.47S347.55,432,347.36,432Z" style="fill:#263238"></path><path d="M340.12,432c-.19,0-.35,3.35-.35,7.47s.16,7.47.35,7.47.34-3.34.34-7.47S340.31,432,340.12,432Z" style="fill:#263238"></path><g style="opacity:0.30000000000000004"><path d="M416.52,431.76a227.43,227.43,0,0,1-76.9,0Z"></path></g><path d="M338.33,431.79c0,.19,17.76.35,39.65.35s39.66-.16,39.66-.35-17.75-.34-39.66-.34S338.33,431.6,338.33,431.79Z" style="fill:#263238"></path><path d="M417.8,447.15a1.33,1.33,0,0,1,0-.26l0-.78c0-.72,0-1.72,0-3,0-2.64,0-6.43-.08-11.16v-.17h.17l4.38,0L422,432c0-4.5,0-9.71-.05-15.41l.24.23h-5.35v-.24c0-4.77,0-9.93,0-15.29V401h9.57l-.26.26c0-5.7,0-11.18,0-16.32l.25.25-7.54,0h-.24v-.23c0-5.57,0-10.6,0-14.94v-.18h2.13l-.17.17c0-5,0-8.94,0-11.73,0-1.34,0-2.39,0-3.15,0-.33,0-.6,0-.81a.9.9,0,0,1,0-.28,1,1,0,0,1,0,.28l0,.81c0,.76,0,1.81.08,3.15.05,2.78.11,6.77.2,11.73v.18h-2.12L419,370c0,4.34,0,9.37.05,14.94l-.23-.23h7.78v.24c0,5.14,0,10.62,0,16.32v.26h-9.57l.26-.26c0,5.36,0,10.52,0,15.29l-.25-.25h5.35v.24c0,5.7,0,10.91-.05,15.41v.2h-.19l-4.38,0L418,432c0,4.73-.06,8.52-.07,11.16,0,1.28,0,2.28,0,3l0,.78A.9.9,0,0,1,417.8,447.15Z" style="fill:#263238"></path><path d="M420.13,306.16a37.16,37.16,0,1,1-38.43-35.84A37.15,37.15,0,0,1,420.13,306.16Z" style="fill:#FF725E"></path><g style="opacity:0.1"><path d="M381.7,270.32a37.17,37.17,0,0,0-35.84,38.44s26.14.25,32.05-10.48S381.7,270.32,381.7,270.32Z" style="fill:#fff"></path></g><path d="M410.62,305.9a28.25,28.25,0,1,1-29.22-27.24A28.25,28.25,0,0,1,410.62,305.9Z" style="fill:#FF725E"></path><g style="opacity:0.2"><path d="M410.62,305.9a28.25,28.25,0,1,1-29.22-27.24A28.25,28.25,0,0,1,410.62,305.9Z"></path></g><path d="M411.46,307.05a27.87,27.87,0,1,1-28.83-26.88A27.88,27.88,0,0,1,411.46,307.05Z" style="fill:#FF725E"></path><g style="opacity:0.2"><path d="M411.46,307.05a27.87,27.87,0,1,1-28.83-26.88A27.88,27.88,0,0,1,411.46,307.05Z" style="fill:#fff"></path></g><path d="M384.63,305.57l-.25-7.12h0a15.05,15.05,0,0,1,3.83.86,12,12,0,0,1,1.81,1.06l.09-.23,1-2.6.23-.6-1.32-1.29-.6.3a13.14,13.14,0,0,0-5.21-1.31l-.14-3.92-1.26-.94,0,1-1.68.06.14,4c-5.49.72-8,4-7.86,7.56.17,4.9,4.42,6,8.37,6.84l.24,7.06a13.54,13.54,0,0,1-7.15-2.43l-1.46,3.62c1.89,1.52,5.28,2.54,8.75,2.63l.1,3-1.38.07,1.42.89,2.89-.11-.14-3.95c5.52-.76,8.06-4,7.94-7.56C392.9,307.47,388.58,306.39,384.63,305.57Zm-2.92-.64c-2.07-.53-3.62-1.25-3.68-2.95s1-2.86,3.46-3.33Zm2.67-6.49Zm.62,17.65-.22-6.25c2.14.53,3.72,1.29,3.78,3C388.61,314.38,387.56,315.61,385,316.09Z" style="fill:#FF725E"></path><g style="opacity:0.30000000000000004"><path d="M384.63,305.57l-.25-7.12h0a15.05,15.05,0,0,1,3.83.86,12,12,0,0,1,1.81,1.06l.09-.23,1-2.6.23-.6-1.32-1.29-.6.3a13.14,13.14,0,0,0-5.21-1.31l-.14-3.92-1.26-.94,0,1-1.68.06.14,4c-5.49.72-8,4-7.86,7.56.17,4.9,4.42,6,8.37,6.84l.24,7.06a13.54,13.54,0,0,1-7.15-2.43l-1.46,3.62c1.89,1.52,5.28,2.54,8.75,2.63l.1,3-1.38.07,1.42.89,2.89-.11-.14-3.95c5.52-.76,8.06-4,7.94-7.56C392.9,307.47,388.58,306.39,384.63,305.57Zm-2.92-.64c-2.07-.53-3.62-1.25-3.68-2.95s1-2.86,3.46-3.33Zm2.67-6.49Zm.62,17.65-.22-6.25c2.14.53,3.72,1.29,3.78,3C388.61,314.38,387.56,315.61,385,316.09Z"></path></g><path d="M383.9,319l.14,4-2.9.1-.13-3.92c-3.47-.09-6.87-1.1-8.76-2.63l1.47-3.62a13.63,13.63,0,0,0,7.15,2.44l-.24-7.06c-4-.82-8.2-1.94-8.37-6.85-.13-3.6,2.37-6.84,7.86-7.56l-.14-4,2.9-.1.13,3.92a15.16,15.16,0,0,1,7.25,1.9l-1.32,3.62a14.68,14.68,0,0,0-5.79-1.71l.25,7.13c4,.82,8.27,1.91,8.44,6.81C392,315.06,389.42,318.26,383.9,319Zm-3.42-15-.22-6.28c-2.5.47-3.51,1.78-3.46,3.34S378.41,303.48,380.48,304Zm6.85,7.93c-.06-1.73-1.64-2.49-3.78-3l.22,6.25C386.33,314.69,387.38,313.45,387.33,311.93Z" style="fill:#FF725E"></path><path d="M384.08,336.17s.07,0,.22,0l.67-.08,1.09-.1a11.72,11.72,0,0,0,1.48-.2l1.84-.36a7.5,7.5,0,0,0,1-.27l1.1-.33a11.41,11.41,0,0,0,1.18-.37c.39-.17.8-.33,1.22-.5s.85-.33,1.28-.55l1.3-.68a30.52,30.52,0,0,0,5.37-3.73l1.28-1.26c.22-.21.45-.42.66-.64l.6-.72c.4-.48.84-1,1.22-1.46l1.12-1.61.29-.41.24-.44.5-.88c.17-.29.33-.59.5-.89a9,9,0,0,0,.44-.94c.27-.63.57-1.27.83-1.92s.44-1.35.66-2a27.84,27.84,0,0,0-.61-17.52q-.4-1-.81-2c-.29-.65-.64-1.25-1-1.87a9.84,9.84,0,0,0-.5-.9l-.56-.86-.56-.84c-.09-.14-.18-.29-.28-.42l-.31-.39-1.23-1.52c-.42-.49-.89-.93-1.32-1.38l-.65-.67c-.23-.21-.47-.4-.7-.6l-1.37-1.16a29.18,29.18,0,0,0-5.62-3.35l-1.34-.59c-.44-.19-.89-.31-1.32-.46l-1.25-.41c-.4-.14-.81-.19-1.2-.29l-1.12-.26a8.32,8.32,0,0,0-1.05-.19l-1.85-.23a10.28,10.28,0,0,0-1.49-.09l-1.1,0-.67,0a.6.6,0,0,1-.23,0h2a11.73,11.73,0,0,1,1.5.07l1.86.21a8.71,8.71,0,0,1,1.06.18l1.13.25a11.64,11.64,0,0,1,1.21.28l1.26.41c.43.14.88.26,1.33.45l1.35.58a29.54,29.54,0,0,1,5.68,3.35l1.39,1.16c.23.2.47.39.7.6l.66.67c.44.46.91.9,1.34,1.39l1.24,1.54.32.39c.1.13.19.28.28.42l.57.85c.18.28.37.57.57.86s.33.61.5.91c.32.62.68,1.24,1,1.88s.54,1.33.82,2a30.63,30.63,0,0,1,1.74,8.8,30.32,30.32,0,0,1-1.13,8.9c-.22.69-.45,1.37-.67,2.05s-.57,1.3-.84,1.95c-.15.31-.27.64-.45.94l-.5.9c-.17.3-.34.59-.5.89l-.26.43-.29.42L405.82,325c-.39.52-.83,1-1.23,1.47l-.62.72c-.21.22-.44.43-.66.65l-1.3,1.26a29.48,29.48,0,0,1-5.43,3.73l-1.31.68c-.43.22-.88.36-1.3.54l-1.22.49a12.38,12.38,0,0,1-1.19.37l-1.11.32a7,7,0,0,1-1.05.26l-1.84.34a11.34,11.34,0,0,1-1.49.17l-1.09.08-.67,0Z" style="fill:#263238"></path><path d="M352,326a2,2,0,0,1-.18-.29c-.13-.21-.29-.49-.48-.83a13.62,13.62,0,0,1-.7-1.35c-.26-.53-.57-1.13-.84-1.83-.14-.35-.28-.71-.44-1.09s-.27-.79-.42-1.2c-.3-.83-.53-1.74-.8-2.69a37.09,37.09,0,0,1-.95-12.77c.12-1,.22-1.92.39-2.78.08-.43.15-.85.24-1.25s.19-.77.27-1.14c.16-.73.38-1.37.55-1.94s.34-1.05.5-1.44l.35-.89a1.64,1.64,0,0,1,.14-.31,1.25,1.25,0,0,1-.09.33l-.3.91c-.14.39-.3.88-.45,1.45s-.36,1.21-.51,1.94c-.08.36-.16.74-.25,1.14s-.14.81-.22,1.24c-.17.86-.25,1.79-.37,2.76a43.51,43.51,0,0,0-.06,6.39,42.15,42.15,0,0,0,1,6.3c.26,1,.48,1.85.77,2.68.14.41.26.82.4,1.2s.29.74.43,1.08c.25.7.55,1.3.79,1.85s.46,1,.65,1.36.32.64.44.86A1.56,1.56,0,0,1,352,326Z" style="fill:#fff"></path><path d="M374.77,304.3a2.43,2.43,0,0,1-.85-.79,4.4,4.4,0,0,1,0-5.29,2.36,2.36,0,0,1,.85-.78s-.31.32-.69.9a4.52,4.52,0,0,0,0,5.06C374.46,304,374.8,304.26,374.77,304.3Z" style="fill:#fff"></path><path d="M380.7,293.27a2.5,2.5,0,0,1-.18-1.16,2.57,2.57,0,0,1,.1-1.17,2.84,2.84,0,0,1,.18,1.16A2.57,2.57,0,0,1,380.7,293.27Z" style="fill:#fff"></path><path d="M383.93,277.84a5.39,5.39,0,0,1-.91,0c-.29,0-.65,0-1.06,0s-.89,0-1.41,0-1.09.05-1.7.13-1.25.15-1.93.26a30.84,30.84,0,0,0-4.33,1.09,31.71,31.71,0,0,0-4.12,1.74c-.6.33-1.19.63-1.7.95s-1,.63-1.43.92-.81.58-1.15.82-.61.47-.83.66a7.06,7.06,0,0,1-.73.55,5.37,5.37,0,0,1,.66-.64q.31-.3.81-.69c.33-.25.69-.56,1.12-.86s.9-.63,1.43-1,1.09-.65,1.7-1a30.26,30.26,0,0,1,4.15-1.78,29.9,29.9,0,0,1,4.38-1.07c.68-.1,1.34-.2,1.95-.24s1.19-.09,1.71-.1,1,0,1.42,0a10.16,10.16,0,0,1,1.06.06A6.91,6.91,0,0,1,383.93,277.84Z" style="fill:#fff"></path><path d="M388.75,342.51a3.21,3.21,0,0,1-.66.21c-.42.11-1,.25-1.83.38a26.89,26.89,0,0,1-12.22-.83,17.61,17.61,0,0,1-1.76-.63,3.56,3.56,0,0,1-.63-.29,3.69,3.69,0,0,1,.66.19c.42.14,1,.33,1.78.54a30.6,30.6,0,0,0,6,1,31.11,31.11,0,0,0,6.11-.2c.78-.11,1.41-.21,1.84-.3A4.59,4.59,0,0,1,388.75,342.51Z" style="fill:#fff"></path></g><g id="freepik--Character--inject-79"><path d="M133.21,257.19a7.68,7.68,0,0,1-.29-13.37l9.08-2.35q.72,17.31,1.66,34.61a13.08,13.08,0,0,1-6.67-2.37c-1.87-1.5-3-4.15-2.09-6.37a6.07,6.07,0,0,1-1.69-10.15Z" style="fill:#263238"></path><path d="M177.17,253.54l0-4.1-24.76-3.9c-7.61-.57-15.58,7.29-15.82,14.92-.27,8.48-.26,18.84.94,25.12,2.41,12.63,12.19,13.94,12.19,13.94v12.56c.15,7.33,6.37,8.75,13.7,8.61h0a13.28,13.28,0,0,0,13-13.09Z" style="fill:#ffbf9d"></path><path d="M142.94,270.66a1.63,1.63,0,0,0,1.62,1.6,1.55,1.55,0,0,0,1.63-1.52,1.64,1.64,0,0,0-1.62-1.6A1.55,1.55,0,0,0,142.94,270.66Z" style="fill:#263238"></path><path d="M139.74,265c.2.21,1.41-.75,3.16-.8s3.07.79,3.25.57-.13-.48-.7-.87a4.55,4.55,0,0,0-2.61-.71,4.29,4.29,0,0,0-2.51.9C139.8,264.54,139.63,264.93,139.74,265Z" style="fill:#263238"></path><path d="M158.21,270.54a1.62,1.62,0,0,0,1.62,1.59,1.55,1.55,0,0,0,1.63-1.52,1.62,1.62,0,0,0-1.62-1.59A1.55,1.55,0,0,0,158.21,270.54Z" style="fill:#263238"></path><path d="M156.87,264.88c.21.21,1.42-.74,3.17-.79s3.06.78,3.24.56-.12-.47-.7-.86a4.42,4.42,0,0,0-2.6-.72,4.32,4.32,0,0,0-2.52.9C156.94,264.4,156.77,264.79,156.87,264.88Z" style="fill:#263238"></path><path d="M150.68,278.75a11.91,11.91,0,0,0-2.86-.43c-.45,0-.87-.1-1-.41a2.32,2.32,0,0,1,.26-1.33c.39-1.1.79-2.25,1.21-3.45,1.69-4.91,2.89-8.94,2.7-9s-1.73,3.86-3.41,8.76c-.41,1.21-.8,2.37-1.16,3.47a2.54,2.54,0,0,0-.18,1.76,1.1,1.1,0,0,0,.76.63,3.18,3.18,0,0,0,.76.09A11.19,11.19,0,0,0,150.68,278.75Z" style="fill:#263238"></path><path d="M149.69,299.56A33.65,33.65,0,0,0,167,294.45s-4.12,9.22-17.3,8.47Z" style="fill:#ff9a6c"></path><path d="M157.47,258.28c.17.48,1.92.25,4,.5s3.72.81,4,.38c.12-.2-.17-.65-.84-1.11a6.93,6.93,0,0,0-6.07-.67C157.77,257.68,157.39,258.05,157.47,258.28Z" style="fill:#263238"></path><path d="M140.18,259.41c.37.37,1.67-.14,3.28-.29s3,0,3.26-.4c.13-.21-.12-.6-.74-.92a5,5,0,0,0-2.72-.45,4.93,4.93,0,0,0-2.56,1C140.17,258.81,140,259.23,140.18,259.41Z" style="fill:#263238"></path><path d="M131.74,249.24a7.9,7.9,0,0,1-3.33-8.05,9,9,0,0,1,5.92-6.56,9.48,9.48,0,0,1,1.83-.4,8.1,8.1,0,0,1,3.91-1.25,4.26,4.26,0,0,1,3.14-3.44,10.12,10.12,0,0,1,4.89,0,8.27,8.27,0,0,1,13.35.17,6.78,6.78,0,0,1,10.16,3.85,6.76,6.76,0,0,1,4.92,2.13,22.7,22.7,0,0,1,2.43,4.18,7.63,7.63,0,0,1,3.88,13.78,7,7,0,0,1-1.17,11.12,8.91,8.91,0,0,1-.47,7A4.33,4.33,0,0,1,179,274a1.64,1.64,0,0,1-.18.48c-.72,1.21-2.6.76-3.73-.09-2.75-2.05-4.3-5.35-5.17-8.67s-1.16-6.76-2-10.08c0-.08,0-.15-.06-.24a9.37,9.37,0,0,0-1.94-3.74,25,25,0,0,1-3,2.05,10.13,10.13,0,0,1-11.83-2,14.88,14.88,0,0,1-9.32,3.73c-3.42.12-6.82-.41-9.51-2.52a4.72,4.72,0,0,1-1.55-2.09A1.44,1.44,0,0,1,131.74,249.24Z" style="fill:#263238"></path><path d="M175.66,270.39c.16-.09,6.73-2.82,7.27,4.13s-6.55,6.06-6.57,5.86S175.66,270.39,175.66,270.39Z" style="fill:#ffbf9d"></path><path d="M178.27,277.58s.13.07.34.15a1.22,1.22,0,0,0,.91-.05,3,3,0,0,0,1.18-2.79,4.16,4.16,0,0,0-.48-1.71,1.42,1.42,0,0,0-1-.86.62.62,0,0,0-.69.39c-.08.2,0,.33-.06.35s-.16-.11-.12-.4a.67.67,0,0,1,.24-.45.88.88,0,0,1,.65-.23,1.69,1.69,0,0,1,1.35,1,4,4,0,0,1,.57,1.9,3.15,3.15,0,0,1-1.53,3.14,1.3,1.3,0,0,1-1.12-.1C178.3,277.75,178.25,277.59,178.27,277.58Z" style="fill:#ff9a6c"></path><path d="M128.73,240s0,.06-.06.17a4.17,4.17,0,0,0-.09.51,5,5,0,0,0,.13,2,5.2,5.2,0,0,0,1.59,2.64,5.54,5.54,0,0,0,3.78,1.37l-.12-.11a11.85,11.85,0,0,0,3.16,5.92,9.11,9.11,0,0,0,3.17,2.16,7.73,7.73,0,0,0,4,.41,13.46,13.46,0,0,0,3.82-1.16,10.58,10.58,0,0,0,3.12-2.08h-.21a12.68,12.68,0,0,0,6,3,10,10,0,0,0,5.22-.69,10.17,10.17,0,0,0,2.92-1.84c.3-.27.52-.49.66-.64s.21-.24.2-.25-.31.31-.92.82a11.1,11.1,0,0,1-2.93,1.74,9.85,9.85,0,0,1-5.11.6,12.4,12.4,0,0,1-5.82-2.94l-.11-.09-.1.1a10.27,10.27,0,0,1-3,2,13.43,13.43,0,0,1-3.73,1.12,7.35,7.35,0,0,1-3.88-.38,9.12,9.12,0,0,1-3.07-2.08,12,12,0,0,1-3.13-5.75l0-.11h-.11a5.29,5.29,0,0,1-3.63-1.27,5,5,0,0,1-1.59-2.52,5.51,5.51,0,0,1-.2-1.92C128.69,240.27,128.75,240,128.73,240Z" style="fill:#455a64"></path><path d="M178,239.57a14.76,14.76,0,0,1,.75,2.36,9.91,9.91,0,0,1-.78,6.25l0,.1.09.07a6.46,6.46,0,0,1,2,2.73,6.18,6.18,0,0,1,.26,3.7,6.48,6.48,0,0,1-2.76,3.86l-.13.07.08.13a8,8,0,0,1,1.05,4.3,8.69,8.69,0,0,1-.82,3.42,9.87,9.87,0,0,1-1.83,2.58L176,269a4.86,4.86,0,0,0,.47-.43,7.55,7.55,0,0,0,1.36-1.93,8.63,8.63,0,0,0,.91-3.5,8.3,8.3,0,0,0-1-4.46l-.05.2a6.66,6.66,0,0,0,2.9-4,6.42,6.42,0,0,0-.27-3.89,6.73,6.73,0,0,0-2.12-2.83l0,.17a9.86,9.86,0,0,0,.68-6.41,8.81,8.81,0,0,0-.59-1.74c-.09-.2-.17-.34-.22-.44A.68.68,0,0,0,178,239.57Z" style="fill:#455a64"></path><path d="M180,279.91a5.58,5.58,0,0,1,.21,1.24,1.89,1.89,0,0,1-.43,1.21,1.54,1.54,0,0,1-1.4.49,1.28,1.28,0,0,1-.94-1.09,2.52,2.52,0,0,1,.16-1.31c.3-.72.58-1.14.53-1.17a3.2,3.2,0,0,0-.73,1.09,2.54,2.54,0,0,0-.25,1.43,1.71,1.71,0,0,0,.34.83,1.36,1.36,0,0,0,.82.53,1.8,1.8,0,0,0,1.69-.61,2,2,0,0,0,.44-1.4A1.87,1.87,0,0,0,180,279.91Z" style="fill:#263238"></path><path d="M157.13,280.68a3.52,3.52,0,0,1-1.76,5.51,2.06,2.06,0,0,1-1.32,0,2.9,2.9,0,0,1-1.41-1.84c-.25-.61-.49-1.23-.74-1.84a.81.81,0,0,1-.07-.64.8.8,0,0,1,.6-.35l4.57-1.11" style="fill:#ff9a6c"></path><path d="M154.15,286a4,4,0,0,0,2.07-.26,3.23,3.23,0,0,0,1.82-1.47,2.46,2.46,0,0,0,.28-1.42,4.12,4.12,0,0,0-.36-1.46,3.82,3.82,0,0,0-.86-1.19l-.12-.11-.15.06c-3,1.06-5.39,1.6-5.37,1.73a18.06,18.06,0,0,0,5.54-1.23l-.27-.05a3.45,3.45,0,0,1,.73,1,2.57,2.57,0,0,1-1.38,3.76C154.94,285.83,154.13,285.88,154.15,286Z" style="fill:#263238"></path><polygon points="174.29 452.4 187.11 446.68 177.59 426.25 163.96 433.45 174.29 452.4" style="fill:#ffbf9d"></polygon><path d="M168.32,431.91l-19.61,9-10,.56L141,482.32s4.46.4,5.43-2.29,10-22.09,10-22.09l18.6-7.15Z" style="fill:#455a64"></path><path d="M169.49,428.75,164,431.7a1.7,1.7,0,0,0-.77,2.13L170.65,452a1.7,1.7,0,0,0,2,1l5.29-1.55a1.69,1.69,0,0,0,1.09-2.25l-7.95-19.87A1.18,1.18,0,0,0,169.49,428.75Z" style="fill:#e0e0e0"></path><path d="M169.49,428.75a1.69,1.69,0,0,1,.61-.09,1.15,1.15,0,0,1,.67.29,2.19,2.19,0,0,1,.47.89c.59,1.51,1.42,3.64,2.43,6.25s2.29,5.78,3.66,9.25c.35.87.7,1.76,1.06,2.67l.54,1.37a1.51,1.51,0,0,1-.17,1.29,1.57,1.57,0,0,1-.49.47,2.84,2.84,0,0,1-.68.24l-1.5.45-3.07.9a3.88,3.88,0,0,1-.74.17,1.47,1.47,0,0,1-.69-.14,1.59,1.59,0,0,1-.56-.43,3.39,3.39,0,0,1-.33-.66l-1.18-2.87c-.77-1.89-1.52-3.7-2.23-5.44l-3.8-9.19a2.46,2.46,0,0,1-.28-.94,1.5,1.5,0,0,1,.23-.86c.29-.53.91-.71,1.39-1l2.53-1.38,1.59-.89a2.86,2.86,0,0,0,.54-.34l-.58.27-1.62.83-2.56,1.33-.77.4a1.84,1.84,0,0,0-.73.66,1.91,1.91,0,0,0-.28,1,2.83,2.83,0,0,0,.29,1L167,443.5l2.21,5.44c.38.94.77,1.9,1.17,2.87a2.83,2.83,0,0,0,.39.75,1.86,1.86,0,0,0,1.55.72,2.36,2.36,0,0,0,.45-.08l.39-.11,3.06-.9,1.51-.44a3.79,3.79,0,0,0,.76-.29,1.91,1.91,0,0,0,.61-.59,1.82,1.82,0,0,0,.21-1.6c-.18-.5-.37-.93-.55-1.4-.37-.9-.72-1.79-1.07-2.66-1.41-3.46-2.67-6.58-3.74-9.22s-1.93-4.7-2.54-6.2a2.24,2.24,0,0,0-.54-.93,1.24,1.24,0,0,0-.73-.28,1.27,1.27,0,0,0-.48.09Z" style="fill:#263238"></path><path d="M164.53,436.09a8.52,8.52,0,0,1,8.15-2.81,19.57,19.57,0,0,0-4.31.74A19.77,19.77,0,0,0,164.53,436.09Z" style="fill:#263238"></path><path d="M167,443a17.82,17.82,0,0,1,4-2.11,18.32,18.32,0,0,1,4.22-1.47,30.84,30.84,0,0,1-4,1.87A32.36,32.36,0,0,1,167,443Z" style="fill:#263238"></path><path d="M170.14,450.1a15.65,15.65,0,0,0,4.19-1.64,15.18,15.18,0,0,0,3.23-3.11,2.8,2.8,0,0,1-.6,1.22,8.44,8.44,0,0,1-2.38,2.28,8.59,8.59,0,0,1-3.07,1.21A3,3,0,0,1,170.14,450.1Z" style="fill:#263238"></path><polygon points="142.3 441.3 143.24 482.19 140.96 482.32 138.79 441.49 142.3 441.3" style="fill:#263238"></polygon><path d="M147.68,465.92a2.65,2.65,0,0,1,2.3.09c1.24.49,1.84,1.45,1.72,1.52s-.81-.61-1.91-1S147.7,466.08,147.68,465.92Z" style="fill:#263238"></path><path d="M149.78,460.19a3.49,3.49,0,0,1,2.6.59c1.33.76,1.94,1.88,1.82,2s-.86-.81-2.08-1.49S149.77,460.34,149.78,460.19Z" style="fill:#263238"></path><path d="M154.42,454.27c.1-.09.88.59,1.41,1.73a3.17,3.17,0,0,1,.43,2.19,11.8,11.8,0,0,1-.9-2C154.87,455.16,154.31,454.37,154.42,454.27Z" style="fill:#263238"></path><path d="M162.35,450.76a5.07,5.07,0,0,1,.88,2.11,5.14,5.14,0,0,1,.38,2.26,5.23,5.23,0,0,1-.88-2.11A5.32,5.32,0,0,1,162.35,450.76Z" style="fill:#263238"></path><path d="M163.34,454.36a9.39,9.39,0,0,0-1.85,2.69,7.14,7.14,0,0,0-.43,1.58,2.21,2.21,0,0,0,0,.85c.07.28.22.43.42.4a1.25,1.25,0,0,0,.63-.56,7.89,7.89,0,0,0,.53-.9,7.12,7.12,0,0,0,.66-2.11,6.36,6.36,0,0,0,.08-1.22l.51,0a3.14,3.14,0,0,0,.93,1.65,9.3,9.3,0,0,0,1.49,1.11c.26.16.53.33.61.27s.12-.25,0-.47a3.9,3.9,0,0,0-.77-1.17,5.37,5.37,0,0,0-2.47-1.37,1.78,1.78,0,0,1,.79.06,4.23,4.23,0,0,1,2.84,2.34,1.21,1.21,0,0,1,.09.48.6.6,0,0,1-.34.54.75.75,0,0,1-.6-.06,4.16,4.16,0,0,1-.42-.23,8.53,8.53,0,0,1-1.6-1.15,3.54,3.54,0,0,1-1.09-1.91l.52-.05a7.41,7.41,0,0,1-.8,3.56,6.27,6.27,0,0,1-.59,1,1.58,1.58,0,0,1-.95.74.78.78,0,0,1-.67-.22,1.13,1.13,0,0,1-.27-.55,2.66,2.66,0,0,1,0-1,7,7,0,0,1,.52-1.66,6.38,6.38,0,0,1,1.45-2C163,454.49,163.32,454.33,163.34,454.36Z" style="fill:#263238"></path><path d="M150.7,447.31a1.7,1.7,0,1,0,1.45-1.91A1.69,1.69,0,0,0,150.7,447.31Z" style="fill:#f5f5f5"></path><path d="M120.19,406.53s-19.24-2.4-25.37-1.15-17.69,8.5-16.58,19.51,8.39,18.9,17.3,20.29,58.71,6.44,78,6.18c16.32-.22,25.19-4.36,23.33-6.9,0,0,17.19-6.54,19-7.3,1.39-.6,26.65-13.11,29.3-17.71s8.92-20.2-2.09-28-29.82-2.51-33.16,0c-1.64,1.23-4.57,2.08-10.46,6.38L193.82,394c-.39.3-45.64,3.46-63.55,4.28C127.23,398.39,120.19,406.53,120.19,406.53Z" style="fill:#263238"></path><path d="M174.2,433.43c-.5-2.13-.72-2.91-.17-4.29a12.17,12.17,0,0,1,2.56-3.62,3.73,3.73,0,0,1,2.46-1.55c1.26,0,2.14,1.2,2.81,2.27q3.67,5.88,7.83,11.46a19.85,19.85,0,0,0,5.6,5.62c.84.49,1.9,1.08,1.85,2.06,0,.77-.77,1.29-1.45,1.67a28.24,28.24,0,0,1-3.94,1.84,6.21,6.21,0,0,1-7.52-1.2A30.57,30.57,0,0,1,174.06,433" style="fill:#263238"></path><path d="M174.06,433a1.52,1.52,0,0,1,.07.18l.19.52c.16.46.41,1.14.78,2a29.75,29.75,0,0,0,4,6.68,35,35,0,0,0,3.7,3.94c.72.65,1.48,1.31,2.3,1.92a6,6,0,0,0,2.83,1.24,7.32,7.32,0,0,0,3.22-.52,30.57,30.57,0,0,0,3.2-1.38c.53-.27,1.07-.55,1.57-.86a1.82,1.82,0,0,0,1-1.27,1.6,1.6,0,0,0-.84-1.35c-.48-.35-1.06-.63-1.59-1a22.2,22.2,0,0,1-5.09-5.4c-1.42-1.92-2.75-3.8-4-5.62s-2.37-3.57-3.4-5.23a8.59,8.59,0,0,0-1.68-2.19,2.2,2.2,0,0,0-1.13-.49,2,2,0,0,0-1.14.27,7.5,7.5,0,0,0-1.71,1.56,18.41,18.41,0,0,0-1.34,1.61,5.75,5.75,0,0,0-1.25,3,10.41,10.41,0,0,0,.29,2.09l.11.55c0,.12,0,.19,0,.19s0-.06-.06-.18l-.15-.54a9,9,0,0,1-.35-2.12,5.78,5.78,0,0,1,1.21-3.15,18.77,18.77,0,0,1,1.34-1.66,8.16,8.16,0,0,1,1.76-1.63,2.28,2.28,0,0,1,1.3-.31,2.47,2.47,0,0,1,1.28.54,8.52,8.52,0,0,1,1.77,2.25c1,1.65,2.18,3.39,3.42,5.2s2.58,3.68,4,5.6a22.45,22.45,0,0,0,5,5.31c.51.35,1.08.62,1.61,1a2.9,2.9,0,0,1,.71.69,1.46,1.46,0,0,1,.28,1,2.2,2.2,0,0,1-1.16,1.56c-.53.33-1.06.6-1.6.87a28.59,28.59,0,0,1-3.25,1.39,7.72,7.72,0,0,1-3.38.53,6.28,6.28,0,0,1-3-1.32,28.79,28.79,0,0,1-2.32-2,32.87,32.87,0,0,1-3.7-4,28.23,28.23,0,0,1-4-6.79,19.08,19.08,0,0,1-.71-2l-.15-.54C174.06,433,174.05,433,174.06,433Z" style="fill:#455a64"></path><path d="M220.23,393.34s-.18,0-.52.05a12,12,0,0,0-1.46.34c-1.25.36-3,1-5.24,1.75-1.09.39-2.34.83-3.61,1.23a13.53,13.53,0,0,0-3.35,2.71c-2.23,2.14-4.66,4.51-7.19,7-5.07,5-9.52,9.71-12.64,13.19-1.56,1.73-2.8,3.16-3.66,4.15l-1,1.14a2.65,2.65,0,0,1-.36.38s.09-.16.3-.43l.93-1.18c.82-1,2-2.48,3.57-4.24,3.07-3.53,7.5-8.25,12.57-13.28,2.53-2.51,5-4.87,7.22-7a13.7,13.7,0,0,1,3.46-2.75c1.35-.42,2.53-.81,3.65-1.19,2.21-.75,4-1.32,5.3-1.64a9.79,9.79,0,0,1,1.48-.28,1.31,1.31,0,0,1,.4,0Z" style="fill:#455a64"></path><path d="M153.4,429.33l-.5-.22-1.4-.69-5.13-2.61-7.58-3.91a75.26,75.26,0,0,0-9.43-4.41,26,26,0,0,0-5.22-1.22,8.32,8.32,0,0,1-2.51-.77,6.6,6.6,0,0,1-1.87-1.68A7.34,7.34,0,0,0,116,411.5a13.85,13.85,0,0,0-3.89-.43c-2.42.08-4.38.36-5.74.36-.68,0-1.21,0-1.57-.05a3,3,0,0,1-.54-.07h.55c.35,0,.88,0,1.56,0,1.35,0,3.29-.36,5.73-.48a13.39,13.39,0,0,1,4,.4,8.6,8.6,0,0,1,2.08.85,7.25,7.25,0,0,1,1.83,1.54,6.43,6.43,0,0,0,1.78,1.59,8.17,8.17,0,0,0,2.4.72,27.29,27.29,0,0,1,5.29,1.23,73.21,73.21,0,0,1,9.46,4.46l7.55,4,5.07,2.72,1.37.75A2.77,2.77,0,0,1,153.4,429.33Z" style="fill:#455a64"></path><polygon points="162.75 453.82 149.57 451.13 154.24 430.05 168.48 433.96 162.75 453.82" style="fill:#ffbf9d"></polygon><path d="M167.56,435.2l20.65,6.27,10-.8,3.29,40.74s-4.37,1-5.69-1.52-12.93-20.53-12.93-20.53l-19.4-4.55Z" style="fill:#455a64"></path><path d="M166,432.23l5.87,2.17a1.69,1.69,0,0,1,1,2L168,455.45a1.69,1.69,0,0,1-1.89,1.25l-5.45-.82a1.68,1.68,0,0,1-1.39-2.08L164.44,433A1.16,1.16,0,0,1,166,432.23Z" style="fill:#e0e0e0"></path><path d="M166,432.23a1.79,1.79,0,0,0-.62,0,1.08,1.08,0,0,0-.62.38,2.08,2.08,0,0,0-.34.95c-.38,1.57-.91,3.79-1.57,6.52s-1.47,6-2.36,9.66q-.35,1.35-.69,2.79c-.12.47-.23.94-.35,1.43a1.48,1.48,0,0,0,.35,1.25,1.56,1.56,0,0,0,.55.4,2.78,2.78,0,0,0,.7.15l1.55.23,3.16.48a3.47,3.47,0,0,0,.76.06,1.44,1.44,0,0,0,.67-.22,1.7,1.7,0,0,0,.49-.51,2.33,2.33,0,0,0,.23-.69c.27-1,.53-2,.78-3l1.47-5.69c1-3.61,1.8-6.87,2.52-9.62a2.64,2.64,0,0,0,.15-1,1.54,1.54,0,0,0-.34-.83c-.37-.48-1-.57-1.52-.8l-2.69-1-1.7-.66a3.77,3.77,0,0,1-.58-.26,4.81,4.81,0,0,1,.61.18l1.72.6,2.72,1,.82.3a1.73,1.73,0,0,1,.8.55,1.87,1.87,0,0,1,.42.95,2.92,2.92,0,0,1-.15,1.07c-.69,2.75-1.52,6-2.44,9.64-.46,1.81-.94,3.72-1.45,5.69-.25,1-.51,2-.77,3a2.59,2.59,0,0,1-.28.79,1.87,1.87,0,0,1-.61.64,1.91,1.91,0,0,1-.83.28,1.7,1.7,0,0,1-.45,0l-.4-.06-3.16-.47-1.55-.24a3.05,3.05,0,0,1-.8-.18,1.86,1.86,0,0,1-1.11-2.06c.11-.51.24-1,.35-1.45l.71-2.79c.91-3.62,1.74-6.88,2.44-9.64s1.28-4.92,1.68-6.49a2.27,2.27,0,0,1,.4-1,1.23,1.23,0,0,1,.69-.38,1,1,0,0,1,.49,0Q166,432.22,166,432.23Z" style="fill:#263238"></path><path d="M171.88,438.82a7.15,7.15,0,0,0-4-2,7.24,7.24,0,0,0-4.46.3,20.63,20.63,0,0,1,4.37.15A19.34,19.34,0,0,1,171.88,438.82Z" style="fill:#263238"></path><path d="M170.42,446a18.28,18.28,0,0,0-4.21-1.54,18.21,18.21,0,0,0-4.38-.89,31,31,0,0,0,4.27,1.31A32.41,32.41,0,0,0,170.42,446Z" style="fill:#263238"></path><path d="M168.23,453.46a15.56,15.56,0,0,1-4.37-1,15.07,15.07,0,0,1-3.63-2.64s.19.5.76,1.13a8.57,8.57,0,0,0,5.88,2.71A3.07,3.07,0,0,0,168.23,453.46Z" style="fill:#263238"></path><polygon points="194.61 440.96 199.25 481.6 201.52 481.41 198.12 440.67 194.61 440.96" style="fill:#263238"></polygon><path d="M192.63,466.09c0,.15-1,.25-2,.85s-1.63,1.37-1.76,1.28.34-1.08,1.51-1.74A2.6,2.6,0,0,1,192.63,466.09Z" style="fill:#263238"></path><path d="M189.77,460.69c0,.15-1.08.49-2.18,1.35s-1.72,1.84-1.86,1.77a3.53,3.53,0,0,1,1.55-2.18A3.45,3.45,0,0,1,189.77,460.69Z" style="fill:#263238"></path><path d="M184.37,455.46a11.47,11.47,0,0,1-.67,2.06,10.18,10.18,0,0,1-.62,2.07,3.15,3.15,0,0,1,.12-2.23C183.57,456.16,184.26,455.38,184.37,455.46Z" style="fill:#263238"></path><path d="M176,453.06a5.34,5.34,0,0,1-.06,2.29,5,5,0,0,1-.59,2.21,10.14,10.14,0,0,1,.65-4.5Z" style="fill:#263238"></path><path d="M175.55,456.76a1.93,1.93,0,0,1,.8.42,6.49,6.49,0,0,1,1.71,1.8,7.13,7.13,0,0,1,.74,1.57,2.89,2.89,0,0,1,.16,1,1,1,0,0,1-.19.58.78.78,0,0,1-.63.31,1.6,1.6,0,0,1-1-.6,6.83,6.83,0,0,1-.71-.88,7.44,7.44,0,0,1-1-2.14,7.6,7.6,0,0,1-.25-1.28l.52,0a3.58,3.58,0,0,1-.82,2,9,9,0,0,1-1.43,1.35c-.13.1-.23.19-.38.29a.71.71,0,0,1-.59.13.57.57,0,0,1-.41-.47,1.17,1.17,0,0,1,0-.5,4.16,4.16,0,0,1,.73-1.39,4.3,4.3,0,0,1,1.75-1.31,1.8,1.8,0,0,1,.78-.17,5.5,5.5,0,0,0-2.26,1.69,3.92,3.92,0,0,0-.6,1.27c-.06.23,0,.47.09.46s.34-.15.57-.35a8.17,8.17,0,0,0,1.32-1.31,3.07,3.07,0,0,0,.7-1.75l.52,0a7.34,7.34,0,0,0,.23,1.19,7.1,7.1,0,0,0,1,2,7.68,7.68,0,0,0,.65.83,1.17,1.17,0,0,0,.7.46c.2,0,.33-.17.36-.45a2.3,2.3,0,0,0-.13-.84,6.72,6.72,0,0,0-.63-1.51A9.49,9.49,0,0,0,175.55,456.76Z" style="fill:#263238"></path><path d="M187.11,448.05a1.7,1.7,0,1,1-1.69-1.69A1.7,1.7,0,0,1,187.11,448.05Z" style="fill:#f5f5f5"></path><path d="M154.33,453.35c3.78-4.94,5.32-11.3,5.59-17.52a7.7,7.7,0,0,0-.61-4.07,7.23,7.23,0,0,0-2.35-2.35,25.87,25.87,0,0,0-4.48-2.5,1.68,1.68,0,0,0-1.44-.14c-.51.29-.59,1-.61,1.57A58.58,58.58,0,0,1,145.26,450a2.08,2.08,0,0,0,1.61,2.92l3.57.47A12.81,12.81,0,0,0,154.33,453.35Z" style="fill:#263238"></path><path d="M154.33,453.35l-.18,0-.51.08a12.72,12.72,0,0,1-2,.06c-.87,0-1.91-.2-3.13-.34-.62-.09-1.25-.13-2-.27a2.16,2.16,0,0,1-1.54-1.61,2.12,2.12,0,0,1,.07-1.24c.15-.4.32-.76.49-1.15.32-.77.65-1.58,1-2.43a57.65,57.65,0,0,0,1.76-5.51,60.52,60.52,0,0,0,2-13.1,2.15,2.15,0,0,1,.29-.92,1.12,1.12,0,0,1,.88-.5,4.29,4.29,0,0,1,1.73.54,26.85,26.85,0,0,1,3,1.64,12.77,12.77,0,0,1,2.61,2.05,5,5,0,0,1,1.28,2.92,16.92,16.92,0,0,1,0,3c-.06,1-.16,1.91-.28,2.81a35.69,35.69,0,0,1-1,5,26.54,26.54,0,0,1-2.87,6.74,17.5,17.5,0,0,1-1.13,1.65l-.32.41-.11.13s0-.06.09-.16l.29-.43c.25-.36.62-.93,1-1.68a27.49,27.49,0,0,0,2.74-6.73,37.33,37.33,0,0,0,1-4.94c.11-.9.2-1.83.25-2.79a15.31,15.31,0,0,0,0-2.95,4.65,4.65,0,0,0-1.2-2.73,12.56,12.56,0,0,0-2.54-2,26.09,26.09,0,0,0-3-1.61,3.87,3.87,0,0,0-1.55-.51c-.51,0-.77.53-.81,1.08a59.5,59.5,0,0,1-2,13.15c-.54,2-1.15,3.83-1.8,5.53-.33.85-.67,1.66-1,2.44-.17.38-.36.77-.5,1.13a1.9,1.9,0,0,0-.07,1.08,1.92,1.92,0,0,0,1.35,1.44c.65.13,1.33.2,1.93.29,1.21.16,2.26.35,3.11.4a14.52,14.52,0,0,0,2,0l.52,0C154.27,453.35,154.32,453.34,154.33,453.35Z" style="fill:#455a64"></path><path d="M152.22,426.17c-.09.05-.72-1.1-1.93-2.8A32.2,32.2,0,0,0,137.91,413c-1.89-.89-3.12-1.3-3.09-1.4a3.62,3.62,0,0,1,.9.19,20.93,20.93,0,0,1,2.36.84,28.42,28.42,0,0,1,7,4.31,27.74,27.74,0,0,1,5.49,6.17,18.44,18.44,0,0,1,1.25,2.17A3,3,0,0,1,152.22,426.17Z" style="fill:#455a64"></path><path d="M187.5,409.58a19.78,19.78,0,0,1-1.91,2.24c-1.19,1.36-2.79,3.28-4.4,5.52s-2.91,4.37-3.81,5.94a18.3,18.3,0,0,1-1.51,2.52,12.9,12.9,0,0,1,1.15-2.72,48.43,48.43,0,0,1,3.7-6.08,47.08,47.08,0,0,1,4.58-5.46A12.56,12.56,0,0,1,187.5,409.58Z" style="fill:#455a64"></path><path d="M108.6,351.87c-.12-.64,2.52-17.19,7.38-28.59,1.77-4.17,3.07-7.08,4.88-8.88a22.4,22.4,0,0,1,6.06-4.16l22.92-5.17s-1.58,8.09,13.42,7.11c11.18-.72,13.1-8.87,13.1-8.87s22.15,2.49,27.52,7.41,10.54,33.6,10.54,33.6l-20.83,6.06-2.48,30.36L198,395.83s-20.82,15.68-35.11,14.94-39.25-9-39.25-9l9.15-19.25L127,353.88Z" style="fill:#FF725E"></path><path d="M121.2,329a4.76,4.76,0,0,1,.25,1c.15.74.34,1.67.56,2.8.47,2.35,1.15,5.61,2,9.18s1.67,6.79,2.3,9.11c.29,1.11.54,2,.73,2.76a6.32,6.32,0,0,1,.23,1,4.91,4.91,0,0,1-.38-1c-.22-.63-.51-1.56-.86-2.72-.69-2.3-1.57-5.52-2.41-9.1s-1.47-6.85-1.87-9.22c-.2-1.19-.34-2.15-.43-2.82A6.14,6.14,0,0,1,121.2,329Z" style="fill:#263238"></path><path d="M195.18,323.89c.42-.05.22,6.15-.27,13.7-.24,3.79-.5,7.21-.72,9.69-.11,1.17-.2,2.16-.27,2.93a5.74,5.74,0,0,1-.16,1.07,5.13,5.13,0,0,1,0-1.09c0-.77.09-1.75.15-2.93.16-2.56.37-5.95.61-9.69s.43-7.13.59-9.69A23.52,23.52,0,0,0,195.18,323.89Z" style="fill:#263238"></path><path d="M178.23,379.65a8.08,8.08,0,0,1-1.21.58c-.39.18-.87.39-1.44.61s-1.22.48-2,.72a52.86,52.86,0,0,1-5.2,1.48,55.55,55.55,0,0,1-6.54,1.06,56.47,56.47,0,0,1-6.62.24,53.88,53.88,0,0,1-5.39-.44c-.76-.09-1.44-.23-2-.33s-1.11-.21-1.53-.31a11,11,0,0,1-1.3-.33,8.32,8.32,0,0,1,1.33.18c.42.08.93.17,1.54.24s1.29.2,2,.27c1.52.18,3.34.3,5.36.35a63.18,63.18,0,0,0,6.57-.26,62,62,0,0,0,6.5-1c2-.44,3.73-.92,5.19-1.39.73-.22,1.38-.47,2-.66s1.07-.38,1.46-.54A8.76,8.76,0,0,1,178.23,379.65Z" style="fill:#263238"></path><path d="M168.71,310.76l2.59,31.53a2,2,0,0,1-1.76,2.13l-19.45,2.07a2,2,0,0,1-2.17-1.74l-3.81-32.94a2,2,0,0,1,1.9-2.2l20.67-.66A2,2,0,0,1,168.71,310.76Z" style="fill:#263238"></path><path d="M159.83,327.55c.53,0,12,2.09,12,2.09l15.06,8.63,8.11,12.2-7.91,14.77-4-11.93a56.08,56.08,0,0,1-7.06-.15c-3.51-.34-14.63-1.19-14.63-1.19l-5.74-3.18s-1.84-3-1.84-3.85a1.31,1.31,0,0,1,2-1.17c1.17.67,9.2.84,11.2,0,0,0-11.7-.84-13.21-2.76s-1-3.43.84-3.43,8.53,1,10.53.84,4.52-.17,5-1.17-1-1.84-1-1.84L167,333.74s-8.53-1.51-9-3.35A2.13,2.13,0,0,1,159.83,327.55Z" style="fill:#ffbf9d"></path><path d="M155.92,327s-9.78,1.58-10.4,2.2-12.93,15.71-12.93,15.71l6.28,12.36,11-6a17.65,17.65,0,0,1,3.5-1.14s11.12-1.75,11.84-3.09.31-1.64-.52-1.85-7.47.55-9,.83a22.66,22.66,0,0,1-4.42,0s4.61-1.08,5.66-1.45,11.39-2.67,11.22-4.53-1.45-2.52-7.93-.77A46.23,46.23,0,0,1,149.37,341l14.31-5s5.77-1.86,3.91-3.5-14.2,1.75-14.2,1.75l-5.46,2.06,1.54-3.3s7.76-2.3,8.76-3.08c1.23-1,1.4-1.85.48-2.64S155.92,327,155.92,327Z" style="fill:#ffbf9d"></path><path d="M109.69,352l16.68,1.71,2.35-3,3.87-5.8,6.28,12.36s-2.28,7.34-3.5,11.39c-3.28,10.87-8.62,23-15.18,22.41-7.87-.73-13.63-10.06-13.5-16.1C106.81,369.43,109.69,352,109.69,352Z" style="fill:#ffbf9d"></path><path d="M212.56,345l-13.88,3.53-4.24.92-3.87-5.8L184.29,356s2.28,7.34,3.5,11.4c3.28,10.86,8.62,23,15.18,22.41,7.87-.74,13.63-10.07,13.49-16.11C216.35,368.21,212.56,345,212.56,345Z" style="fill:#ffbf9d"></path><path d="M132.59,344.87s.1-.15.33-.44.57-.71,1-1.26l3.89-4.82,6.17-7.56.93-1.11.49-.57a2,2,0,0,1,.73-.35c1-.29,2-.51,3.06-.73,2.12-.43,4.35-.83,6.71-1.22h0a5.22,5.22,0,0,1,1.81-.08,2.24,2.24,0,0,1,.91.31,2.2,2.2,0,0,1,.68.71,1.3,1.3,0,0,1,.1,1,2.33,2.33,0,0,1-.54.85,3.44,3.44,0,0,1-.78.62,7.91,7.91,0,0,1-.89.41c-2.41,1-5,1.74-7.66,2.55l.11-.09c-.47,1-1,2.15-1.54,3.29l-.22-.24,5.45-2.07h0c2.34-.63,4.75-1.2,7.24-1.66a36,36,0,0,1,3.81-.51,11.77,11.77,0,0,1,2,0,3.31,3.31,0,0,1,1,.24,1.34,1.34,0,0,1,.76.82,1.2,1.2,0,0,1-.33,1.08,3.9,3.9,0,0,1-.8.67,12.15,12.15,0,0,1-1.79.93c-1.25.53-2.53.91-3.8,1.37l-7.75,2.71-4.21,1.47-.07-.39a47.67,47.67,0,0,0,10.11-1.55,44.34,44.34,0,0,1,4.9-1.1,7.3,7.3,0,0,1,2.51,0,1.84,1.84,0,0,1,1.13.68,2.3,2.3,0,0,1,.38,1.26,1,1,0,0,1-.32.65,3.13,3.13,0,0,1-.49.41,7.44,7.44,0,0,1-1.07.59,20.74,20.74,0,0,1-2.21.88c-1.48.52-3,.94-4.43,1.34l-2.18.58c-.71.19-1.42.44-2.14.6-1.42.37-2.82.7-4.19,1l0-.34a18.54,18.54,0,0,0,4.83-.06c1.59-.23,3.13-.4,4.64-.55.76-.07,1.51-.14,2.25-.18.37,0,.74,0,1.11-.05.19,0,.37,0,.58,0a2.37,2.37,0,0,1,.54.2.78.78,0,0,1,.42.48,1.1,1.1,0,0,1,0,.6,2.67,2.67,0,0,1-.2.52l-.12.24a.66.66,0,0,1-.2.24,6.45,6.45,0,0,1-1.92.87,69.61,69.61,0,0,1-7.42,1.65l-1.7.29a11.62,11.62,0,0,0-1.6.33,11.81,11.81,0,0,0-2.86,1l-8,4.26-2.11,1.11-.54.28-.19.09.17-.11.53-.31,2.09-1.15,7.92-4.35a19.56,19.56,0,0,1,6.21-1.72,68.93,68.93,0,0,0,7.37-1.69,6.13,6.13,0,0,0,1.82-.81.51.51,0,0,0,.13-.16l.12-.22a3.36,3.36,0,0,0,.17-.47c.1-.33,0-.61-.25-.75a2.16,2.16,0,0,0-.47-.16,2.74,2.74,0,0,0-.51,0c-.36,0-.72,0-1.09.05-.74,0-1.48.11-2.23.19-1.51.15-3.06.33-4.63.56a18.73,18.73,0,0,1-4.91.08.18.18,0,0,1-.16-.19.17.17,0,0,1,.13-.15h0c1.37-.33,2.77-.66,4.18-1,.72-.17,1.4-.41,2.13-.61l2.18-.58c1.46-.4,2.94-.83,4.41-1.34a21.35,21.35,0,0,0,2.17-.87,7.82,7.82,0,0,0,1-.57c.29-.2.64-.49.64-.75a2,2,0,0,0-.31-1,1.49,1.49,0,0,0-.91-.54,7,7,0,0,0-2.37,0,45,45,0,0,0-4.85,1.09,48.22,48.22,0,0,1-10.21,1.57.19.19,0,0,1-.2-.19.18.18,0,0,1,.13-.19h0l4.22-1.47,7.75-2.7c1.27-.46,2.56-.85,3.77-1.36a10.88,10.88,0,0,0,1.73-.9,3.89,3.89,0,0,0,.72-.6.8.8,0,0,0,.25-.72c-.16-.52-.8-.72-1.42-.77a12.18,12.18,0,0,0-1.91,0,35.79,35.79,0,0,0-3.76.51c-2.48.45-4.89,1-7.21,1.64h0L148,336.49a.18.18,0,0,1-.23-.1.17.17,0,0,1,0-.14c.53-1.15,1.06-2.27,1.54-3.29a.26.26,0,0,1,.11-.1c2.66-.8,5.25-1.59,7.64-2.52.29-.12.59-.24.85-.38a3.18,3.18,0,0,0,.7-.57,1.22,1.22,0,0,0,.4-1.48,1.78,1.78,0,0,0-1.36-.88,4.79,4.79,0,0,0-1.69.08h0c-2.35.38-4.59.77-6.7,1.19-1.05.21-2.08.42-3,.71a2,2,0,0,0-.63.27l-.48.56c-.31.37-.63.74-.93,1.11l-6.23,7.51c-1.71,2.06-3,3.66-3.95,4.77l-1,1.23C132.72,344.74,132.59,344.87,132.59,344.87Z" style="fill:#ff9a6c"></path><path d="M133.6,344.47c.11.09-4.49,6.24-10.27,13.75s-10.56,13.52-10.67,13.44,4.49-6.24,10.27-13.75S133.49,344.39,133.6,344.47Z" style="fill:#ff9a6c"></path><path d="M209.23,371.66c-.08,0-.66-1.4-1.86-3.57A72.3,72.3,0,0,0,202,360c-2.27-3-4.43-5.71-5.92-7.71-.76-1-1.34-1.81-1.73-2.39a4.28,4.28,0,0,1-.56-.93,4.62,4.62,0,0,1,.72.81c.5.63,1.12,1.39,1.85,2.29,1.56,1.93,3.77,4.57,6,7.63a57.85,57.85,0,0,1,5.24,8.21,25.33,25.33,0,0,1,1.21,2.7A3.71,3.71,0,0,1,209.23,371.66Z" style="fill:#ff9a6c"></path></g></svg>
