<svg xmlns="http://www.w3.org/2000/svg" viewBox="0 0 454.31 440.97"><defs><style>.cls-1,.cls-4,.cls-5,.cls-8,.cls-9{fill:#fff;}.cls-1,.cls-2,.cls-3,.cls-4,.cls-9{stroke:#000;}.cls-1,.cls-2,.cls-3,.cls-7{stroke-linecap:round;stroke-linejoin:round;stroke-width:2.5px;}.cls-2,.cls-6,.cls-7{fill:none;}.cls-4,.cls-8,.cls-9{stroke-miterlimit:10;}.cls-7{stroke:#263238;}.cls-8{stroke:#fff;}.cls-9{stroke-width:3px;}</style></defs><g id="Shadows"><ellipse class="cls-1" cx="146.19" cy="423.25" rx="130.61" ry="16.47"/></g><g id="Floor"><line class="cls-2" x1="1.25" y1="368.02" x2="453.06" y2="368.02"/></g><g id="Gears"><path class="cls-3" d="M463.12,348.15v-9.24H457a21.43,21.43,0,0,0-2.9-7l4.3-4.3-6.53-6.53-4.3,4.3a21.43,21.43,0,0,0-7-2.9V316.4h-9.24v6.08a21.43,21.43,0,0,0-7,2.9l-4.3-4.3-6.53,6.53,4.3,4.3a21.43,21.43,0,0,0-2.9,7h-6.08v9.24h6.08a21.43,21.43,0,0,0,2.9,7l-4.3,4.3,6.53,6.53,4.3-4.3a21.43,21.43,0,0,0,7,2.9v6.08h9.24v-6.08a21.43,21.43,0,0,0,7-2.9l4.3,4.3,6.53-6.53-4.3-4.3a21.43,21.43,0,0,0,2.9-7Zm-27.13,5a9.64,9.64,0,1,1,9.64-9.64A9.64,9.64,0,0,1,436,353.17Z" transform="translate(-22.85 -34.04)"/><path class="cls-3" d="M109.45,106.5V95.3h-7.37a26,26,0,0,0-3.52-8.49l5.22-5.22-7.93-7.92-5.21,5.21a26,26,0,0,0-8.49-3.52V68H71v7.37a26,26,0,0,0-8.49,3.52l-5.22-5.21-7.92,7.92,5.21,5.22A26,26,0,0,0,51,95.3H43.64v11.2H51A26,26,0,0,0,54.53,115l-5.21,5.21,7.92,7.93,5.22-5.22A25.79,25.79,0,0,0,71,126.43v7.37h11.2v-7.37a25.79,25.79,0,0,0,8.49-3.52l5.21,5.22,7.93-7.93L98.56,115a26,26,0,0,0,3.52-8.49Zm-32.9,6.09A11.7,11.7,0,1,1,88.24,100.9,11.69,11.69,0,0,1,76.55,112.59Z" transform="translate(-22.85 -34.04)"/></g><g id="Color_palete" data-name="Color palete"><rect class="cls-1" x="270.61" y="245.54" width="25.73" height="25.73"/><rect class="cls-1" x="303.68" y="245.54" width="25.73" height="25.73"/><rect class="cls-1" x="336.74" y="245.54" width="25.73" height="25.73"/><rect class="cls-1" x="369.81" y="245.54" width="25.73" height="25.73"/></g><g id="Tab"><rect class="cls-1" x="103.97" y="1.25" width="324.55" height="217.82" rx="7.97"/><rect class="cls-1" x="123.18" y="65.27" width="192.36" height="76.34"/><path class="cls-1" d="M451.37,54.05V43.27a8,8,0,0,0-8-8H134.79a8,8,0,0,0-8,8V54.05Z" transform="translate(-22.85 -34.04)"/><path class="cls-1" d="M126.82,239.67v5.47a8,8,0,0,0,8,8h308.6a8,8,0,0,0,8-8v-5.47Z" transform="translate(-22.85 -34.04)"/><rect class="cls-1" x="363.04" y="103.26" width="71.15" height="43.06"/><polygon class="cls-3" points="404.08 125.37 393.14 131.46 393.14 118.11 404.08 125.37"/><rect class="cls-2" x="356.1" y="97.25" width="85.22" height="55.07"/><rect class="cls-1" x="353.82" y="94.97" width="4.55" height="4.55"/><rect class="cls-1" x="353.82" y="150.04" width="4.55" height="4.55"/><rect class="cls-1" x="439.04" y="94.97" width="4.55" height="4.55"/><rect class="cls-1" x="439.04" y="150.07" width="4.55" height="4.55"/><rect class="cls-1" x="267.57" y="189.61" width="140.78" height="40.27"/><line class="cls-1" x1="267.57" y1="189.61" x2="408.36" y2="229.88"/><line class="cls-1" x1="408.36" y1="189.61" x2="267.57" y2="229.88"/><line class="cls-2" x1="333.07" y1="47.74" x2="410.39" y2="47.74"/><line class="cls-2" x1="333.07" y1="57.3" x2="410.39" y2="57.3"/><line class="cls-2" x1="333.07" y1="38.88" x2="359.19" y2="38.88"/><line class="cls-2" x1="333.07" y1="66.85" x2="410.39" y2="66.85"/><line class="cls-2" x1="333.07" y1="76.41" x2="410.39" y2="76.41"/><line class="cls-2" x1="333.07" y1="85.96" x2="410.39" y2="85.96"/><line class="cls-2" x1="333.07" y1="163.63" x2="410.39" y2="163.63"/><line class="cls-2" x1="333.07" y1="173.19" x2="410.39" y2="173.19"/><line class="cls-2" x1="333.07" y1="182.74" x2="410.39" y2="182.74"/><circle class="cls-2" cx="381.65" cy="10.63" r="2.62"/><circle class="cls-2" cx="396.08" cy="10.63" r="2.62"/><circle class="cls-2" cx="410.52" cy="10.63" r="2.62"/><rect class="cls-3" x="123.18" y="38.88" width="192.36" height="8.86"/></g><g id="Speech_bubble" data-name="Speech bubble"><path class="cls-1" d="M288.59,166.48H226a5.26,5.26,0,0,0-5.26,5.26V196.1a7.22,7.22,0,0,0,2.9,5.79l-6.57,8.05a1.41,1.41,0,0,0,1.6,2.21l22.85-8.8h47.06a5.27,5.27,0,0,0,5.27-5.27V171.74A5.26,5.26,0,0,0,288.59,166.48Z" transform="translate(-22.85 -34.04)"/><path d="M249.73,178.58a.84.84,0,0,0-.84,0l-10.43,5.37a.86.86,0,0,0-.47.77v1.21a.84.84,0,0,0,.47.76L248.89,192a.76.76,0,0,0,.39.1.84.84,0,0,0,.45-.13.86.86,0,0,0,.41-.73v-1.55a.85.85,0,0,0-.48-.77l-7.3-3.66,7.3-3.66a.84.84,0,0,0,.48-.77v-1.55A.87.87,0,0,0,249.73,178.58Z" transform="translate(-22.85 -34.04)"/><path d="M261.69,175h-1.53a.85.85,0,0,0-.8.55l-6.27,16.29a.88.88,0,0,0,.1.8.85.85,0,0,0,.7.37h1.51a.87.87,0,0,0,.8-.55l6.29-16.3a.83.83,0,0,0-.09-.79A.86.86,0,0,0,261.69,175Z" transform="translate(-22.85 -34.04)"/><path d="M277.18,183.9l-10.43-5.35a.86.86,0,0,0-1.25.76v1.55a.86.86,0,0,0,.48.77l7.35,3.66L266,189a.87.87,0,0,0-.48.77v1.55a.86.86,0,0,0,.41.73.81.81,0,0,0,.45.13.78.78,0,0,0,.39-.1l10.43-5.34a.87.87,0,0,0,.47-.77v-1.26A.86.86,0,0,0,277.18,183.9Z" transform="translate(-22.85 -34.04)"/></g><g id="Character"><rect class="cls-1" x="42.23" y="338.62" width="158.55" height="12.38"/><rect class="cls-1" x="59.72" y="412.53" width="68.17" height="13.2" transform="translate(490.08 291.28) rotate(90)"/><rect class="cls-1" x="161.05" y="412.53" width="68.17" height="13.2" transform="translate(591.42 189.95) rotate(90)"/><path class="cls-4" d="M130.15,434a6.2,6.2,0,0,1,1.12,2.36c.14,2.62,2.21,12.38,2.21,12.38h37.85s.55-5.89,1.37-14.74Z" transform="translate(-22.85 -34.04)"/><path class="cls-2" d="M130.15,434a10.69,10.69,0,0,1,1.12,2.36,119.52,119.52,0,0,1,2.21,12.38h37.85s.55-5.89,1.37-14.74Z" transform="translate(-22.85 -34.04)"/><polygon class="cls-1" points="110.63 414.73 148.48 414.73 178 431.77 108.56 431.77 110.63 414.73"/><path class="cls-5" d="M206.41,434a6.2,6.2,0,0,1,1.12,2.36c.13,2.62,2.21,12.38,2.21,12.38h37.85s.55-5.89,1.36-14.74Z" transform="translate(-22.85 -34.04)"/><path class="cls-1" d="M206.41,434a10.69,10.69,0,0,1,1.12,2.36,119.52,119.52,0,0,1,2.21,12.38h37.85s.55-5.89,1.36-14.74Z" transform="translate(-22.85 -34.04)"/><polygon class="cls-1" points="186.89 414.73 224.74 414.73 254.26 431.77 184.82 431.77 186.89 414.73"/><path class="cls-4" d="M262.27,351.93,259,438.19l-7.18-1.65a31.07,31.07,0,0,0-20.12,2.14h0a31.08,31.08,0,0,1-20.41,2.07l-10.67-2.56-2.52-14.45a84.17,84.17,0,0,1,3.69-42.82H126.35c-25.72,0-46.58-31.07-46.58-56.8l95.11,7.37,65.18-1.95A21.59,21.59,0,0,1,262.27,351.93Z" transform="translate(-22.85 -34.04)"/><path class="cls-5" d="M262.27,351.93,259,438.19l-10.24-2.36L252,352.05c.43-11.48-4.78-21.2-15.87-22.4l4-.11A21.59,21.59,0,0,1,262.27,351.93Z" transform="translate(-22.85 -34.04)"/><path class="cls-2" d="M262.27,351.93,259,438.19l-7.18-1.65a31.07,31.07,0,0,0-20.12,2.14h0a31.08,31.08,0,0,1-20.41,2.07l-10.67-2.56-2.52-14.45a84.17,84.17,0,0,1,3.69-42.82H126.35c-25.72,0-46.58-31.07-46.58-56.8l95.11,7.37,65.18-1.95A21.59,21.59,0,0,1,262.27,351.93Z" transform="translate(-22.85 -34.04)"/><path class="cls-4" d="M187.48,351.93l-1.09,29-2.14,57.27-.24-.07a42.45,42.45,0,0,0-25.69.87h0a42.43,42.43,0,0,1-24.49,1.19l-8-2-2.81-17a77.85,77.85,0,0,1,4-40.3h-.68c-25.72,0-46.69-29.21-46.69-54.94l95.22,5.51A21.57,21.57,0,0,1,187.48,351.93Z" transform="translate(-22.85 -34.04)"/><path class="cls-5" d="M187.48,351.93l-1.08,29-2.15,57.27-.24-.07a42.77,42.77,0,0,0-9.23-1.52l2.09-55.68,1.08-29a21.58,21.58,0,0,0-12-20.18l9-.26A21.57,21.57,0,0,1,187.48,351.93Z" transform="translate(-22.85 -34.04)"/><path class="cls-2" d="M187.48,351.93l-1.09,29-2.14,57.27-.24-.07a42.45,42.45,0,0,0-25.69.87h0a42.43,42.43,0,0,1-24.49,1.19l-8-2-2.81-17a77.85,77.85,0,0,1,4-40.3h-.68c-25.72,0-46.58-31.07-46.58-56.8l95.11,7.37A21.57,21.57,0,0,1,187.48,351.93Z" transform="translate(-22.85 -34.04)"/><path class="cls-6" d="M186.31,284.94c.8,2.42,1.71,4.95,2.74,7.51A43.72,43.72,0,0,1,186.31,284.94Z" transform="translate(-22.85 -34.04)"/><path class="cls-6" d="M197.78,308.79h0c.38.52.77,1,1.16,1.53A10.11,10.11,0,0,1,197.78,308.79Z" transform="translate(-22.85 -34.04)"/><path class="cls-1" d="M223.63,261.42l-2.35-.26c-1.48-.17-3-.37-4.4-.51-3.45-.31-5.3.28-9.4,2.12,0,0-9.86,4.38-14.1,4.45l-11.59.2a136,136,0,0,0,4.53,17.52,43.46,43.46,0,0,0,2.73,7.51,77,77,0,0,0,8.73,16.34,10.71,10.71,0,0,0,1.16,1.52,40.13,40.13,0,0,0,3.21,3.64l3.94,15.58-105.24,0-.08,0c-2,0-4,0-5.8,0s-3.68-.06-5.26-.13l-1.51-.09c-1-.06-1.84-.13-2.61-.22-7.37-.84-13.09-1.71-17.55-2.67l-.66-.15c-19-4.47-14.63-15.07-15.17-25.19-.07-1.25-.08-2.77,0-4.48.08-2.88.31-6.28.61-9.76l-.26.13,1.67-7.23c0-.38.07-.58.07-.58s-4.19-1.13-3.89-3.29c.55-3.91,4-19.34,4.61-22,.73-3.36,1.55-34.7,27.4-39.16,9.8-1.68,32.95-7.15,48-10.79,6.82-1.65,17.85-1.56,17.85-1.56s28.39,4,32.17,4.87a44.62,44.62,0,0,1,12.95,5.34c9.26,5.57,12.88,14.9,17.55,24.07C215.23,245,222.2,251.72,223.63,261.42Z" transform="translate(-22.85 -34.04)"/><path class="cls-5" d="M183.48,234.88c4.68-2.33,4.39,22.68,4.39,22.68a4.58,4.58,0,0,0-5.14,2.48c-1.53,3.33-.93.31,0-5.74S181.65,235.8,183.48,234.88Z" transform="translate(-22.85 -34.04)"/><path class="cls-2" d="M223.63,261.42l-2.35-.26c-1.48-.17-3-.37-4.4-.51-3.45-.31-5.3.28-9.4,2.12,0,0-9.86,4.38-14.1,4.45l-11.59.2a136,136,0,0,0,4.53,17.52,43.46,43.46,0,0,0,2.73,7.51,77,77,0,0,0,8.73,16.34,10.71,10.71,0,0,0,1.16,1.52,40.13,40.13,0,0,0,3.21,3.64l3.94,15.58-105.24,0-.08,0c-2,0-4,0-5.8,0s-3.68-.06-5.26-.13l-1.51-.09c-1-.06-1.84-.13-2.61-.22-7.37-.84-13.09-1.71-17.55-2.67l-.66-.15c-19-4.47-14.63-15.07-15.17-25.19-.07-1.25-.08-2.77,0-4.48.08-2.88.31-6.28.61-9.76l-.26.13,1.67-7.23c0-.38.07-.58.07-.58s-4.19-1.13-3.89-3.29c.55-3.91,4-19.34,4.61-22,.73-3.36,1.55-34.7,27.4-39.16,9.8-1.68,32.95-7.15,48-10.79,6.82-1.65,17.85-1.56,17.85-1.56s28.39,4,32.17,4.87a44.62,44.62,0,0,1,12.95,5.34c6.1,3.67,10.62,9.35,14,15.83,3.87,7.46,8.06,14.33,12.1,21.63A37.51,37.51,0,0,1,223.63,261.42Z" transform="translate(-22.85 -34.04)"/><path class="cls-7" d="M181.8,267.41c0-4.43,7.85-6.88,9.8-6.88" transform="translate(-22.85 -34.04)"/><path class="cls-2" d="M109.61,249.31c-1,3.4-1,10.74-1.86,28.48L94.1,280.22" transform="translate(-22.85 -34.04)"/><path class="cls-7" d="M186.31,237.24c1,1.44,2.52,21.21,2.88,19.47" transform="translate(-22.85 -34.04)"/><path class="cls-5" d="M180,301.13h0c-2.86,1.28-7.17,1.25-9.5,1.13h0c-1-.07-1.62-.14-1.62-.14a2,2,0,0,1,0,.42,4.1,4.1,0,0,1-3,3.94c-2.11.69-4.16-.66-5.44-1.82a11.8,11.8,0,0,1-1.29-1.39s0,.68-.09,1.82c-.3,4.26-1.72,14.91-8.41,19.61a14.87,14.87,0,0,1-1.87,1.11c-4.18,2.15-9.85,3-15.54,3.2,0,0,0,0,0,0-7.66,0-20.09.37-30.78.45h-1.63c-2,0-4,0-5.79,0h0c-1.9,0-3.68-.07-5.25-.13h0l-1.51-.09c-1-.06-1.84-.13-2.61-.22-7.37-.84-13.09-1.71-17.55-2.67l-.66-.15c-14.8-3.35-14.95-8-15.48-16.95-.16-3,0-7.65.29-12.72.59-10,1.75-14.15,2-16.86,0-.38.07-.58.07-.58h0l1.65.38c1.64.37,3.29.68,4.94,1a95.23,95.23,0,0,0,30.56.16l9.61-1.5c.07,0-1.27,10.26-1.27,10.26l36.13,2.16s4.83-5.44,9.47-4.43a15.33,15.33,0,0,1,2.85.78c.28-.57,1.24-1.71,4.49-2.73,4.14-1.32,5.79.31,5.79.31a10.44,10.44,0,0,1,6.32-3.27c3.86-.28,17.28,7.67,17.93,14.66C183,299,181.76,300.32,180,301.13Z" transform="translate(-22.85 -34.04)"/><path class="cls-5" d="M175.57,302.13v0l.19,0Z" transform="translate(-22.85 -34.04)"/><path class="cls-5" d="M98.17,280.63l2.83-.44c0-.67.06-1.06,0-1.06l-9.61,1.5a95.15,95.15,0,0,1-11.78,1.08A95.65,95.65,0,0,0,98.17,280.63Z" transform="translate(-22.85 -34.04)"/><path class="cls-2" d="M180,301.13h0c-2.86,1.28-7.17,1.25-9.5,1.13h0c-1-.07-1.62-.14-1.62-.14a2,2,0,0,1,0,.42,4.1,4.1,0,0,1-3,3.94c-2.11.69-4.16-.66-5.44-1.82a11.8,11.8,0,0,1-1.29-1.39s0,.68-.09,1.82c-.3,4.26-1.72,14.91-8.41,19.61a14.87,14.87,0,0,1-1.87,1.11c-4.18,2.15-9.85,3-15.54,3.2,0,0,0,0,0,0-7.66,0-20.09.37-30.78.45h-1.63c-2,0-4,0-5.79,0h0c-1.9,0-3.68-.07-5.25-.13h0l-1.51-.09c-1-.06-1.84-.13-2.61-.22-7.37-.84-13.09-1.71-17.55-2.67l-.66-.15c-14.8-3.35-14.95-8-15.48-16.95-.16-3,0-7.65.29-12.72.59-10,1.75-14.15,2-16.86,0-.38.07-.58.07-.58h0l1.65.38c1.64.37,3.29.68,4.94,1a95.23,95.23,0,0,0,30.56.16l9.61-1.5c.07,0-1.27,10.26-1.27,10.26l36.13,2.16s4.83-5.44,9.47-4.43a15.33,15.33,0,0,1,2.85.78c.28-.57,1.24-1.71,4.49-2.73,4.14-1.32,5.79.31,5.79.31a10.44,10.44,0,0,1,6.32-3.27c3.86-.28,17.28,7.67,17.93,14.66C183,299,181.76,300.32,180,301.13Z" transform="translate(-22.85 -34.04)"/><path class="cls-2" d="M168.85,302.13s.13-7.46-10.34-16.65" transform="translate(-22.85 -34.04)"/><path class="cls-2" d="M159.09,303.28s-1.92-7.76-11-15" transform="translate(-22.85 -34.04)"/><path class="cls-2" d="M157.63,299.67l1.43,4.55c1.11,3.52-3.93,9.58-13-1l-4.45-4.31" transform="translate(-22.85 -34.04)"/><path class="cls-2" d="M154.73,308.78c-7.15-8.37.3-13,0-13" transform="translate(-22.85 -34.04)"/><line class="cls-2" x1="94.46" y1="256.39" x2="65.87" y2="256.39"/><path class="cls-1" d="M160.77,324.23l94.56.72,20.8-59a6.46,6.46,0,0,0-6.05-8.61l-80.89-.62a6.45,6.45,0,0,0-6.14,4.32Z" transform="translate(-22.85 -34.04)"/><path d="M218,293.33a4,4,0,1,0,4-4A4,4,0,0,0,218,293.33Z" transform="translate(-22.85 -34.04)"/><path class="cls-1" d="M145.8,331.05l106,.81a3.46,3.46,0,0,0,3.49-3.44h0a3.45,3.45,0,0,0-3.43-3.49l-106-.81a3.48,3.48,0,0,0-3.5,3.44h0A3.47,3.47,0,0,0,145.8,331.05Z" transform="translate(-22.85 -34.04)"/><path class="cls-2" d="M97.36,216.8a17.6,17.6,0,0,0-15-2.13" transform="translate(-22.85 -34.04)"/><path class="cls-1" d="M114.72,249.87c0,3.63-5.27,10.31-5.27,10.31" transform="translate(-22.85 -34.04)"/><path class="cls-2" d="M199,390.83c1.84-6,3.48-13.1,7.46-18.17" transform="translate(-22.85 -34.04)"/><path class="cls-2" d="M123.67,392.42c1.51-6.46,3.59-14.32,9.07-18.63" transform="translate(-22.85 -34.04)"/><path class="cls-2" d="M102.11,339.29c12.24,17.2,35,15.75,41.1,18.08s-3.82,2.21-3.8,4.46,5.16.48,5.8,2.38-13.11,21.73-5.8,67.2" transform="translate(-22.85 -34.04)"/><path class="cls-3" d="M139.37,216.87a31.51,31.51,0,0,0,3.09,1.17c6.09,2,10.46,1.26,10.23-1.95-.28-3.74-6.7-9.46-14.34-12.77-4.48-1.94-8.39-2.63-10.79-2.1-1.69.37-2.64,1.34-2.52,2.88C125.31,207.84,131.74,213.56,139.37,216.87Z" transform="translate(-22.85 -34.04)"/><path class="cls-8" d="M155.6,197.27c-.19.5-.4,1-.62,1.49h0a21.45,21.45,0,0,1-1.12,2.12c-.13.22-.27.45-.43.67a19.45,19.45,0,0,1-5.31,5.49c-.26.19-.53.36-.8.53s-.54.32-.83.48l-.5.29-.55.24c-.21.11-.42.2-.64.29l-.28.1q-.39.15-.78.27a15.9,15.9,0,0,1-3.26.72c-.36.05-.72.07-1.11.09a10.52,10.52,0,0,1-1.13,0h0l-.45,0a3,3,0,0,1-.39,0,7.36,7.36,0,0,1-1.25-.14.36.36,0,0,1-.18,0l-.09,0h-.15a16.44,16.44,0,0,1-4-1.3,14.46,14.46,0,0,1-2.16-1.23,14.9,14.9,0,0,1-2.3-1.81h0c-.42-.39-.8-.8-1.19-1.24s-.62-.69-.92-1.08l-.19-.3a14.28,14.28,0,0,1-1-1.42c-.36-.57-.7-1.21-1-1.83-.08-.18-.16-.35-.22-.53a14.78,14.78,0,0,1-.89-2.21l-.1-.28a21.46,21.46,0,0,1-.71-3,12,12,0,0,1-.18-1.51.36.36,0,0,1,0-.21c0-.19,0-.39-.06-.59,0-.76-.06-1.56-.06-2.37,0-.24,0-.47,0-.72s.06-.75.1-1.1a25.07,25.07,0,0,1,.49-2.9c.08-.27.14-.54.21-.78s.17-.59.25-.86.12-.37.19-.55a20.81,20.81,0,0,1,1.15-2.74,10.9,10.9,0,0,1,.6-1.12l0-.06a10.76,10.76,0,0,1,.68-1.07,1,1,0,0,1,.12-.19c.28-.41.56-.82.87-1.21a17.56,17.56,0,0,1,8.73-6.2h0l.07,0h0a7.54,7.54,0,0,1,.88-.27l.32-.08.33-.06a6.37,6.37,0,0,1,.63-.11,2.32,2.32,0,0,1,.38-.07,1.81,1.81,0,0,1,.23,0l.48-.05.78-.07h0l.08,0h.09a.67.67,0,0,0,.2,0h.14c.25,0,.46,0,.69,0a7.23,7.23,0,0,1,1,.06,16.52,16.52,0,0,1,10,4.42c.35.32.66.62,1,.95,0,.07.09.1.13.15l.28.32c.14.16.29.33.43.52a13.49,13.49,0,0,1,1,1.36l.06.07c.26.39.5.8.73,1.2s.46.77.67,1.19a13,13,0,0,1,.58,1.25,22.26,22.26,0,0,1,1.77,9.63,21.3,21.3,0,0,1-.54,4.42A21.53,21.53,0,0,1,155.6,197.27Z" transform="translate(-22.85 -34.04)"/><path class="cls-5" d="M155.6,197.27c-.19.5-.41,1-.62,1.49h0c-.35.73-.72,1.44-1.12,2.12-.13.22-.27.45-.43.67a19.79,19.79,0,0,1-5.33,5.49c-.25.18-.51.36-.78.53s-.54.32-.83.48-.55.3-.83.43l-.87.37-.27.12q-.39.15-.78.27a15.9,15.9,0,0,1-3.26.72c-.36.05-.72.07-1.11.09a10.52,10.52,0,0,1-1.13,0h0l-.45,0a3,3,0,0,1-.39,0,15.39,15.39,0,0,0,1.55-.59,17.22,17.22,0,0,0,5.2-3.47,10.54,10.54,0,0,0,.94-.95,22.22,22.22,0,0,0,5.74-14.5,21.9,21.9,0,0,0-.62-6.17,18.81,18.81,0,0,0-.55-1.85v0c-.24-.68-.51-1.36-.8-2l-.19-.41a20.1,20.1,0,0,0-4.49-6.17,16.53,16.53,0,0,0-10-4.42h0l.08,0h0a7.54,7.54,0,0,1,.88-.27l.32-.08.33-.06a6.37,6.37,0,0,1,.63-.11,2.32,2.32,0,0,1,.38-.07,1.74,1.74,0,0,1,.22-.05l.49,0,.78-.07h.19a.67.67,0,0,0,.2,0h.14c.25,0,.46,0,.69,0a7.23,7.23,0,0,1,1,.06,16.52,16.52,0,0,1,10,4.42c.35.32.66.62,1,.95,0,.07.09.1.13.15l.28.32c.14.16.29.33.43.52a13.49,13.49,0,0,1,1,1.36l.06.07c.26.38.49.76.72,1.14a12.63,12.63,0,0,1,.68,1.25,13,13,0,0,1,.58,1.25,22.26,22.26,0,0,1,1.77,9.63,21.3,21.3,0,0,1-.54,4.42A21.53,21.53,0,0,1,155.6,197.27Z" transform="translate(-22.85 -34.04)"/><path class="cls-2" d="M155.63,197.17c-.19.5-.39,1-.62,1.49h0a20.15,20.15,0,0,1-1.13,2.1c-.13.22-.26.45-.42.68a19.74,19.74,0,0,1-5.31,5.46c-.25.18-.53.36-.8.52s-.54.32-.82.48a8.22,8.22,0,0,1-.84.42.58.58,0,0,1-.21.1,6.4,6.4,0,0,1-.65.29l-.27.1-.78.27a15.26,15.26,0,0,1-3.26.71c-.36,0-.72.07-1.11.1a10.56,10.56,0,0,1-1.13,0h0a3.25,3.25,0,0,1-.44,0,3,3,0,0,1-.4,0,7.47,7.47,0,0,1-1.25-.14.36.36,0,0,1-.18,0l-.09,0-.15,0a16,16,0,0,1-4-1.29,15.4,15.4,0,0,1-2.16-1.23,14.84,14.84,0,0,1-2.3-1.8h0c-.42-.38-.8-.8-1.2-1.23s-.6-.71-.9-1.09l-.21-.28c-.34-.46-.67-.92-1-1.42s-.7-1.21-1-1.83c-.08-.18-.16-.35-.22-.52a13.75,13.75,0,0,1-.88-2.21,1.48,1.48,0,0,1-.1-.27,20.3,20.3,0,0,1-.72-3,14.48,14.48,0,0,1-.19-1.51.66.66,0,0,1,0-.21c0-.19,0-.38,0-.58-.06-.76-.07-1.56-.07-2.36,0-.24,0-.48,0-.72s0-.75.09-1.1a22.48,22.48,0,0,1,.49-2.88c.08-.28.13-.55.21-.78s.16-.59.24-.86.13-.37.19-.54a21.62,21.62,0,0,1,1.15-2.74,11.88,11.88,0,0,1,.6-1.11l0-.06c.2-.37.44-.72.67-1.07,0-.07.08-.12.12-.18.28-.41.56-.82.88-1.21a17.47,17.47,0,0,1,8.72-6.16h0l.08,0h0a8.18,8.18,0,0,1,.88-.27l.33-.08.33-.06.62-.11a2.32,2.32,0,0,1,.38-.06,1,1,0,0,1,.23,0l.48-.05c.26,0,.52-.05.78-.06h.1s.07,0,.09,0a.64.64,0,0,0,.2,0h.14c.26,0,.46,0,.69,0a7.27,7.27,0,0,1,1,.05,16.59,16.59,0,0,1,10,4.43c.35.31.67.61,1,.94a1,1,0,0,0,.13.15,3.92,3.92,0,0,1,.28.31c.15.17.29.34.43.53a13.47,13.47,0,0,1,1,1.35l.06.07c.26.38.48.76.72,1.14a11.6,11.6,0,0,1,.68,1.25c.22.4.39.8.58,1.24a22.26,22.26,0,0,1,1.78,9.59,21.71,21.71,0,0,1-.53,4.4A21,21,0,0,1,155.63,197.17Z" transform="translate(-22.85 -34.04)"/><path class="cls-3" d="M151.5,174.22c0-.05-.1-.08-.13-.15-.32-.33-.63-.63-1-.95a16.65,16.65,0,0,0-9.34-4.35c0-.12.09-.24.13-.37a8.12,8.12,0,1,0-12.68,4.11,20.08,20.08,0,0,0-3.12,3.13c-.31.39-.59.8-.87,1.21a1,1,0,0,0-.12.19,10.76,10.76,0,0,0-.68,1.07l0,.06a10.9,10.9,0,0,0-.6,1.12,20.81,20.81,0,0,0-1.15,2.74c-.07.18-.13.36-.19.55s-.17.57-.25.86-.13.51-.21.78a25.07,25.07,0,0,0-.49,2.9c0,.35-.08.73-.1,1.1s0,.48,0,.72c0,.81,0,1.61.06,2.37,0,.2,0,.4.06.59a.36.36,0,0,0,0,.21,12,12,0,0,0,.18,1.51,21.46,21.46,0,0,0,.71,3l.1.28c7.41-.45,15.7-4.39,22.39-11.35a40.7,40.7,0,0,0,4.47-5.49,37.49,37.49,0,0,0,3.12-5.49Z" transform="translate(-22.85 -34.04)"/><path class="cls-3" d="M137.85,149.5c-8.66.45-5.78-1.68-12.87,3.2-4.51,3.11-7,.27-5.16-2.19,2.67-3.47,5.7-5.22,10.72-6.22C138.38,142.72,142.24,149.27,137.85,149.5Z" transform="translate(-22.85 -34.04)"/><path class="cls-3" d="M113,162.1a2.16,2.16,0,0,1-2.85-1.42,2.48,2.48,0,0,1,1.39-2.93,1.86,1.86,0,0,1,2.65,1.19A2.67,2.67,0,0,1,113,162.1Z" transform="translate(-22.85 -34.04)"/><circle class="cls-9" cx="130.33" cy="220.98" r="15.67"/></g></svg>