<svg width="50" height="49" viewBox="0 0 50 49" fill="none" xmlns="http://www.w3.org/2000/svg">
<path d="M22.2658 0.451626C10.8778 1.68945 1.71785 10.8494 0.480019 21.9898C-0.757806 33.6254 5.92646 44.0231 16.0766 47.9841C16.8193 48.2317 17.562 47.7366 17.562 46.7463V42.7853C17.562 42.7853 16.5718 43.0328 15.3339 43.0328C11.868 43.0328 10.3826 40.0621 10.1351 38.3291C9.8875 37.3388 9.39237 36.5961 8.64967 35.8535C7.90698 35.6059 7.65941 35.6059 7.65941 35.3583C7.65941 34.8632 8.4021 34.8632 8.64967 34.8632C10.1351 34.8632 11.3729 36.5961 11.868 37.3388C13.1058 39.3194 14.5912 39.8145 15.3339 39.8145C16.3242 39.8145 17.0669 39.5669 17.562 39.3194C17.8096 37.5864 18.5523 35.8535 20.0377 34.8632C14.3437 33.6254 10.1351 30.407 10.1351 24.9606C10.1351 22.2374 11.3729 19.5141 13.1058 17.5336C12.8583 17.0385 12.6107 15.8007 12.6107 14.0677C12.6107 13.0775 12.6107 11.5921 13.3534 10.1067C13.3534 10.1067 16.8193 10.1067 20.2852 13.325C21.5231 12.8299 23.256 12.5823 24.989 12.5823C26.7219 12.5823 28.4549 12.8299 29.9403 13.325C33.1586 10.1067 36.8721 10.1067 36.8721 10.1067C37.3672 11.5921 37.3672 13.0775 37.3672 14.0677C37.3672 16.0482 37.1197 17.0385 36.8721 17.5336C38.6051 19.5141 39.8429 21.9898 39.8429 24.9606C39.8429 30.407 35.6343 33.6254 29.9403 34.8632C31.4257 36.101 32.4159 38.3291 32.4159 40.5572V46.9939C32.4159 47.7366 33.1586 48.4793 34.1489 48.2317C43.3088 44.5182 49.7455 35.6059 49.7455 25.2081C49.7455 10.3542 37.1197 -1.28133 22.2658 0.451626H22.2658Z" fill="#221747"/>
</svg>
