<svg width="49" height="49" viewBox="0 0 49 49" fill="none" xmlns="http://www.w3.org/2000/svg">
<g clip-path="url(#clip0_6593_24718)">
<path d="M13.13 0.280273C5.90816 0.280273 0.0390625 6.14936 0.0390625 13.3712V35.1894C0.0390625 42.4112 5.90816 48.2803 13.13 48.2803H34.9482C42.17 48.2803 48.0391 42.4112 48.0391 35.1894V13.3712C48.0391 6.14936 42.17 0.280273 34.9482 0.280273H13.13ZM9.44176 16.7206C10.2054 16.7206 10.7734 17.2662 10.7734 17.9862C10.7734 18.6953 10.2054 19.2412 9.44176 19.2412C8.66722 19.2412 8.10157 18.6953 8.10157 17.9862C8.10157 17.2662 8.66722 16.7206 9.44176 16.7206ZM20.809 17.3428C24.7908 17.3428 27.2457 20.1231 27.2457 24.585C27.2457 29.0359 24.8126 31.8399 20.809 31.8399C16.7835 31.8399 14.3402 29.0468 14.3402 24.585C14.3402 20.1122 16.838 17.3428 20.809 17.3428ZM34.9162 17.3428C37.7198 17.3428 39.769 18.9777 39.8999 21.3122H37.8054C37.5981 20.0359 36.4967 19.2412 34.8821 19.2412C33.1803 19.2412 32.0568 20.047 32.0568 21.3016C32.0568 22.2834 32.7772 22.8513 34.5881 23.2767L36.1051 23.6475C38.9524 24.3129 40.1193 25.4587 40.1193 27.5423C40.1193 30.1933 38.0677 31.8506 34.7841 31.8506C31.7186 31.8506 29.657 30.2701 29.5043 27.7938H31.6328C31.8183 29.1029 33.1045 29.9415 34.9482 29.9415C36.6718 29.9415 37.9375 29.0478 37.9375 27.8151C37.9375 26.7678 37.141 26.1357 35.3083 25.6993L33.5185 25.2732C31.0203 24.6841 29.875 23.4734 29.875 21.4443C29.875 18.9789 31.8944 17.3428 34.9162 17.3428ZM20.809 19.3392C18.2017 19.3392 16.5455 21.3777 16.5455 24.585C16.5455 27.7813 18.1471 29.8435 20.809 29.8435C23.438 29.8435 25.0533 27.7813 25.0533 24.585C25.0533 21.3777 23.438 19.3392 20.809 19.3392ZM8.41691 21.0736H10.4688V31.5139H8.41691V21.0736Z" fill="#221747"/>
</g>
<defs>
<clipPath id="clip0_6593_24718">
<rect width="48" height="48" fill="white" transform="translate(0.0390625 0.280273)"/>
</clipPath>
</defs>
</svg>
