<svg width="49" height="49" viewBox="0 0 49 49" fill="none" xmlns="http://www.w3.org/2000/svg">
<g clip-path="url(#clip0_6593_20810)">
<path fill-rule="evenodd" clip-rule="evenodd" d="M47.6395 11.6391C47.6568 11.7031 47.6656 11.7691 47.6658 11.8354V22.1385C47.6658 22.2707 47.6309 22.4006 47.5646 22.515C47.4983 22.6295 47.403 22.7244 47.2883 22.7901L38.6407 27.7689V37.6372C38.6407 37.9058 38.498 38.1537 38.2651 38.2889L20.2141 48.6802C20.1728 48.7037 20.1277 48.7187 20.0826 48.7347C20.0657 48.7403 20.0498 48.7507 20.0319 48.7553C19.9058 48.7886 19.7731 48.7886 19.6469 48.7553C19.6263 48.7497 19.6075 48.7384 19.5878 48.7309C19.5465 48.7159 19.5033 48.7028 19.4638 48.6802L1.41655 38.2889C1.3019 38.223 1.20664 38.1281 1.14037 38.0137C1.0741 37.8993 1.03915 37.7694 1.03906 37.6372V6.72799C1.03906 6.66038 1.04845 6.59465 1.06536 6.53079C1.07099 6.50919 1.08414 6.48947 1.09165 6.46788C1.10573 6.42844 1.11888 6.38806 1.13954 6.35144C1.15362 6.32702 1.17428 6.3073 1.19119 6.28476C1.21278 6.25471 1.2325 6.22373 1.25786 6.19743C1.27945 6.17584 1.30763 6.15987 1.33204 6.14109C1.35927 6.11856 1.38369 6.09414 1.41468 6.0763H1.41561L10.4397 0.880629C10.554 0.814878 10.6835 0.780273 10.8153 0.780273C10.9472 0.780273 11.0767 0.814878 11.1909 0.880629L20.215 6.0763H20.2169C20.247 6.09508 20.2723 6.11856 20.2996 6.14015C20.324 6.15893 20.3512 6.17584 20.3728 6.1965C20.3991 6.22373 20.4179 6.25471 20.4404 6.28476C20.4564 6.3073 20.478 6.32702 20.4911 6.35144C20.5127 6.389 20.5249 6.42844 20.54 6.46788C20.5475 6.48947 20.5606 6.50919 20.5662 6.53173C20.5835 6.59572 20.5924 6.6617 20.5925 6.72799V26.0336L28.1123 21.7037V11.8344C28.1123 11.7687 28.1217 11.702 28.1386 11.6391C28.1452 11.6166 28.1574 11.5969 28.1649 11.5753C28.1799 11.5358 28.1931 11.4955 28.2137 11.4588C28.2278 11.4344 28.2485 11.4147 28.2644 11.3922C28.287 11.3621 28.3058 11.3311 28.332 11.3048C28.3536 11.2832 28.3809 11.2673 28.4053 11.2485C28.4335 11.226 28.4579 11.2015 28.4879 11.1837H28.4889L37.5139 5.98803C37.6281 5.92219 37.7577 5.88753 37.8895 5.88753C38.0214 5.88753 38.1509 5.92219 38.2651 5.98803L47.2892 11.1837C47.3212 11.2025 47.3456 11.226 47.3737 11.2476C47.3972 11.2663 47.4245 11.2832 47.4461 11.3039C47.4723 11.3311 47.4911 11.3621 47.5137 11.3922C47.5306 11.4147 47.5512 11.4344 47.5644 11.4588C47.586 11.4955 47.5982 11.5358 47.6132 11.5753C47.6217 11.5969 47.6339 11.6166 47.6395 11.6391ZM46.1615 21.7037V13.1359L43.0035 14.9539L38.6407 17.4658V26.0336L46.1624 21.7037H46.1615ZM37.1374 37.2024V28.6291L32.846 31.0799L20.5916 38.0738V46.728L37.1374 37.2024ZM2.54339 8.02855V37.2024L19.0873 46.727V38.0748L10.4444 33.1834L10.4416 33.1815L10.4378 33.1796C10.4087 33.1627 10.3843 33.1383 10.3571 33.1176C10.3336 33.0989 10.3064 33.0838 10.2857 33.0632L10.2838 33.0604C10.2594 33.0369 10.2425 33.0078 10.2219 32.9815C10.2031 32.9561 10.1805 32.9345 10.1655 32.9082L10.1646 32.9054C10.1477 32.8772 10.1374 32.8434 10.1251 32.8115C10.1129 32.7833 10.097 32.757 10.0895 32.727V32.7261C10.0801 32.6904 10.0782 32.6528 10.0744 32.6162C10.0707 32.588 10.0632 32.5598 10.0632 32.5317V32.5298V12.3584L5.70136 9.84558L2.54339 8.02949V8.02855ZM10.8163 2.39998L3.29744 6.72799L10.8144 11.056L18.3323 6.72705L10.8144 2.39998H10.8163ZM14.7264 29.4103L19.0882 26.8994V8.02855L15.9302 9.84652L11.5675 12.3584V31.2292L14.7264 29.4103ZM37.8895 7.50739L30.3716 11.8354L37.8895 16.1634L45.4065 11.8344L37.8895 7.50739ZM37.1374 17.4658L32.7746 14.9539L29.6166 13.1359V21.7037L33.9785 24.2147L37.1374 26.0336V17.4658ZM19.8385 36.7733L30.8656 30.478L36.3777 27.3322L28.8654 23.0071L20.216 27.9868L12.3328 32.5251L19.8385 36.7733Z" fill="#FF2D20"/>
</g>
<defs>
<clipPath id="clip0_6593_20810">
<rect width="48" height="48" fill="white" transform="translate(0.0390625 0.280273)"/>
</clipPath>
</defs>
</svg>
